<svg width="24" height="24" viewBox="0 0 24 24" fill="none" xmlns="http://www.w3.org/2000/svg">
<path d="M4.64467 4.79961H20.5447C22.0447 4.79961 22.8007 5.50761 22.8007 6.94761V17.0516C22.8007 18.4796 22.0447 19.1996 20.5447 19.1996H4.64467C3.14467 19.1996 2.38867 18.4796 2.38867 17.0516V6.94761C2.38867 5.50761 3.14467 4.79961 4.64467 4.79961ZM12.5887 15.1196L20.6767 8.48361C20.9647 8.24361 21.1927 7.69161 20.8327 7.19961C20.4847 6.70761 19.8487 6.69561 19.4287 6.99561L12.5887 11.6276L5.76067 6.99561C5.34067 6.69561 4.70467 6.70761 4.35667 7.19961C3.99667 7.69161 4.22467 8.24361 4.51267 8.48361L12.5887 15.1196Z" fill="#898A98"/>
</svg>
