<svg xmlns="http://www.w3.org/2000/svg" > 
	<symbol id="logo" viewBox="0 0 205 49">
	 <g>
	<path d="M60.6 15V19.7H57.7V24H60.6V35.3C60.6 37.4 61.1 38.9 62.2 39.8C63.3 40.7 65 41.2 67.5 41.2C68.5 41.2 69.4 41.1 70.2 41V36.8C69.8 36.9 69.3 36.9 68.8 36.9C67.1 36.9 66.3 36.1 66.3 34.5V24H70.2V19.7H66.3V15H60.6Z" fill="white"/>
<path d="M78.9 23.6H78.8V19.8H73.4V41H79V29.1C79 27.6 79.4 26.4 80.2 25.6C81 24.8 82.1 24.3 83.5 24.3C84.3 24.3 85 24.4 85.5 24.6V19.6C85.1 19.5 84.5 19.4 83.9 19.4C81.3 19.5 79.6 20.9 78.9 23.6Z" fill="white"/>
<path d="M103.6 21.3C102 20 99.8 19.4 97 19.4C94.3 19.4 92.2 20 90.5 21.3C88.8 22.6 88 24.2 87.9 26.2H93C93.1 25.4 93.5 24.8 94.2 24.3C94.9 23.8 95.7 23.6 96.7 23.6C97.9 23.6 98.8 23.9 99.4 24.4C100.1 25 100.4 25.7 100.4 26.8V28.2L95.1 28.5C92.4 28.7 90.3 29.3 88.9 30.4C87.5 31.5 86.7 33 86.7 34.9C86.7 36.8 87.4 38.3 88.7 39.5C90 40.7 91.7 41.3 93.8 41.3C95.2 41.3 96.5 41 97.6 40.4C98.8 39.8 99.7 38.9 100.3 37.8H100.4V41H105.8V26.4C106.1 24.3 105.2 22.6 103.6 21.3ZM100.5 33.2C100.5 34.3 100 35.3 99.1 36C98.2 36.7 97.1 37.1 95.8 37.1C94.8 37.1 94 36.9 93.3 36.4C92.7 35.9 92.4 35.3 92.4 34.5C92.4 32.9 93.6 32 96 31.9L100.5 31.6V33.2Z" fill="white"/>
<path d="M116.9 18.2C116.9 17.5 117.1 16.9 117.5 16.6C117.9 16.3 118.5 16.1 119.3 16.1C119.9 16.1 120.4 16.1 120.8 16.2V12.3C119.9 12.2 119.1 12.1 118.2 12.1C115.7 12.1 114 12.6 112.9 13.5C111.8 14.4 111.3 15.9 111.3 17.9V19.8H108.4V24H111.3V41H116.9V24H120.8V19.7H116.8V18.2H116.9Z" fill="white"/>
<path d="M136.5 19.5C133.4 19.5 131.2 20.8 129.9 23.4H129.8V11.8H124.2V41H129.7V37.4H129.8C131 40 133.3 41.3 136.5 41.3C139.2 41.3 141.3 40.3 142.8 38.4C144.3 36.5 145.1 33.8 145.1 30.4C145.1 27 144.3 24.4 142.8 22.4C141.3 20.5 139.2 19.5 136.5 19.5ZM138.1 35C137.2 36.1 136.1 36.7 134.6 36.7C133.2 36.7 132 36.1 131.1 35C130.2 33.9 129.8 32.3 129.8 30.4C129.8 28.5 130.3 27 131.1 25.8C132 24.6 133.2 24.1 134.6 24.1C136.1 24.1 137.2 24.7 138.1 25.8C139 26.9 139.4 28.5 139.4 30.4C139.4 32.3 138.9 33.8 138.1 35Z" fill="white"/>
<path d="M162.4 31.9C162.4 33.3 162 34.5 161.2 35.4C160.4 36.3 159.3 36.7 158 36.7C156.7 36.7 155.6 36.3 154.9 35.6C154.1 34.8 153.8 33.7 153.8 32.3V19.8H148.2V33.4C148.2 35.8 148.9 37.8 150.3 39.2C151.7 40.6 153.5 41.3 155.9 41.3C159.2 41.3 161.5 39.9 162.6 37.2H162.7V41H168.1V19.8H162.5V31.9H162.4Z" fill="white"/>
<path d="M177.4 23.6H177.3V19.8H171.9V41H177.5V29.1C177.5 27.6 177.9 26.4 178.7 25.6C179.5 24.8 180.6 24.3 182 24.3C182.8 24.3 183.5 24.4 184 24.6V19.6C183.6 19.5 183 19.4 182.4 19.4C179.8 19.5 178.1 20.9 177.4 23.6Z" fill="white"/>
<path d="M199.5 19.8V23.4H199.4C198.8 22.2 198 21.3 196.8 20.6C195.6 19.9 194.3 19.5 192.8 19.5C190.1 19.5 188 20.5 186.4 22.4C184.8 24.3 184 27 184 30.3C184 33.5 184.8 36.1 186.4 38C188 39.9 190 40.8 192.7 40.8C194.2 40.8 195.6 40.5 196.8 39.8C198 39.1 198.8 38.2 199.3 37.1H199.4V40.9C199.4 42.1 199 43 198.1 43.7C197.3 44.4 196.1 44.7 194.7 44.7C193.6 44.7 192.6 44.5 191.8 44.1C191 43.7 190.5 43.1 190.3 42.4H184.7C184.8 44.3 185.8 45.8 187.6 47C189.4 48.1 191.7 48.7 194.5 48.7C197.7 48.7 200.3 48 202.1 46.5C204 45 205 43 205 40.5V19.8H199.5ZM198.2 34.9C197.3 36 196.2 36.6 194.7 36.6C193.2 36.6 192.1 36.1 191.2 35C190.3 33.9 189.9 32.4 189.9 30.5C189.9 28.6 190.3 27.1 191.2 25.9C192.1 24.8 193.2 24.2 194.7 24.2C196.2 24.2 197.3 24.8 198.2 25.9C199.1 27 199.5 28.6 199.5 30.5C199.5 32.2 199.1 33.7 198.2 34.9Z" fill="white"/>
<path d="M42.4 18.8C40.9 18.8 39.2 19.3 37.4 20.1C37.2 20.2 37 20.3 36.7 20.4C35.8 20.8 34.5 21.6 32.9 22.6V15.7H51.9V0H39.2V5.8H32.8V0H20.1V5.8H14.8V0H2V15.6H20.1V31C18.4 32.1 17.2 33 16.5 33.3C14.3 34.5 12.4 35.4 11.5 35.4C8.7 35.4 6.5 33.1 6.5 30.4C6.5 27.6 8.8 25.4 11.5 25.4C11.7 25.4 13 25.5 16.5 27.5V20.2C14 19.1 12.5 18.9 11.5 18.9C5.2 18.8 0 24 0 30.4C0 36.8 5.2 42 11.6 42C13.1 42 14.8 41.5 16.6 40.7C17.5 40.3 18.7 39.6 20.2 38.7C24 36.4 29.2 32.8 32.9 30.3C34.7 29.1 36.1 28.2 36.7 27.8C36.9 27.7 37.2 27.5 37.4 27.4C39.6 26.2 41.5 25.3 42.4 25.3C45.2 25.3 47.4 27.6 47.4 30.3C47.4 33.1 45.1 35.3 42.4 35.3C42.3 35.3 41.9 35.3 40.9 34.9C40.1 34.6 39 34.1 37.4 33.2V40.5C38.9 41.2 40 41.5 40.9 41.6C41.5 41.7 42 41.7 42.4 41.7C48.8 41.7 54 36.5 54 30.1C53.9 24 48.7 18.8 42.4 18.8Z" fill="white"/>
<path d="M20.2 48.7H32.9V34.3C28 37.6 23.4 40.7 20.2 42.5V48.7Z" fill="white"/>
</g>
</symbol>






<symbol id="first-screen-1" viewBox="0 0 41 48">
	<g>
		<path d="M43 8.30435H1M36.6087 4.65217H34.7826M40.2609 4.65217H38.4348M32.9565 4.65217H31.1304M20.1739 4.65217H3.73913M8.57826 32.0435H1V1H43V32.0435H35.4217M4.65217 11.9565H20.1739M4.65217 15.6087H11.0435M22 15.6087C14.4361 15.6087 8.30435 21.7404 8.30435 29.3043C8.30435 36.8682 14.4361 43 22 43C29.5639 43 35.6957 36.8682 35.6957 29.3043C35.6957 21.7404 29.5639 15.6087 22 15.6087ZM22 15.6087V22.913M22 22.913C18.4702 22.913 15.6087 25.7745 15.6087 29.3043C15.6087 32.8342 18.4702 35.6957 22 35.6957C25.5298 35.6957 28.3913 32.8342 28.3913 29.3043C28.3913 25.7745 25.5298 22.913 22 22.913ZM31.6783 38.9826L26.5196 33.8239M31.6783 19.6261L26.5196 24.7848" stroke="#49B3FF" stroke-width="1.4" stroke-miterlimit="10" fill="none"/>
	</g>
</symbol>

<symbol id="first-screen-2" viewBox="0 0 41 48">
	<g>
		<path d="M23.425 11C23.425 13.8 21.28 16 18.55 16H11.725M40 48V45C40 40.6 36.49 37 32.2 37H8.8C4.51 37 1 40.6 1 45V48M34.15 15C34.15 7.3 28.0075 1 20.5 1C12.9925 1 6.85 7.3 6.85 15M34.15 15H36.1C37.1725 15 38.05 15.9 38.05 17V21C38.05 22.1 37.1725 23 36.1 23H34.15M34.15 15V23M6.85 15H4.9C3.8275 15 2.95 15.9 2.95 17V21C2.95 22.1 3.8275 23 4.9 23H6.85V15ZM34.15 23V24C34.15 25.7 32.8825 27 31.225 27H22.45M22.45 27C22.45 28.1046 21.577 29 20.5 29C19.423 29 18.55 28.1046 18.55 27C18.55 25.8954 19.423 25 20.5 25C21.577 25 22.45 25.8954 22.45 27ZM15.625 37L20.5 46L25.375 37M29.275 37V42L20.5 47L11.725 42V37M10.75 23C10.75 28.5 15.1375 33 20.5 33C25.8625 33 30.25 28.5 30.25 23V15C30.25 9.5 25.8625 5 20.5 5C15.1375 5 10.75 9.5 10.75 15V23Z" stroke="#49B3FF" stroke-width="1.4" stroke-miterlimit="10" fill="none"/>
	</g>
</symbol>

<symbol id="first-screen-3" viewBox="0 0 41 48">
	<g>
		<path d="M16.3043 29.6957V16.3043H12.4783L10.5652 18.2174V29.6957M35.4348 19.1739V17.2609L34.4783 16.3043H30.6522L29.6957 17.2609V22.0435L30.6522 23H34.4783L35.4348 23.9565V28.7391L34.4783 29.6957H30.6522L29.6957 28.7391V26.8261M10.5652 25.8696H16.3043M40.2174 17.2609V15.3478L30.6522 5.78261H15.3478L5.78261 15.3478V24.913M45 17.2609V13.4348L32.5652 1H13.4348L1 13.4348V24.913M5.78261 28.7391V30.6522L15.3478 40.2174H30.6522L40.2174 30.6522V21.087M1 28.7391V32.5652L13.4348 45H32.5652L45 32.5652V21.087M25.8696 18.2174L23.9565 16.3043H20.1304V29.6957H23.9565L25.8696 27.7826V18.2174Z" stroke="#49B3FF" stroke-width="1.4" stroke-miterlimit="10" stroke-linecap="round" stroke-linejoin="round" fill="none"/>
	</g>
</symbol>


<symbol id="choice__icon-1" viewBox="0 0 51 51">
	<g>
<path d="M50 9.52174H1M42.5435 5.26087H40.413M46.8043 5.26087H44.6739M38.2826 5.26087H36.1522M23.3696 5.26087H4.19565M39.3478 41.4783H50V1H1V41.4783H11.6522M23.3696 42.5435V30.8261H20.1739C19.0022 30.8261 18.0435 31.7848 18.0435 32.9565V42.5435M23.3696 38.2826H18.0435M31.5185 22.3043H19.4815L11.6522 30.1337V42.1707L19.4815 50H31.5185L39.3478 42.1707V30.1337L31.5185 22.3043ZM32.9565 32.9565C32.9565 31.7848 31.9978 30.8261 30.8261 30.8261H27.6304V41.4783H30.8261C31.9978 41.4783 32.9565 40.5196 32.9565 39.3478V32.9565Z" stroke="#49B3FF" stroke-width="2" stroke-miterlimit="10" fill="none"/>
	</g>
</symbol>

<symbol id="choice__icon-2" viewBox="0 0 53 53">
	<g>
<path d="M6.54348 32.0435V20.9565C6.54348 9.98043 15.5239 1 26.5 1C37.4761 1 46.4565 9.98043 46.4565 20.9565V32.0435M46.4565 33.1522H49.7826C51.0022 33.1522 52 32.1543 52 30.9348V24.2826C52 23.063 51.0022 22.0652 49.7826 22.0652H46.4565V33.1522ZM46.4565 33.1522V35.3696C46.4565 39.6935 43.0196 43.1304 38.6957 43.1304H29.8261M29.8261 43.1304C29.8261 44.9674 28.3369 46.4565 26.5 46.4565C24.6631 46.4565 23.1739 44.9674 23.1739 43.1304C23.1739 41.2935 24.6631 39.8043 26.5 39.8043C28.3369 39.8043 29.8261 41.2935 29.8261 43.1304ZM6.54348 33.1522H3.21739C1.99783 33.1522 1 32.1543 1 30.9348V24.2826C1 23.063 1.99783 22.0652 3.21739 22.0652H6.54348V33.1522ZM32.0435 14.3043C32.0435 20.4022 27.0543 25.3913 20.9565 25.3913H10.9783V36.4783C10.9783 45.0152 17.963 52 26.5 52C35.037 52 42.0217 45.0152 42.0217 36.4783V25.2804C36.3674 24.7261 32.0435 20.0696 32.0435 14.3043Z" stroke="#49B3FF" stroke-width="2" stroke-miterlimit="10" fill="none"/>

	</g>
</symbol>

<symbol id="choice__icon-3" viewBox="0 0 51 52">
	<g>
<path d="M37.1894 51.0422V38.2771C37.1894 35.2985 34.8492 32.9583 31.8706 32.9583H19.1055C16.127 32.9583 13.7867 35.2985 13.7867 38.2771V51.0422M46.2314 29.9797C43.6784 25.2992 39.9552 20.2995 35.2747 15.619C22.8287 3.27934 8.46789 -2.35859 3.04272 3.17296C-2.27609 8.49177 3.14909 22.5334 15.1696 34.7667M46.2314 29.9797C45.274 30.4052 44.6358 31.3626 44.6358 32.4264C44.6358 33.9156 45.8059 35.0858 47.2952 35.0858C47.7207 35.0858 48.1462 35.0858 48.4653 34.873M46.2314 29.9797C46.5505 29.8734 46.976 29.767 47.2952 29.767C48.7844 29.767 49.9546 30.9371 49.9546 32.4264C49.9546 33.4901 49.3163 34.4475 48.4653 34.873M37.1894 49.2338C41.7636 50.5103 45.6995 50.1912 47.9334 47.9573C50.5928 45.2979 50.5928 40.511 48.4653 34.873M29.9559 4.7686C25.2753 7.32163 20.2756 11.0448 15.5951 15.7253C14.9568 16.3636 14.425 16.8955 13.8931 17.5337M29.9559 4.7686C30.3814 5.72599 31.3387 6.36425 32.4025 6.36425C33.8918 6.36425 35.0619 5.19411 35.0619 3.70484C35.0619 3.27934 34.9555 2.96021 34.8492 2.53471M29.9559 4.7686C29.8495 4.44948 29.7431 4.02397 29.7431 3.70484C29.7431 2.21558 30.9132 1.04544 32.4025 1.04544C33.4663 1.04544 34.4237 1.6837 34.8492 2.53471M34.8492 2.53471C40.4871 0.407187 45.274 0.407187 47.9334 3.06659C53.2522 8.38539 47.9334 22.427 35.9129 34.7667M13.7867 49.2338C9.21253 50.5103 5.38299 50.1912 3.14909 47.9573C-1.42508 43.3831 1.87258 32.4264 10.3827 21.6824M18.0417 51.0422V41.4683M32.9344 51.0422V41.4683M30.8069 23.3844C30.8069 26.3629 28.4666 28.7032 25.4881 28.7032C22.5095 28.7032 20.1693 26.3629 20.1693 23.3844V21.2569C20.1693 18.2784 22.5095 15.9381 25.4881 15.9381C28.4666 15.9381 30.8069 18.2784 30.8069 21.2569V23.3844ZM14.8505 19.6613C14.8505 21.1505 13.6803 22.3207 12.1911 22.3207C11.4464 22.3207 10.9145 22.1079 10.3827 21.576C9.85078 21.1505 9.53166 20.4059 9.53166 19.6613C9.53166 18.172 10.7018 17.0019 12.1911 17.0019C12.8293 17.0019 13.3612 17.2146 13.8931 17.6401C14.425 18.0656 14.8505 18.8102 14.8505 19.6613Z" stroke="#49B3FF" stroke-width="2" stroke-miterlimit="10" fill="none"/>

	</g>
</symbol>

<symbol id="choice__icon-4" viewBox="0 0 53 53">
	<g>
<path d="M29.8261 20.9565C29.8261 19.1133 28.3432 17.6304 26.5 17.6304M26.5 17.6304C24.6568 17.6304 23.1739 19.1133 23.1739 20.9565V21.9128C23.1739 23.3957 23.9084 24.7815 25.1418 25.5992L27.8443 27.4008C29.0777 28.2185 29.8122 29.6043 29.8122 31.0872V32.0435C29.8122 33.8867 28.3293 35.3696 26.4861 35.3696C24.6429 35.3696 23.1601 33.8867 23.1601 32.0435M26.5 17.6304V14.3043M26.5 35.3696V38.6957M5.43478 26.5C5.43478 14.8726 14.8726 5.43478 26.5 5.43478C31.7802 5.43478 36.6168 7.38886 40.3171 10.6041L36.4228 13.9717L46.4565 14.3043L47.5791 4.32609L43.7125 7.67989C39.153 3.53614 33.1245 1 26.5 1C12.4196 1 1 12.4196 1 26.5C1 30.2557 1.81766 33.8174 3.27283 37.0326M47.5652 26.5C47.5652 38.1274 38.1274 47.5652 26.5 47.5652C21.2198 47.5652 16.3832 45.6111 12.6829 42.3959L16.5772 39.0283L6.55734 38.6957L5.43478 48.6739L9.30136 45.3201C13.847 49.4639 19.8755 52 26.5 52C40.5804 52 52 40.5804 52 26.5C52 22.7443 51.1823 19.1826 49.7272 15.9674M34.2609 26.5H38.6957M14.3043 26.5H18.7391" stroke="#49B3FF" stroke-width="2" stroke-miterlimit="10" fill="none"/>

	</g>
</symbol>

<symbol id="choice__icon-5" viewBox="0 0 53 42">
	<g>
<path d="M30.9348 36.4783H22.0652M19.8478 36.4783H1V37.587C1 39.4302 2.48288 40.913 4.32609 40.913H48.6739C50.5171 40.913 52 39.4302 52 37.587V36.4783H33.1522M3.21739 36.4783V5.43478M3.21739 5.43478V4.32609C3.21739 2.48288 4.70027 1 6.54348 1H46.4565C48.2997 1 49.7826 2.48288 49.7826 4.32609V5.43478M3.21739 5.43478H49.7826M49.7826 5.43478V36.4783M12.087 12.087H18.7391V29.8261H25.3913M25.3913 20.9565H18.7391M7.65217 9.86957H12.087V14.3043H7.65217V9.86957ZM25.3913 27.6087H46.4565V32.0435H25.3913V27.6087ZM25.3913 18.7391H46.4565V23.1739H25.3913V18.7391Z" stroke="#49B3FF" stroke-width="2" stroke-miterlimit="10" fill="none"/>

	</g>
</symbol>

<symbol id="choice__icon-6" viewBox="0 0 52 52">
	<g>
<path d="M29.9345 40.6812C24.8549 42.0394 19.2184 40.7219 15.2389 36.7424C9.29007 30.7936 9.29007 21.164 15.2389 15.2287C21.1742 9.27988 30.8038 9.27988 36.7526 15.2287C40.7321 19.2082 42.0496 24.8447 40.6914 29.9243M34.1721 44.9187C32.5966 45.6114 30.9396 46.0868 29.2554 46.3584V50.7589C27.1095 51.0577 24.8821 51.0577 22.7225 50.7589V46.3584C19.5987 45.8559 16.5699 44.6335 13.8943 42.6913L10.7705 45.8151C9.91483 45.1632 9.09992 44.4433 8.29859 43.6692C7.51084 42.8814 6.80458 42.0665 6.15265 41.2109L9.27648 38.087C7.33428 35.3978 6.09832 32.3826 5.60938 29.2588H1.22243C0.92363 27.0857 0.92363 24.8855 1.23601 22.7259H5.62296C6.12549 19.6021 7.34786 16.5733 9.29007 13.8977L6.16623 10.7739C6.83175 9.91823 7.538 9.10331 8.31217 8.30198C9.09992 7.51424 9.91483 6.80798 10.7841 6.15605L13.9079 9.27988C16.5835 7.33767 19.5987 6.10172 22.7361 5.61277V1.22583C24.8956 0.927027 27.0823 0.927027 29.2554 1.21225V5.62636C32.3793 6.1153 35.408 7.33767 38.0836 9.29346L41.2075 6.16963C42.0495 6.83514 42.878 7.5414 43.6658 8.31557C44.4535 9.10332 45.1598 9.91823 45.8117 10.7875L42.6879 13.9113C44.6165 16.5869 45.8525 19.6021 46.355 22.7395H50.7555C51.0543 24.899 51.0543 27.0993 50.7555 29.2724H46.355C46.0834 30.9565 45.608 32.6135 44.9153 34.189M46.6402 46.63L44.4671 44.4569M49.7097 43.5605L36.1007 29.9515C36.5896 28.7291 36.8613 27.3845 36.8613 25.9856C36.8613 19.9824 31.999 15.1201 25.9958 15.1201C25.3167 15.1201 24.6647 15.188 24.0264 15.3102C23.456 15.4189 22.9942 15.8263 22.8176 16.3832C22.641 16.9401 22.7904 17.5377 23.2115 17.9451L28.6307 23.3643C29.0245 23.7582 29.269 24.3014 29.269 24.899C29.269 25.4966 29.0245 26.0399 28.6307 26.4338L26.4576 28.6069C26.0637 29.0008 25.5204 29.2452 24.9228 29.2452C24.3252 29.2452 23.7819 29.0008 23.3881 28.6069L17.9689 23.1877C17.5614 22.7803 16.9502 22.6309 16.407 22.7938C15.8501 22.9704 15.4427 23.4322 15.334 24.0026C15.2118 24.641 15.1439 25.3065 15.1439 25.972C15.1439 31.9752 20.0062 36.8375 26.0094 36.8375C27.4083 36.8375 28.7393 36.5659 29.9753 36.0769L43.5843 49.686C44.372 50.4737 45.4586 50.9626 46.6538 50.9626C49.0578 50.9626 51 49.0204 51 46.6164C50.9864 45.4348 50.4975 44.3483 49.7097 43.5605Z" stroke="#49B3FF" stroke-width="2" stroke-miterlimit="10" fill="none"/>

	</g>
</symbol>


<symbol id="work__icon-1" viewBox="0 0 91 106">
	<g>
		<path d="M25.475 42.9057V18.6444H18.8C16.3525 18.6444 14.35 20.6294 14.35 23.0555V42.9057M25.475 34.0834H14.35M83.325 104.662V96.1426C87.4412 92.145 90 86.5759 90 80.4003V62.7558C90 59.089 87.0241 56.1391 83.325 56.1391H63.3V38.4945C63.3 36.0684 61.2975 34.0834 58.85 34.0834C56.4025 34.0834 54.4 36.0684 54.4 38.4945V74.8588C54.4 76.2925 53.4822 77.5607 52.1194 78.0018C50.7566 78.4429 49.2547 77.9742 48.3925 76.8439L42.4128 68.9314C41.6062 67.8562 40.2991 67.1669 38.8528 67.1669C36.4053 67.1669 34.4028 69.1519 34.4028 71.5781C34.4028 72.5706 34.7366 73.4804 35.2928 74.2247L44.5266 86.4381C47.2522 90.0497 50.5341 93.1926 54.2887 95.7566L54.4278 95.8669V104.689M45.5 55.3671L42.4962 58.3446H17.3538L1 42.1337V17.2108L17.3538 0.999847H42.4962L58.85 17.2108V25.2611M45.5 23.0555C45.5 20.6294 43.4975 18.6444 41.05 18.6444H34.375V40.7001H41.05C43.4975 40.7001 45.5 38.7151 45.5 36.289V23.0555Z" stroke="#21B6E6" stroke-width="1.5" stroke-miterlimit="10" stroke-linecap="round" stroke-linejoin="round" fill="none"/>
	</g>
</symbol>


<symbol id="work__icon-2" viewBox="0 0 92 92">
	<g>
		<path d="M7.225 68.7625C3.25 62.125 1 54.325 1 46C1 21.175 21.175 1 46 1C70.825 1 91 21.175 91 46C91 54.325 88.75 62.125 84.775 68.7625M64 31C64 40.9411 55.9411 49 46 49C36.0589 49 28 40.9411 28 31C28 21.0589 36.0589 13 46 13C55.9411 13 64 21.0589 64 31ZM76.975 78.625C68.95 86.3125 58 91 46 91C34 91 23.0875 86.275 15.025 78.625C21.2875 68.0875 32.8 61 46 61C59.2 61 70.675 68.0875 76.975 78.625Z" stroke="#21B6E6" stroke-width="2" stroke-miterlimit="10" stroke-linecap="round" stroke-linejoin="round" fill="none"/>
	</g>
</symbol>


<symbol id="work__icon-3" viewBox="0 0 85 88">
	<g>
		<path d="M7.82163 34.5995C7.90599 20.6291 17.608 8.68269 30.6564 4.26953C44.0142 -0.227958 59.5935 3.31381 69.1268 13.8829C74.273 19.561 77.1977 26.9256 77.2258 34.5995C77.2258 35.4709 78.5756 35.4709 78.5756 34.5995C78.4913 20.0951 68.48 7.67076 54.9535 3.03272C41.0614 -1.74586 24.7227 2.02079 14.852 13.0677C9.53705 18.9988 6.52803 26.6164 6.47179 34.5995C6.47179 35.4709 7.82163 35.4709 7.82163 34.5995Z" fill="#21B6E5"/>
<path d="M5.60002 54.9787C7.31544 54.9787 9.36832 55.2879 10.9431 54.4727C12.7992 53.4889 13.4741 51.6618 13.4741 49.6942C13.4741 46.0681 13.5303 42.4139 13.4741 38.7878C13.446 36.5109 12.068 34.487 9.76202 34.0092C8.94649 33.8405 8.0466 33.9248 7.23107 33.9248C6.27494 33.9248 5.26256 33.8405 4.30642 34.1216C0.116301 35.3584 1.10056 40.7273 1.10056 44.0161C1.10056 46.0681 1.07244 48.12 1.10056 50.172C1.12868 52.8424 2.90034 54.8382 5.60002 54.9787C6.47179 55.0349 6.47179 53.6857 5.60002 53.6295C1.43802 53.4327 2.4504 47.9514 2.4504 45.1405C2.4504 43.3977 2.4504 41.683 2.4504 39.9402C2.4504 38.4786 2.33791 37.045 3.57526 36.0049C4.84073 34.9368 7.03422 35.2179 8.60903 35.2741C10.7744 35.3303 12.0399 36.8482 12.0961 38.9283C12.1524 42.1047 12.0961 45.281 12.0961 48.4574C12.0961 50.0034 12.2648 51.6337 10.9994 52.8143C9.64953 54.0511 7.28732 53.6576 5.60002 53.6576C4.72825 53.6295 4.72825 54.9787 5.60002 54.9787Z" fill="#21B6E5"/>
<path d="M79.4755 53.6295C78.1819 53.6295 76.6071 53.8543 75.3417 53.4889C73.3731 52.8986 72.9794 51.1277 72.9794 49.3569C72.9794 46.0962 72.9794 42.8355 72.9794 39.5748C72.9794 37.8601 73.2607 36.2017 75.0886 35.4709C76.3259 34.993 78.1538 35.1898 79.4755 35.246C83.6375 35.4146 82.6533 40.9241 82.6533 43.735C82.6533 45.5621 82.6533 47.3892 82.6533 49.2163C82.6252 51.3526 82.0909 53.4889 79.4755 53.6295C78.6038 53.6857 78.6038 55.0349 79.4755 54.9787C82.0346 54.8382 83.8906 52.983 83.975 50.3969C84.0312 48.8228 83.975 47.2487 83.975 45.6745C83.975 43.5944 83.975 41.5425 83.975 39.4624C83.975 37.7477 83.8063 36.1455 82.3721 34.9649C80.741 33.5875 78.4913 33.8686 76.4946 33.8967C73.9918 33.9248 71.8546 35.5833 71.6296 38.1693C71.3203 41.5987 71.6015 45.1967 71.6015 48.626C71.6015 50.6218 71.6296 52.5613 73.3731 53.9668C75.0886 55.316 77.4227 54.9787 79.4474 54.9787C80.3473 54.9787 80.3473 53.6295 79.4755 53.6295Z" fill="#21B6E5"/>
<path d="M55.4878 84.4373C58.3562 84.4373 61.1965 84.5216 63.9805 83.847C67.6926 82.9475 71.1515 80.9798 73.7668 78.1689C76.2697 75.4704 77.957 72.0973 78.435 68.4431C78.7163 66.2787 78.6038 64.0018 78.6038 61.8093C78.6038 59.4481 78.6038 57.0588 78.6038 54.6976C78.6038 53.8262 77.2539 53.8262 77.2539 54.6976C77.2539 58.4924 77.2821 62.2871 77.2539 66.0819C77.1977 73.559 71.9952 79.9117 64.9648 82.1604C61.8714 83.1442 58.7218 83.0599 55.5159 83.0599C54.616 83.088 54.616 84.4373 55.4878 84.4373Z" fill="#21B6E5"/>
<path d="M52.9006 86.1519C49.1323 86.1519 45.2515 86.433 41.4832 86.1519C39.5428 86.0114 38.7273 82.8631 40.4146 81.7388C41.0895 81.289 42.0457 81.4296 42.8049 81.4296C45.364 81.4296 47.9231 81.4296 50.5103 81.4296C51.2977 81.4296 52.1132 81.3734 52.9006 81.4296C55.4878 81.5982 55.4878 85.9552 52.9006 86.1519C52.0288 86.2081 52.0288 87.5574 52.9006 87.5012C57.0907 87.192 57.3719 80.4457 53.0975 80.0803C50.3978 79.8554 47.5856 80.0803 44.8578 80.0803C42.2144 80.0803 38.418 79.6025 38.2211 83.341C38.1367 85.0838 38.6992 86.8547 40.5552 87.3887C41.4832 87.6698 42.6081 87.5293 43.5361 87.5293C46.6576 87.5293 49.7791 87.5293 52.9006 87.5293C53.7724 87.5012 53.7724 86.1519 52.9006 86.1519Z" fill="#21B6E5"/>
<path d="M30.1502 17.3966C35.184 29.9052 45.0547 40.3057 58.3843 43.6788C60.9715 44.3253 63.6431 44.7188 66.3427 44.7188C67.2145 44.7188 67.2145 43.3696 66.3427 43.3696C55.2347 43.3134 44.7453 37.2417 38.0243 28.6122C35.2965 25.0985 33.1311 21.1632 31.4719 17.0312C31.1345 16.2441 29.8409 16.5814 30.1502 17.3966Z" fill="#21B6E5"/>
<path d="M34.2278 70.1859C27.8442 68.3025 23.851 62.1185 22.1074 56.0188C20.0264 48.7947 20.6451 40.6992 24.2165 34.0654C26.4944 29.8209 29.9252 26.3916 34.0591 23.9179C34.7903 23.4682 34.1153 22.3157 33.3842 22.7655C25.932 27.2348 21.0388 34.74 19.8577 43.3415C18.8453 50.8185 20.4482 58.9983 25.0602 65.0981C27.3099 68.0777 30.2908 70.4388 33.8904 71.507C34.7059 71.7319 35.0715 70.4107 34.2278 70.1859Z" fill="#21B6E5"/>
<path d="M50.679 71.4789C61.787 68.1339 65.8928 54.4165 64.7679 44.0442C64.6836 43.2009 63.3337 43.1728 63.4181 44.0442C64.4586 53.77 60.8309 67.0095 50.3134 70.1858C49.4698 70.4107 49.8353 71.7319 50.679 71.4789Z" fill="#21B6E5"/>
<path d="M5.60002 54.9787C7.31544 54.9787 9.36832 55.2879 10.9431 54.4727C12.7992 53.4889 13.4741 51.6618 13.4741 49.6942C13.4741 46.0681 13.5303 42.4139 13.4741 38.7878C13.446 36.5109 12.068 34.487 9.76202 34.0092C8.94649 33.8405 8.0466 33.9248 7.23107 33.9248C6.27494 33.9248 5.26256 33.8405 4.30642 34.1216C0.116301 35.3584 1.10056 40.7273 1.10056 44.0161C1.10056 46.0681 1.07244 48.12 1.10056 50.172C1.12868 52.8424 2.90034 54.8382 5.60002 54.9787ZM5.60002 54.9787C6.47179 55.0349 6.47179 53.6857 5.60002 53.6295C1.43802 53.4327 2.4504 47.9514 2.4504 45.1405C2.4504 43.3977 2.4504 41.683 2.4504 39.9402C2.4504 38.4786 2.33791 37.045 3.57526 36.0049C4.84073 34.9368 7.03422 35.2179 8.60903 35.2741C10.7744 35.3303 12.0399 36.8482 12.0961 38.9283C12.1524 42.1047 12.0961 45.281 12.0961 48.4574C12.0961 50.0034 12.2648 51.6337 10.9994 52.8143C9.64953 54.0511 7.28732 53.6576 5.60002 53.6576C4.72825 53.6295 4.72825 54.9787 5.60002 54.9787ZM79.4755 53.6295C78.1819 53.6295 76.6071 53.8543 75.3417 53.4889C73.3731 52.8986 72.9794 51.1277 72.9794 49.3569C72.9794 46.0962 72.9794 42.8355 72.9794 39.5748C72.9794 37.8601 73.2607 36.2017 75.0886 35.4709C76.3259 34.993 78.1538 35.1898 79.4755 35.246C83.6375 35.4146 82.6533 40.9241 82.6533 43.735C82.6533 45.5621 82.6533 47.3892 82.6533 49.2163C82.6252 51.3526 82.0909 53.4889 79.4755 53.6295ZM79.4755 53.6295C78.6038 53.6857 78.6038 55.0349 79.4755 54.9787C82.0346 54.8382 83.8906 52.983 83.975 50.3969C84.0312 48.8228 83.975 47.2487 83.975 45.6745C83.975 43.5944 83.975 41.5425 83.975 39.4624C83.975 37.7477 83.8063 36.1455 82.3721 34.9649C80.741 33.5875 78.4913 33.8686 76.4946 33.8967C73.9918 33.9248 71.8546 35.5833 71.6296 38.1694C71.3203 41.5987 71.6015 45.1967 71.6015 48.626C71.6015 50.6218 71.6296 52.5613 73.3731 53.9668C75.0886 55.316 77.4227 54.9787 79.4474 54.9787C80.3473 54.9787 80.3473 53.6295 79.4755 53.6295ZM52.9006 86.1519C49.1323 86.1519 45.2515 86.433 41.4832 86.1519C39.5428 86.0114 38.7273 82.8631 40.4146 81.7388C41.0895 81.289 42.0456 81.4296 42.8049 81.4296C45.364 81.4296 47.9231 81.4296 50.5103 81.4296C51.2977 81.4296 52.1132 81.3734 52.9006 81.4296C55.4878 81.5982 55.4878 85.9552 52.9006 86.1519ZM52.9006 86.1519C52.0288 86.2081 52.0288 87.5574 52.9006 87.5012C57.0907 87.192 57.3719 80.4457 53.0975 80.0803C50.3978 79.8554 47.5856 80.0803 44.8578 80.0803C42.2144 80.0803 38.418 79.6025 38.2211 83.341C38.1367 85.0838 38.6992 86.8547 40.5552 87.3887C41.4832 87.6698 42.6081 87.5293 43.5361 87.5293C46.6576 87.5293 49.7791 87.5293 52.9006 87.5293C53.7724 87.5012 53.7724 86.1519 52.9006 86.1519ZM7.82163 34.5995C7.90599 20.6291 17.608 8.68269 30.6564 4.26953C44.0142 -0.227958 59.5935 3.31381 69.1268 13.8829C74.273 19.561 77.1977 26.9256 77.2258 34.5995C77.2258 35.4709 78.5756 35.4709 78.5756 34.5995C78.4913 20.0951 68.48 7.67076 54.9535 3.03272C41.0614 -1.74586 24.7227 2.02079 14.852 13.0677C9.53705 18.9988 6.52803 26.6164 6.47179 34.5995C6.47179 35.4709 7.82163 35.4709 7.82163 34.5995ZM55.4878 84.4373C58.3562 84.4373 61.1965 84.5216 63.9805 83.847C67.6926 82.9475 71.1515 80.9798 73.7668 78.1689C76.2697 75.4704 77.957 72.0973 78.435 68.4431C78.7163 66.2787 78.6038 64.0018 78.6038 61.8093C78.6038 59.4481 78.6038 57.0588 78.6038 54.6976C78.6038 53.8262 77.2539 53.8262 77.2539 54.6976C77.2539 58.4924 77.2821 62.2871 77.2539 66.0819C77.1977 73.559 71.9952 79.9117 64.9648 82.1604C61.8714 83.1442 58.7218 83.0599 55.5159 83.0599C54.616 83.088 54.616 84.4373 55.4878 84.4373ZM30.1502 17.3966C35.184 29.9052 45.0547 40.3057 58.3843 43.6788C60.9715 44.3253 63.6431 44.7188 66.3427 44.7188C67.2145 44.7188 67.2145 43.3696 66.3427 43.3696C55.2347 43.3134 44.7453 37.2417 38.0243 28.6122C35.2965 25.0985 33.1311 21.1632 31.4719 17.0312C31.1345 16.2441 29.8409 16.5814 30.1502 17.3966ZM34.2278 70.1858C27.8442 68.3025 23.851 62.1185 22.1074 56.0188C20.0264 48.7947 20.6451 40.6992 24.2165 34.0654C26.4944 29.8209 29.9252 26.3916 34.0591 23.9179C34.7903 23.4682 34.1153 22.3157 33.3842 22.7655C25.932 27.2348 21.0388 34.74 19.8577 43.3415C18.8453 50.8185 20.4482 58.9983 25.0602 65.0981C27.3099 68.0777 30.2908 70.4388 33.8904 71.507C34.7059 71.7319 35.0715 70.4107 34.2278 70.1858ZM50.679 71.4789C61.787 68.1339 65.8928 54.4165 64.7679 44.0442C64.6836 43.2009 63.3337 43.1728 63.4181 44.0442C64.4586 53.77 60.8309 67.0095 50.3134 70.1858C49.4698 70.4107 49.8353 71.7319 50.679 71.4789Z" stroke="#21B6E5" stroke-width="0.7" fill="none"/>

	</g>
</symbol>

<symbol id="work__icon-4" viewBox="0 0 85 85">
	<g>
		<path d="M47.913 33.4078C47.913 30.3471 45.5674 28.0065 42.5 28.0065M42.5 28.0065C39.4326 28.0065 37.087 30.3471 37.087 33.4078V35.0282C37.087 37.3688 38.35 39.7093 40.3348 40.9696L44.6652 43.8503C46.65 45.1106 47.913 47.4512 47.913 49.7918V51.4121C47.913 54.4729 45.5674 56.8135 42.5 56.8135M42.5 28.0065V22.6052M42.5 56.8135C39.4326 56.8135 37.087 54.4729 37.087 51.4121M42.5 56.8135V62.2148M60.5435 42.41H53.3261M31.6739 42.41H24.4565M83.2783 49.6117C83.6391 47.2712 84 44.9306 84 42.41C84 39.8894 83.8196 37.5488 83.2783 35.2082H75.8804C74.9783 31.0672 73.3544 27.2863 71.1891 23.8655L76.4217 18.6443C73.7152 14.6833 70.1065 11.2625 66.137 8.38178L61.0848 13.603C57.6565 11.4425 53.8674 9.82213 49.7174 8.92191V1.72017C47.3717 1.18004 45.0261 1 42.5 1C39.9739 1 37.6283 1.18004 35.2826 1.72017V9.10195C31.1326 10.0022 27.3435 11.6226 23.9152 13.7831L18.6826 8.56182C14.713 11.2625 11.2848 14.6833 8.39783 18.8243L13.6304 23.8655C11.4652 27.2863 9.8413 31.0672 8.93913 35.2082H1.72174C1.18043 37.5488 1 39.8894 1 42.41C1 44.9306 1.18043 47.2712 1.72174 49.6117H9.11957C10.0217 53.7527 11.6457 57.5336 13.8109 60.9544L8.57826 66.1757C11.2848 70.1367 14.713 73.5575 18.863 76.4382L24.0957 71.2169C27.5239 73.3774 31.313 74.9978 35.463 75.898V83.2798C37.8087 83.6399 40.1543 84 42.6804 84C45.2065 84 47.5522 83.82 49.8978 83.2798V75.898C54.0478 74.9978 57.837 73.3774 61.2652 71.2169L66.4978 76.4382C70.4674 73.7375 73.8957 70.1367 76.7826 66.1757L71.3696 60.9544C73.5348 57.5336 75.1587 53.7527 76.0609 49.6117H83.2783ZM67.7609 42.41C67.7609 56.3309 56.4512 67.6161 42.5 67.6161C28.5488 67.6161 17.2391 56.3309 17.2391 42.41C17.2391 28.489 28.5488 17.2039 42.5 17.2039C56.4512 17.2039 67.7609 28.489 67.7609 42.41Z" stroke="#219FE6" stroke-width="1.7" stroke-miterlimit="10" fill="none"/>
	</g>
</symbol>

</svg>