<svg width="33" height="30" viewBox="0 0 33 30" fill="none" xmlns="http://www.w3.org/2000/svg">
    <path d="M25.9111 11.5811C24.9944 11.5811 23.9556 11.8891 22.8556 12.3819C22.7333 12.4435 22.6111 12.5051 22.4278 12.5667C21.8778 12.8131 21.0833 13.306 20.1056 13.922V9.67146H31.7167V0H23.9556V3.5729H20.0444V0H12.2833V3.5729H9.04444V0H1.22222V9.60986H12.2833V19.0965C11.2444 19.7741 10.5111 20.3285 10.0833 20.5133C8.73889 21.2526 7.57778 21.807 7.02778 21.807C5.31667 21.807 3.97222 20.3901 3.97222 18.7269C3.97222 17.0021 5.37778 15.6468 7.02778 15.6468C7.15 15.6468 7.94444 15.7084 10.0833 16.9405V12.4435C8.55556 11.7659 7.63889 11.6427 7.02778 11.6427C3.17778 11.5811 0 14.7844 0 18.7269C0 22.6694 3.17778 25.8727 7.08889 25.8727C8.00556 25.8727 9.04444 25.5647 10.1444 25.0719C10.6944 24.8255 11.4278 24.3943 12.3444 23.8398C14.6667 22.423 17.8444 20.2053 20.1056 18.6653C21.2056 17.9261 22.0611 17.3717 22.4278 17.1253C22.55 17.0637 22.7333 16.9405 22.8556 16.8789C24.2 16.1396 25.3611 15.5852 25.9111 15.5852C27.6222 15.5852 28.9667 17.0021 28.9667 18.6653C28.9667 20.3901 27.5611 21.7454 25.9111 21.7454C25.85 21.7454 25.6056 21.7454 24.9944 21.499C24.5056 21.3142 23.8333 21.0062 22.8556 20.4517V24.9487C23.7722 25.3799 24.4444 25.5647 24.9944 25.6263C25.3611 25.6879 25.6667 25.6879 25.9111 25.6879C29.8222 25.6879 33 22.4846 33 18.5421C32.9389 14.7844 29.7611 11.5811 25.9111 11.5811Z" fill="#E61B4A"/>
    <path d="M12.3444 30H20.1056V21.1294C17.1111 23.1622 14.3 25.0719 12.3444 26.1807V30Z" fill="#E61B4A"/>
</svg>
