<svg width="92" height="23" viewBox="0 0 92 23" fill="none" xmlns="http://www.w3.org/2000/svg">
    <path d="M1.81127 1.99458V4.92412H0V7.60434H1.81127V14.6477C1.81127 15.9566 2.12356 16.8916 2.81059 17.4526C3.49762 18.0135 4.5594 18.3252 6.12084 18.3252C6.74542 18.3252 7.30753 18.2629 7.8072 18.2005V15.5827C7.55736 15.645 7.24508 15.645 6.93279 15.645C5.87101 15.645 5.37135 15.1463 5.37135 14.1491V7.60434H7.8072V4.92412H5.37135V1.99458H1.81127Z" fill="white"/>
    <path d="M13.241 7.35501H13.1785V4.98645H9.80584V18.2005H13.3035V10.7832C13.3035 9.84824 13.5533 9.10027 14.053 8.60163C14.5526 8.10298 15.2396 7.79133 16.1141 7.79133C16.6137 7.79133 17.0509 7.85366 17.3632 7.97832V4.86179C17.1134 4.79946 16.7386 4.73713 16.3639 4.73713C14.74 4.79946 13.6782 5.67209 13.241 7.35501Z" fill="white"/>
    <path d="M28.668 5.92141C27.6687 5.11111 26.2946 4.73713 24.5458 4.73713C22.8595 4.73713 21.5479 5.11111 20.4861 5.92141C19.4243 6.73171 18.9246 7.729 18.8622 8.97561H22.0475C22.11 8.47697 22.3598 8.10298 22.797 7.79133C23.2342 7.47967 23.7339 7.35501 24.3584 7.35501C25.1079 7.35501 25.6701 7.54201 26.0448 7.85366C26.482 8.22764 26.6694 8.66396 26.6694 9.34959V10.2222L23.3591 10.4092C21.6728 10.5339 20.3612 10.9079 19.4868 11.5935C18.6124 12.2791 18.1127 13.2141 18.1127 14.3984C18.1127 15.5827 18.5499 16.5176 19.3618 17.2656C20.1738 18.0135 21.2356 18.3875 22.5472 18.3875C23.4216 18.3875 24.2335 18.2005 24.9206 17.8266C25.6701 17.4526 26.2322 16.8916 26.6069 16.206H26.6694V18.2005H30.0421V9.10027C30.2295 7.79133 29.6673 6.73171 28.668 5.92141ZM26.7318 13.3388C26.7318 14.0244 26.4195 14.6477 25.8574 15.084C25.2953 15.5203 24.6083 15.7696 23.7963 15.7696C23.1718 15.7696 22.6721 15.645 22.2349 15.3333C21.8602 15.0217 21.6728 14.6477 21.6728 14.1491C21.6728 13.1518 22.4223 12.5908 23.9212 12.5285L26.7318 12.3415V13.3388Z" fill="white"/>
    <path d="M36.9749 3.98916C36.9749 3.55285 37.0998 3.17886 37.3496 2.99187C37.5995 2.80488 37.9742 2.68022 38.4739 2.68022C38.8486 2.68022 39.1609 2.68022 39.4107 2.74255V0.311653C38.8486 0.249323 38.3489 0.186992 37.7868 0.186992C36.2254 0.186992 35.1636 0.498645 34.4766 1.05962C33.7895 1.6206 33.4773 2.55556 33.4773 3.80217V4.98645H31.666V7.60434H33.4773V18.2005H36.9749V7.60434H39.4107V4.92412H36.9124V3.98916H36.9749Z" fill="white"/>
    <path d="M49.2166 4.79946C47.2804 4.79946 45.9063 5.60976 45.0944 7.23035H45.0319V0H41.5343V18.2005H44.9694V15.9566H45.0319C45.7814 17.5772 47.2179 18.3875 49.2166 18.3875C50.9029 18.3875 52.2145 17.7642 53.1514 16.5799C54.0883 15.3957 54.5879 13.7127 54.5879 11.5935C54.5879 9.47425 54.0883 7.85366 53.1514 6.60705C52.2145 5.42276 50.9029 4.79946 49.2166 4.79946ZM50.2159 14.4607C49.6538 15.1463 48.9667 15.5203 48.0299 15.5203C47.1555 15.5203 46.406 15.1463 45.8439 14.4607C45.2817 13.7751 45.0319 12.7778 45.0319 11.5935C45.0319 10.4092 45.3442 9.47425 45.8439 8.72629C46.406 7.97832 47.1555 7.66667 48.0299 7.66667C48.9667 7.66667 49.6538 8.04065 50.2159 8.72629C50.778 9.41192 51.0278 10.4092 51.0278 11.5935C51.0278 12.7778 50.7155 13.7127 50.2159 14.4607Z" fill="white"/>
    <path d="M65.3931 12.5285C65.3931 13.4011 65.1432 14.1491 64.6436 14.71C64.1439 15.271 63.4569 15.5203 62.6449 15.5203C61.833 15.5203 61.146 15.271 60.7087 14.8347C60.2091 14.336 60.0217 13.6504 60.0217 12.7778V4.98645H56.5241V13.4634C56.5241 14.9593 56.9613 16.206 57.8357 17.0786C58.7101 17.9512 59.8343 18.3875 61.3333 18.3875C63.3944 18.3875 64.831 17.5149 65.518 15.832H65.5805V18.2005H68.9532V4.98645H65.4555V12.5285H65.3931Z" fill="white"/>
    <path d="M74.7617 7.35501H74.6992V4.98645H71.3265V18.2005H74.8242V10.7832C74.8242 9.84824 75.074 9.10027 75.5737 8.60163C76.0733 8.10298 76.7603 7.79133 77.6348 7.79133C78.1344 7.79133 78.5716 7.85366 78.8839 7.97832V4.86179C78.6341 4.79946 78.2593 4.73713 77.8846 4.73713C76.2607 4.79946 75.1989 5.67209 74.7617 7.35501Z" fill="white"/>
    <path d="M88.5648 4.98645V7.23035H88.5024C88.1276 6.48238 87.628 5.92141 86.8785 5.48509C86.129 5.04878 85.317 4.79946 84.3802 4.79946C82.6938 4.79946 81.3822 5.42276 80.3829 6.60705C79.3836 7.79133 78.8839 9.47425 78.8839 11.5312C78.8839 13.5257 79.3836 15.1463 80.3829 16.3306C81.3822 17.5149 82.6314 18.0759 84.3177 18.0759C85.2546 18.0759 86.129 17.8889 86.8785 17.4526C87.628 17.0163 88.1276 16.4553 88.4399 15.7696H88.5024V18.1382C88.5024 18.8862 88.2525 19.4472 87.6904 19.8835C87.1908 20.3198 86.4413 20.5068 85.5669 20.5068C84.8798 20.5068 84.2553 20.3821 83.7556 20.1328C83.2559 19.8835 82.9437 19.5095 82.8187 19.0732H79.3211C79.3836 20.2575 80.0081 21.1924 81.1324 21.9404C82.2566 22.626 83.6931 23 85.442 23C87.4406 23 89.0645 22.5637 90.1887 21.6287C91.3754 20.6938 92 19.4472 92 17.8889V4.98645H88.5648ZM87.7529 14.3984C87.1908 15.084 86.5037 15.458 85.5669 15.458C84.63 15.458 83.943 15.1463 83.3808 14.4607C82.8187 13.7751 82.5689 12.8401 82.5689 11.6558C82.5689 10.4715 82.8187 9.53659 83.3808 8.78862C83.943 8.10298 84.63 7.729 85.5669 7.729C86.5037 7.729 87.1908 8.10298 87.7529 8.78862C88.315 9.47426 88.5648 10.4715 88.5648 11.6558C88.5648 12.7154 88.315 13.6504 87.7529 14.3984Z" fill="white"/>
</svg>
