<svg width="24" height="24" viewBox="0 0 32 32" fill="none" xmlns="http://www.w3.org/2000/svg">
    <path d="M10.6666 14.3467H9.89324C8.83792 14.3086 7.78601 14.4877 6.8028 14.8731C5.8196 15.2584 4.92608 15.8417 4.17769 16.5867L3.96436 16.8356V24.1956H7.59102V20.0178L8.07991 19.4667L8.30213 19.209C9.4594 18.0201 10.9002 17.1452 12.4888 16.6667C11.6934 16.0615 11.0661 15.2629 10.6666 14.3467Z" fill="#898A98"/>
    <path d="M27.8577 16.5602C27.1093 15.8152 26.2158 15.2319 25.2326 14.8466C24.2494 14.4612 23.1975 14.2821 22.1422 14.3202C21.8185 14.3211 21.4951 14.3389 21.1733 14.3735C20.7663 15.233 20.1561 15.9805 19.3955 16.5513C21.0915 17.0205 22.6278 17.9423 23.84 19.218L24.0622 19.4669L24.5422 20.018V24.2047H28.0444V16.8091L27.8577 16.5602Z" fill="#898A98"/>
    <path d="M9.86676 12.6134H10.1423C10.0143 11.5141 10.2072 10.4012 10.6977 9.40906C11.1883 8.41694 11.9555 7.588 12.9068 7.02231C12.5619 6.49551 12.0862 6.0673 11.5261 5.7796C10.9661 5.4919 10.3409 5.35458 9.71186 5.38109C9.08279 5.4076 8.47139 5.59703 7.93753 5.93083C7.40367 6.26462 6.96565 6.73135 6.66636 7.28529C6.36707 7.83924 6.21678 8.46141 6.2302 9.09089C6.24361 9.72037 6.42028 10.3356 6.7429 10.8763C7.06551 11.417 7.52302 11.8646 8.07062 12.1753C8.61822 12.4861 9.23713 12.6493 9.86676 12.649V12.6134Z" fill="#898A98"/>
    <path d="M21.7156 11.9469C21.7264 12.1512 21.7264 12.3559 21.7156 12.5602C21.8862 12.5872 22.0585 12.6021 22.2311 12.6046H22.4C23.0269 12.5712 23.6344 12.376 24.1634 12.0381C24.6925 11.7002 25.125 11.2311 25.4189 10.6764C25.7128 10.1217 25.8581 9.50035 25.8406 8.87284C25.8231 8.24534 25.6434 7.63306 25.319 7.09562C24.9946 6.55818 24.5366 6.11388 23.9896 5.806C23.4425 5.49811 22.8251 5.33712 22.1973 5.3387C21.5696 5.34027 20.9529 5.50437 20.4074 5.81501C19.8619 6.12564 19.4061 6.57224 19.0845 7.1113C19.889 7.63658 20.5505 8.35335 21.0098 9.19732C21.469 10.0413 21.7115 10.9861 21.7156 11.9469Z" fill="#898A98"/>
    <path d="M15.8845 15.929C18.0789 15.929 19.8578 14.1501 19.8578 11.9557C19.8578 9.76125 18.0789 7.98233 15.8845 7.98233C13.6901 7.98233 11.9111 9.76125 11.9111 11.9557C11.9111 14.1501 13.6901 15.929 15.8845 15.929Z" fill="#898A98"/>
    <path d="M16.0979 18.0443C14.937 17.9974 13.7787 18.1859 12.6926 18.5983C11.6065 19.0108 10.615 19.6387 9.77789 20.4443L9.55566 20.6932V26.3198C9.55913 26.5031 9.59867 26.6839 9.67203 26.8519C9.74539 27.0199 9.85112 27.1718 9.9832 27.2989C10.1153 27.426 10.2711 27.5259 10.4418 27.5928C10.6124 27.6597 10.7946 27.6923 10.9779 27.6887H21.1912C21.3745 27.6923 21.5567 27.6597 21.7273 27.5928C21.898 27.5259 22.0538 27.426 22.1859 27.2989C22.318 27.1718 22.4237 27.0199 22.4971 26.8519C22.5704 26.6839 22.61 26.5031 22.6134 26.3198V20.7109L22.4001 20.4443C21.5684 19.6362 20.5804 19.0065 19.4967 18.5938C18.413 18.1811 17.2564 17.9941 16.0979 18.0443Z" fill="#898A98"/>
</svg>
