<svg width="16" height="16" viewBox="0 0 16 16" fill="none" xmlns="http://www.w3.org/2000/svg">
<path d="M4.95192 2.66667C3.11268 3.71581 1.9043 5.73105 1.9043 8C1.9043 9.20552 2.26178 10.384 2.93153 11.3863C3.60128 12.3887 4.55323 13.1699 5.66699 13.6313C6.78075 14.0926 8.0063 14.2133 9.18866 13.9781C10.371 13.7429 11.4571 13.1624 12.3095 12.31C13.162 11.4576 13.7425 10.3715 13.9777 9.18912C14.2128 8.00676 14.0921 6.78121 13.6308 5.66745C13.1695 4.55369 12.3882 3.60175 11.3859 2.932C10.3835 2.26224 9.20506 1.90476 7.99954 1.90476" stroke="#00A3FF" stroke-width="2" stroke-linecap="round" stroke-linejoin="round"/>
<path d="M4.95192 5.71428V2.66666H1.9043" stroke="#00A3FF" stroke-width="2" stroke-linecap="round" stroke-linejoin="round"/>
</svg>
