<svg width="16" height="16" viewBox="0 0 16 16" fill="none" xmlns="http://www.w3.org/2000/svg">
<path d="M7.99979 0.888885C6.59334 0.888885 5.21848 1.30594 4.04906 2.08732C2.87965 2.8687 1.9682 3.97931 1.42998 5.27869C0.891753 6.57808 0.750929 8.00788 1.02531 9.38731C1.2997 10.7667 1.97696 12.0338 2.97147 13.0283C3.96598 14.0228 5.23306 14.7001 6.61248 14.9745C7.9919 15.2489 9.42171 15.108 10.7211 14.5698C12.0205 14.0316 13.1311 13.1201 13.9125 11.9507C14.6938 10.7813 15.1109 9.40644 15.1109 8C15.1109 6.11401 14.3617 4.30527 13.0281 2.97168C11.6945 1.63809 9.88577 0.888885 7.99979 0.888885ZM11.5553 10.7111C11.6732 10.829 11.7394 10.9889 11.7394 11.1556C11.7394 11.3223 11.6732 11.4821 11.5553 11.6C11.4375 11.7179 11.2776 11.7841 11.1109 11.7841C10.9442 11.7841 10.7843 11.7179 10.6665 11.6L7.99979 8.93333L5.33312 11.6089C5.27475 11.6673 5.20546 11.7135 5.12921 11.7451C5.05295 11.7767 4.97122 11.793 4.88868 11.793C4.80613 11.793 4.7244 11.7767 4.64814 11.7451C4.57189 11.7135 4.5026 11.6673 4.44423 11.6089C4.38587 11.5505 4.33957 11.4812 4.30798 11.405C4.27639 11.3287 4.26014 11.247 4.26014 11.1644C4.26014 11.0819 4.27639 11.0002 4.30798 10.9239C4.33957 10.8477 4.38587 10.7784 4.44423 10.72L7.1109 8.03555L4.36867 5.27111C4.2508 5.15323 4.18458 4.99336 4.18458 4.82666C4.18458 4.65996 4.2508 4.50009 4.36867 4.38222C4.48655 4.26434 4.64642 4.19812 4.81312 4.19812C4.97982 4.19812 5.13969 4.26434 5.25756 4.38222L7.99979 7.15555L10.742 4.41333C10.8004 4.35496 10.8697 4.30867 10.9459 4.27708C11.0222 4.24549 11.1039 4.22923 11.1865 4.22923C11.269 4.22923 11.3507 4.24549 11.427 4.27708C11.5032 4.30867 11.5725 4.35496 11.6309 4.41333C11.6893 4.4717 11.7356 4.54098 11.7671 4.61724C11.7987 4.6935 11.815 4.77523 11.815 4.85777C11.815 4.94032 11.7987 5.02205 11.7671 5.09831C11.7356 5.17456 11.6893 5.24385 11.6309 5.30222L8.88868 8.03555L11.5553 10.7111Z" fill="#FB0045"/>
</svg>
