<svg width="46" height="46" viewBox="0 0 46 46" fill="none" xmlns="http://www.w3.org/2000/svg">
<path d="M7.8125 23C7.8125 19.7937 10.4187 17.1875 13.625 17.1875H21.125V13.625H13.625C8.45 13.625 4.25 17.825 4.25 23C4.25 28.175 8.45 32.375 13.625 32.375H21.125V28.8125H13.625C10.4187 28.8125 7.8125 26.2063 7.8125 23ZM15.5 24.875H30.5V21.125H15.5V24.875ZM32.375 13.625H24.875V17.1875H32.375C35.5812 17.1875 38.1875 19.7937 38.1875 23C38.1875 26.2063 35.5812 28.8125 32.375 28.8125H24.875V32.375H32.375C37.55 32.375 41.75 28.175 41.75 23C41.75 17.825 37.55 13.625 32.375 13.625Z" fill="#898A98"/>
</svg>
