<?xml version="1.0" standalone="no"?>
<!DOCTYPE svg PUBLIC "-//W3C//DTD SVG 20010904//EN"
 "http://www.w3.org/TR/2001/REC-SVG-20010904/DTD/svg10.dtd">
<svg version="1.0" xmlns="http://www.w3.org/2000/svg"
 width="1759.000000pt" height="1759.000000pt" viewBox="0 0 1759.000000 1759.000000"
 preserveAspectRatio="xMidYMid meet">
<metadata>
Created by potrace 1.11, written by Peter Selinger 2001-2013
</metadata>
<g transform="translate(0.000000,1759.000000) scale(0.100000,-0.100000)"
fill="#000000" stroke="none">
<path d="M10 8800 l0 -8790 8785 0 8785 0 0 8790 0 8790 -8785 0 -8785 0 0
-8790z m9051 5729 c1104 -86 2087 -661 2709 -1584 263 -391 454 -858 539
-1320 59 -316 55 -124 59 -2730 3 -1757 0 -2430 -8 -2540 -49 -628 -258 -1218
-621 -1750 -266 -390 -670 -773 -1084 -1027 -445 -272 -963 -447 -1490 -503
-182 -19 -558 -19 -740 0 -683 72 -1330 339 -1870 771 -150 120 -431 403 -551
554 -431 544 -685 1160 -766 1850 -19 168 -19 4932 0 5095 125 1039 649 1931
1490 2534 667 478 1516 714 2333 650z"/>
<path d="M8590 14149 c-762 -46 -1499 -378 -2045 -924 -776 -774 -1103 -1885
-868 -2945 253 -1144 1115 -2063 2236 -2386 259 -75 493 -109 835 -124 129 -6
243 -16 282 -25 309 -74 547 -237 716 -491 66 -100 115 -208 151 -340 26 -92
28 -112 27 -284 0 -169 -2 -194 -27 -285 -37 -137 -128 -317 -217 -427 -280
-346 -735 -498 -1162 -389 -273 70 -498 227 -661 462 -76 109 -126 219 -169
374 -21 77 -22 100 -28 645 l-5 564 -101 37 c-56 21 -151 60 -213 87 l-112 50
4 -666 c3 -649 4 -670 26 -767 126 -560 525 -1005 1054 -1174 420 -134 869
-89 1247 124 396 223 671 599 772 1052 30 134 33 470 5 608 -44 216 -140 439
-265 615 -81 115 -249 284 -359 363 -138 98 -335 194 -488 237 -132 37 -236
51 -465 60 -396 16 -656 67 -974 192 -360 141 -657 338 -941 622 -160 161
-263 285 -368 446 -304 468 -466 1052 -443 1598 30 721 313 1364 821 1867 223
221 455 386 730 520 591 288 1239 356 1875 199 490 -121 931 -372 1290 -733
434 -436 690 -953 788 -1591 14 -91 16 -261 19 -1263 l4 -1158 81 -107 c101
-132 189 -267 274 -420 36 -64 68 -119 70 -122 3 -2 3 668 1 1490 -4 1596 -2
1538 -52 1809 -128 687 -500 1343 -1022 1801 -552 485 -1207 756 -1934 800
-179 11 -203 11 -389 -1z"/>
<path d="M8490 13324 c-272 -35 -513 -110 -772 -241 -701 -354 -1181 -1034
-1283 -1816 -20 -156 -20 -458 1 -619 87 -676 481 -1298 1064 -1680 123 -81
345 -192 483 -243 253 -92 558 -144 857 -145 534 -1 1089 -268 1447 -694 603
-718 611 -1760 19 -2486 -410 -503 -1071 -778 -1704 -709 -865 94 -1558 728
-1722 1574 -34 177 -40 337 -40 1030 l0 672 -132 97 c-73 53 -167 125 -208
160 l-75 64 -3 -911 c-2 -615 1 -945 8 -1012 76 -693 463 -1323 1055 -1720
220 -147 543 -283 805 -339 187 -40 294 -50 505 -50 404 -1 725 76 1083 259
600 305 1055 871 1222 1520 67 260 92 614 61 870 -54 445 -242 887 -522 1232
-328 403 -808 701 -1322 818 -135 31 -266 46 -489 55 -247 10 -364 25 -533 69
-488 127 -922 457 -1181 898 -417 708 -341 1609 188 2238 289 343 663 565
1117 662 118 26 142 28 376 28 234 0 258 -2 376 -28 537 -114 969 -408 1261
-857 175 -268 279 -576 308 -910 5 -63 10 -424 10 -801 l0 -685 83 -57 c45
-31 131 -95 191 -144 60 -48 120 -96 133 -107 l24 -19 -4 934 c-4 983 -5 995
-52 1222 -59 282 -181 573 -346 821 -242 365 -546 631 -944 827 -247 122 -513
200 -777 228 -131 15 -439 12 -568 -5z"/>
<path d="M8595 12519 c-674 -92 -1206 -593 -1342 -1264 -27 -137 -25 -463 5
-601 69 -319 203 -566 432 -795 137 -137 246 -217 413 -301 216 -108 409 -151
722 -163 105 -3 243 -13 309 -21 1218 -150 2194 -1093 2390 -2309 27 -166 35
-300 32 -495 -13 -622 -238 -1227 -634 -1700 -44 -52 -140 -154 -215 -226
-420 -408 -929 -657 -1534 -751 -152 -24 -604 -24 -756 0 -503 78 -935 262
-1327 566 -115 89 -325 294 -426 417 -363 441 -574 963 -624 1544 -6 66 -10
575 -10 1195 l0 1080 -91 120 c-100 133 -192 276 -281 435 l-59 105 4 -1495
c4 -1635 1 -1551 64 -1865 256 -1284 1314 -2304 2608 -2514 284 -46 667 -53
935 -16 689 94 1300 390 1798 870 747 720 1096 1740 946 2765 -96 657 -411
1290 -880 1766 -465 472 -1047 783 -1689 903 -156 30 -353 51 -470 51 -416 0
-693 106 -934 355 -134 139 -212 268 -269 445 -42 133 -56 237 -49 393 11 292
122 545 331 753 232 232 517 344 846 331 296 -11 548 -122 756 -331 135 -135
212 -257 273 -430 58 -164 61 -205 61 -786 l0 -527 103 -38 c56 -21 147 -58
202 -82 55 -24 106 -47 113 -50 11 -5 12 117 9 663 -3 638 -4 673 -24 762
-144 631 -614 1097 -1232 1223 -112 23 -397 33 -506 18z"/>
<path d="M8695 11714 c-398 -65 -676 -404 -651 -794 7 -121 24 -183 81 -297
85 -172 245 -311 433 -376 80 -27 102 -30 292 -38 229 -10 435 -31 585 -60 55
-10 104 -19 108 -19 5 0 7 219 5 488 -4 479 -4 488 -27 557 -87 260 -274 445
-523 515 -72 20 -241 34 -303 24z"/>
<path d="M8043 6983 c3 -420 6 -496 20 -544 101 -339 388 -559 729 -559 122 0
219 21 323 70 199 93 352 275 412 490 27 101 25 302 -6 400 -65 210 -205 376
-395 469 -123 60 -183 71 -431 81 -249 10 -537 44 -638 76 -17 5 -18 -15 -14
-483z"/>
</g>
</svg>
