<svg width="24" height="24" viewBox="0 0 24 24" fill="none" xmlns="http://www.w3.org/2000/svg">
<path d="M8 4.00037V16.0004C8 16.5308 8.21071 17.0395 8.58579 17.4146C8.96086 17.7897 9.46957 18.0004 10 18.0004H18C18.5304 18.0004 19.0391 17.7897 19.4142 17.4146C19.7893 17.0395 20 16.5308 20 16.0004V7.24237C20 6.97593 19.9467 6.71218 19.8433 6.46661C19.7399 6.22104 19.5885 5.99861 19.398 5.81237L16.083 2.57037C15.7094 2.20502 15.2076 2.00043 14.685 2.00037H10C9.46957 2.00037 8.96086 2.21108 8.58579 2.58615C8.21071 2.96123 8 3.46993 8 4.00037V4.00037Z" stroke="#898A98" stroke-width="1.33333" stroke-linecap="round" stroke-linejoin="round"/>
<path d="M16 18.0007V20.0007C16 20.5312 15.7893 21.0399 15.4142 21.4149C15.0391 21.79 14.5304 22.0007 14 22.0007H6C5.46957 22.0007 4.96086 21.79 4.58579 21.4149C4.21071 21.0399 4 20.5312 4 20.0007V9.00073C4 8.4703 4.21071 7.96159 4.58579 7.58652C4.96086 7.21145 5.46957 7.00073 6 7.00073H8" stroke="#898A98" stroke-width="1.33333" stroke-linecap="round" stroke-linejoin="round"/>
</svg>