<svg width="16" height="16" viewBox="0 0 16 16" fill="none" xmlns="http://www.w3.org/2000/svg">
<path d="M8.66732 2.33337C8.66732 2.06816 8.56196 1.8138 8.37442 1.62627C8.18689 1.43873 7.93253 1.33337 7.66732 1.33337C7.4021 1.33337 7.14775 1.43873 6.96021 1.62627C6.77267 1.8138 6.66732 2.06816 6.66732 2.33337V6.66671H2.33398C2.06877 6.66671 1.81441 6.77206 1.62688 6.9596C1.43934 7.14714 1.33398 7.40149 1.33398 7.66671C1.33398 7.93192 1.43934 8.18628 1.62688 8.37381C1.81441 8.56135 2.06877 8.66671 2.33398 8.66671H6.66732V13C6.66732 13.2653 6.77267 13.5196 6.96021 13.7071C7.14775 13.8947 7.4021 14 7.66732 14C7.93253 14 8.18689 13.8947 8.37442 13.7071C8.56196 13.5196 8.66732 13.2653 8.66732 13V8.66671H13.0007C13.2659 8.66671 13.5202 8.56135 13.7078 8.37381C13.8953 8.18628 14.0007 7.93192 14.0007 7.66671C14.0007 7.40149 13.8953 7.14714 13.7078 6.9596C13.5202 6.77206 13.2659 6.66671 13.0007 6.66671H8.66732V2.33337Z" fill="white"/>
</svg>