<svg width="60" height="60" viewBox="0 0 60 60" fill="none" xmlns="http://www.w3.org/2000/svg">
<path d="M7.5 15V45H33.3C32.7688 43.3866 32.4987 41.6986 32.5 40H17.5C17.5 38.6739 16.9732 37.4021 16.0355 36.4645C15.0979 35.5268 13.8261 35 12.5 35V25C15.275 25 17.5 22.775 17.5 20H42.5C42.5 21.3261 43.0268 22.5979 43.9645 23.5355C44.9022 24.4732 46.1739 25 47.5 25V25.15C49.175 25.15 50.85 25.45 52.5 26V15H7.5ZM30 22.5C25.75 22.575 22.5 25.75 22.5 30C22.5 34.25 25.75 37.35 30 37.5C30.95 37.5 31.925 37.3 32.85 36.925C33.525 34.175 34.65 31.575 37.425 29.025C37.125 25.7 33.975 22.425 30 22.5ZM54.075 30.675L44.4 40.425L41.025 37L37.5 40.55L44.375 47.5L57.575 34.2L54.075 30.675Z" fill="#898A98"/>
</svg>
