<svg width="40" height="40" viewBox="0 0 40 40" fill="none" xmlns="http://www.w3.org/2000/svg">
<path d="M6.66732 19.1667V25.8333C6.66732 27.2167 7.78398 28.3333 9.16732 28.3333C10.5507 28.3333 11.6673 27.2167 11.6673 25.8333V19.1667C11.6673 17.7833 10.5507 16.6667 9.16732 16.6667C7.78398 16.6667 6.66732 17.7833 6.66732 19.1667ZM16.6673 19.1667V25.8333C16.6673 27.2167 17.784 28.3333 19.1673 28.3333C20.5507 28.3333 21.6673 27.2167 21.6673 25.8333V19.1667C21.6673 17.7833 20.5507 16.6667 19.1673 16.6667C17.784 16.6667 16.6673 17.7833 16.6673 19.1667ZM5.83398 36.6667H32.5007C33.884 36.6667 35.0007 35.55 35.0007 34.1667C35.0007 32.7833 33.884 31.6667 32.5007 31.6667H5.83398C4.45065 31.6667 3.33398 32.7833 3.33398 34.1667C3.33398 35.55 4.45065 36.6667 5.83398 36.6667ZM26.6673 19.1667V25.8333C26.6673 27.2167 27.784 28.3333 29.1673 28.3333C30.5506 28.3333 31.6673 27.2167 31.6673 25.8333V19.1667C31.6673 17.7833 30.5506 16.6667 29.1673 16.6667C27.784 16.6667 26.6673 17.7833 26.6673 19.1667ZM17.6173 2.48333L4.45065 9.41666C3.76732 9.76666 3.33398 10.4833 3.33398 11.25C3.33398 12.4 4.26732 13.3333 5.41732 13.3333H32.934C34.0673 13.3333 35.0007 12.4 35.0007 11.25C35.0007 10.4833 34.5673 9.76666 33.884 9.41666L20.7173 2.48333C19.7507 1.96666 18.584 1.96666 17.6173 2.48333Z" fill="#219FE6"/>
</svg>
