<svg width="16" height="16" viewBox="0 0 16 16" fill="none" xmlns="http://www.w3.org/2000/svg">
<path d="M4.9524 2.66669C3.11317 3.71583 1.90479 5.73107 1.90479 8.00002C1.90479 9.20555 2.26226 10.384 2.93202 11.3864C3.60177 12.3887 4.55372 13.17 5.66748 13.6313C6.78124 14.0926 8.00678 14.2133 9.18915 13.9781C10.3715 13.743 11.4576 13.1624 12.31 12.31C13.1624 11.4576 13.743 10.3715 13.9781 9.18915C14.2133 8.00678 14.0926 6.78124 13.6313 5.66748C13.17 4.55372 12.3887 3.60177 11.3864 2.93202C10.384 2.26226 9.20555 1.90479 8.00002 1.90479" stroke="#00A3FF" stroke-width="2" stroke-linecap="round" stroke-linejoin="round"/>
<path d="M4.9524 5.71412V2.6665H1.90479" stroke="#00A3FF" stroke-width="2" stroke-linecap="round" stroke-linejoin="round"/>
</svg>
