<svg width="60" height="60" viewBox="0 0 60 60" fill="none" xmlns="http://www.w3.org/2000/svg">
<path d="M20.0003 26.9H18.5503C16.5715 26.8285 14.5992 27.1644 12.7557 27.8869C10.9122 28.6094 9.23682 29.7031 7.83359 31.1L7.43359 31.5667V45.3667H14.2336V37.5333L15.1503 36.5L15.5669 36.0167C17.7368 33.7875 20.4382 32.1472 23.4169 31.25C21.9256 30.1152 20.7494 28.6177 20.0003 26.9V26.9Z" fill="#898A98"/>
<path d="M52.2319 31.05C50.8287 29.6531 49.1533 28.5594 47.3098 27.8369C45.4663 27.1144 43.494 26.7785 41.5152 26.85C40.9084 26.8517 40.302 26.8851 39.6986 26.95C38.9354 28.5615 37.7913 29.963 36.3652 31.0333C39.5452 31.9131 42.4259 33.6415 44.6986 36.0333L45.1152 36.5L46.0152 37.5333V45.3833H52.5819V31.5167L52.2319 31.05Z" fill="#898A98"/>
<path d="M18.5017 23.65H19.0184C18.7783 21.5887 19.14 19.502 20.0598 17.6418C20.9796 15.7816 22.4181 14.2273 24.2017 13.1667C23.5552 12.1789 22.6632 11.376 21.6131 10.8366C20.563 10.2971 19.3908 10.0397 18.2113 10.0894C17.0318 10.1391 15.8854 10.4943 14.8844 11.1201C13.8835 11.746 13.0622 12.6211 12.501 13.6597C11.9398 14.6984 11.658 15.865 11.6832 17.0452C11.7083 18.2255 12.0396 19.379 12.6445 20.3928C13.2494 21.4066 14.1072 22.2459 15.134 22.8286C16.1607 23.4112 17.3212 23.7173 18.5017 23.7167V23.65Z" fill="#898A98"/>
<path d="M40.7185 22.4C40.7387 22.7831 40.7387 23.167 40.7185 23.55C41.0383 23.6007 41.3614 23.6286 41.6852 23.6334H42.0018C43.1772 23.5707 44.3163 23.2047 45.3082 22.5712C46.3002 21.9376 47.1112 21.0579 47.6622 20.0179C48.2133 18.9778 48.4857 17.8128 48.4529 16.6362C48.4201 15.4597 48.0831 14.3117 47.4749 13.3039C46.8667 12.2962 46.0079 11.4632 44.9822 10.8859C43.9565 10.3086 42.7987 10.0067 41.6217 10.0097C40.4447 10.0127 39.2885 10.3204 38.2657 10.9028C37.2429 11.4852 36.3883 12.3226 35.7852 13.3334C37.2936 14.3182 38.534 15.6622 39.3951 17.2446C40.2561 18.8271 40.7108 20.5985 40.7185 22.4V22.4Z" fill="#898A98"/>
<path d="M29.782 29.8666C33.8966 29.8666 37.232 26.5312 37.232 22.4166C37.232 18.3021 33.8966 14.9666 29.782 14.9666C25.6675 14.9666 22.332 18.3021 22.332 22.4166C22.332 26.5312 25.6675 29.8666 29.782 29.8666Z" fill="#898A98"/>
<path d="M30.1817 33.8333C28.0051 33.7454 25.8332 34.0988 23.7968 34.8722C21.7603 35.6455 19.9013 36.8228 18.3317 38.3333L17.915 38.8V49.35C17.9215 49.6936 17.9957 50.0326 18.1332 50.3476C18.2708 50.6626 18.469 50.9474 18.7167 51.1858C18.9643 51.4241 19.2565 51.6113 19.5765 51.7367C19.8965 51.8622 20.2381 51.9233 20.5817 51.9167H39.7317C40.0753 51.9233 40.4169 51.8622 40.7369 51.7367C41.0569 51.6113 41.3491 51.4241 41.5967 51.1858C41.8444 50.9474 42.0426 50.6626 42.1802 50.3476C42.3177 50.0326 42.3919 49.6936 42.3984 49.35V38.8333L41.9984 38.3333C40.4389 36.8182 38.5864 35.6375 36.5545 34.8637C34.5225 34.0899 32.354 33.7393 30.1817 33.8333V33.8333Z" fill="#898A98"/>
</svg>
