<svg width="18" height="18" viewBox="0 0 18 18" fill="none" xmlns="http://www.w3.org/2000/svg">
<path d="M14.9576 8.72932L9.26697 3.03871L9.26697 16.0567C9.26697 16.3703 9.02153 16.6157 8.70801 16.6157C8.39449 16.6157 8.14904 16.3703 8.14904 16.0567L8.14904 3.03871L2.45843 8.72932C2.35513 8.83262 2.21677 8.90022 2.06137 8.90022C1.90598 8.90022 1.76762 8.83262 1.66432 8.72932C1.56102 8.62602 1.49343 8.48767 1.49342 8.33227C1.49343 8.17687 1.56102 8.03851 1.66432 7.93522L8.31095 1.28858C8.41425 1.18528 8.55261 1.11769 8.70801 1.11769C8.8634 1.11769 9.00176 1.18528 9.10506 1.28858L15.7517 7.93522C15.855 8.03851 15.9226 8.17687 15.9226 8.33227C15.9226 8.48767 15.855 8.62602 15.7517 8.72932C15.6484 8.83262 15.51 8.90022 15.3546 8.90022C15.1992 8.90022 15.0609 8.83262 14.9576 8.72932Z" fill="white" stroke="white" stroke-width="0.614942"/>
</svg>
