<svg width="53" height="42" viewBox="0 0 53 42" fill="none" xmlns="http://www.w3.org/2000/svg">
<path d="M30.9348 36.4783H22.0652M19.8478 36.4783H1V37.587C1 39.4302 2.48288 40.913 4.32609 40.913H48.6739C50.5171 40.913 52 39.4302 52 37.587V36.4783H33.1522M3.21739 36.4783V5.43478M3.21739 5.43478V4.32609C3.21739 2.48288 4.70027 1 6.54348 1H46.4565C48.2997 1 49.7826 2.48288 49.7826 4.32609V5.43478M3.21739 5.43478H49.7826M49.7826 5.43478V36.4783M12.087 12.087H18.7391V29.8261H25.3913M25.3913 20.9565H18.7391M7.65217 9.86957H12.087V14.3043H7.65217V9.86957ZM25.3913 27.6087H46.4565V32.0435H25.3913V27.6087ZM25.3913 18.7391H46.4565V23.1739H25.3913V18.7391Z" stroke="#49B3FF" stroke-width="2" stroke-miterlimit="10"/>
</svg>
