<svg width="51" height="52" viewBox="0 0 51 52" fill="none" xmlns="http://www.w3.org/2000/svg">
<path d="M37.1894 51.0422V38.2771C37.1894 35.2985 34.8492 32.9583 31.8706 32.9583H19.1055C16.127 32.9583 13.7867 35.2985 13.7867 38.2771V51.0422M46.2314 29.9797C43.6784 25.2992 39.9552 20.2995 35.2747 15.619C22.8287 3.27934 8.46789 -2.35859 3.04272 3.17296C-2.27609 8.49177 3.14909 22.5334 15.1696 34.7667M46.2314 29.9797C45.274 30.4052 44.6358 31.3626 44.6358 32.4264C44.6358 33.9156 45.8059 35.0858 47.2952 35.0858C47.7207 35.0858 48.1462 35.0858 48.4653 34.873M46.2314 29.9797C46.5505 29.8734 46.976 29.767 47.2952 29.767C48.7844 29.767 49.9546 30.9371 49.9546 32.4264C49.9546 33.4901 49.3163 34.4475 48.4653 34.873M37.1894 49.2338C41.7636 50.5103 45.6995 50.1912 47.9334 47.9573C50.5928 45.2979 50.5928 40.511 48.4653 34.873M29.9559 4.7686C25.2753 7.32163 20.2756 11.0448 15.5951 15.7253C14.9568 16.3636 14.425 16.8955 13.8931 17.5337M29.9559 4.7686C30.3814 5.72599 31.3387 6.36425 32.4025 6.36425C33.8918 6.36425 35.0619 5.19411 35.0619 3.70484C35.0619 3.27934 34.9555 2.96021 34.8492 2.53471M29.9559 4.7686C29.8495 4.44948 29.7431 4.02397 29.7431 3.70484C29.7431 2.21558 30.9132 1.04544 32.4025 1.04544C33.4663 1.04544 34.4237 1.6837 34.8492 2.53471M34.8492 2.53471C40.4871 0.407187 45.274 0.407187 47.9334 3.06659C53.2522 8.38539 47.9334 22.427 35.9129 34.7667M13.7867 49.2338C9.21253 50.5103 5.38299 50.1912 3.14909 47.9573C-1.42508 43.3831 1.87258 32.4264 10.3827 21.6824M18.0417 51.0422V41.4683M32.9344 51.0422V41.4683M30.8069 23.3844C30.8069 26.3629 28.4666 28.7032 25.4881 28.7032C22.5095 28.7032 20.1693 26.3629 20.1693 23.3844V21.2569C20.1693 18.2784 22.5095 15.9381 25.4881 15.9381C28.4666 15.9381 30.8069 18.2784 30.8069 21.2569V23.3844ZM14.8505 19.6613C14.8505 21.1505 13.6803 22.3207 12.1911 22.3207C11.4464 22.3207 10.9145 22.1079 10.3827 21.576C9.85078 21.1505 9.53166 20.4059 9.53166 19.6613C9.53166 18.172 10.7018 17.0019 12.1911 17.0019C12.8293 17.0019 13.3612 17.2146 13.8931 17.6401C14.425 18.0656 14.8505 18.8102 14.8505 19.6613Z" stroke="#49B3FF" stroke-width="2" stroke-miterlimit="10"/>
</svg>
