<svg width="46" height="46" viewBox="0 0 46 46" fill="none" xmlns="http://www.w3.org/2000/svg">
<path d="M16.3043 29.6957V16.3043H12.4783L10.5652 18.2174V29.6957M35.4348 19.1739V17.2609L34.4783 16.3043H30.6522L29.6957 17.2609V22.0435L30.6522 23H34.4783L35.4348 23.9565V28.7391L34.4783 29.6957H30.6522L29.6957 28.7391V26.8261M10.5652 25.8696H16.3043M40.2174 17.2609V15.3478L30.6522 5.78261H15.3478L5.78261 15.3478V24.913M45 17.2609V13.4348L32.5652 1H13.4348L1 13.4348V24.913M5.78261 28.7391V30.6522L15.3478 40.2174H30.6522L40.2174 30.6522V21.087M1 28.7391V32.5652L13.4348 45H32.5652L45 32.5652V21.087M25.8696 18.2174L23.9565 16.3043H20.1304V29.6957H23.9565L25.8696 27.7826V18.2174Z" stroke="#49B3FF" stroke-width="1.4" stroke-miterlimit="10" stroke-linecap="round" stroke-linejoin="round"/>
</svg>
