<svg width="41" height="48" viewBox="0 0 41 48" fill="none" xmlns="http://www.w3.org/2000/svg">
<path d="M23.425 11C23.425 13.8 21.28 16 18.55 16H11.725M40 48V45C40 40.6 36.49 37 32.2 37H8.8C4.51 37 1 40.6 1 45V48M34.15 15C34.15 7.3 28.0075 1 20.5 1C12.9925 1 6.85 7.3 6.85 15M34.15 15H36.1C37.1725 15 38.05 15.9 38.05 17V21C38.05 22.1 37.1725 23 36.1 23H34.15M34.15 15V23M6.85 15H4.9C3.8275 15 2.95 15.9 2.95 17V21C2.95 22.1 3.8275 23 4.9 23H6.85V15ZM34.15 23V24C34.15 25.7 32.8825 27 31.225 27H22.45M22.45 27C22.45 28.1046 21.577 29 20.5 29C19.423 29 18.55 28.1046 18.55 27C18.55 25.8954 19.423 25 20.5 25C21.577 25 22.45 25.8954 22.45 27ZM15.625 37L20.5 46L25.375 37M29.275 37V42L20.5 47L11.725 42V37M10.75 23C10.75 28.5 15.1375 33 20.5 33C25.8625 33 30.25 28.5 30.25 23V15C30.25 9.5 25.8625 5 20.5 5C15.1375 5 10.75 9.5 10.75 15V23Z" stroke="#49B3FF" stroke-width="1.4" stroke-miterlimit="10"/>
</svg>
