<svg width="19" height="19" viewBox="0 0 19 19" fill="none" xmlns="http://www.w3.org/2000/svg">
<path d="M18.7399 18.236V11.6062C18.7399 8.3619 18.0409 5.86603 14.2494 5.86603C12.4278 5.86603 11.2028 6.86508 10.7051 7.81471H10.6521V6.16963H7.05834V18.236H10.8004V12.2593C10.8004 10.6848 11.0969 9.16326 13.0456 9.16326C14.9661 9.16326 14.9943 10.9602 14.9943 12.3581V18.236H18.7399Z" fill="white"/>
<path d="M0.961566 6.16958H4.71067V18.2359H0.961566V6.16958Z" fill="white"/>
<path d="M2.83613 0.161133C1.63585 0.161133 0.665039 1.13195 0.665039 2.33223C0.665039 3.53251 1.63585 4.5245 2.83613 4.5245C4.03641 4.5245 5.00723 3.52898 5.00723 2.33223C5.0037 1.13195 4.03288 0.161133 2.83613 0.161133Z" fill="white"/>
</svg>
