<svg width="22" height="9" viewBox="0 0 22 9" fill="none" xmlns="http://www.w3.org/2000/svg">
<g opacity="0.4">
<path d="M10.9943 6.5663C6.80436 6.5663 2.86629 4.3772 0.462243 0.720536C0.324869 0.512632 0.370661 0.23135 0.565274 0.0845947C0.759888 -0.062161 1.02319 -0.0132424 1.16056 0.194661C3.41579 3.61896 7.09056 5.66131 10.9943 5.66131C14.898 5.66131 18.5842 3.61896 20.8623 0.194661C20.9997 -0.0132424 21.263 -0.062161 21.4576 0.0845947C21.6522 0.23135 21.698 0.512632 21.5607 0.720536C19.1108 4.38943 15.1613 6.5663 10.9943 6.5663Z" fill="white"/>
<path d="M10.9943 9C10.7653 9 10.5707 8.7921 10.5707 8.5475V6.11381C10.5707 5.85698 10.7653 5.66131 10.9943 5.66131C11.2232 5.66131 11.4178 5.86921 11.4178 6.11381V8.53527C11.4178 8.7921 11.2232 9 10.9943 9Z" fill="white"/>
<path d="M0.427901 4.23044C0.313422 4.23044 0.198944 4.18152 0.118809 4.09592C-0.0414615 3.91247 -0.0414615 3.63119 0.130256 3.45998L1.77875 1.78451C1.95047 1.6133 2.21377 1.6133 2.37404 1.79674C2.53431 1.98019 2.53431 2.26147 2.36259 2.43269L0.725545 4.09592C0.633962 4.18152 0.530932 4.23044 0.427901 4.23044Z" fill="white"/>
<path d="M5.29324 7.77703C5.236 7.77703 5.19021 7.7648 5.13297 7.74035C4.91546 7.64251 4.81243 7.38569 4.90402 7.15332L5.75116 4.90307C5.84274 4.67071 6.08315 4.56064 6.30066 4.65848C6.51816 4.75632 6.6212 5.01314 6.52961 5.2455L5.68247 7.48352C5.62523 7.66697 5.46496 7.77703 5.29324 7.77703Z" fill="white"/>
<path d="M21.5721 4.23044C21.4691 4.23044 21.366 4.19375 21.2745 4.10815L19.626 2.43269C19.4542 2.26147 19.4542 1.96796 19.6145 1.79674C19.7748 1.6133 20.0495 1.6133 20.2098 1.78451L21.8697 3.44775C22.0415 3.61896 22.0415 3.91247 21.8812 4.08369C21.8011 4.18152 21.6866 4.23044 21.5721 4.23044Z" fill="white"/>
<path d="M16.7068 7.77704C16.5465 7.77704 16.3862 7.66697 16.3175 7.49575L15.4475 5.25773C15.3559 5.02537 15.4589 4.75631 15.6765 4.67071C15.894 4.57287 16.1458 4.68294 16.226 4.9153L17.096 7.15333C17.1876 7.38569 17.0845 7.65474 16.867 7.74035C16.8212 7.76481 16.764 7.77704 16.7068 7.77704Z" fill="white"/>
</g>
</svg>
