<svg width="85" height="88" viewBox="0 0 85 88" fill="none" xmlns="http://www.w3.org/2000/svg">
<path d="M7.82163 34.5995C7.90599 20.6291 17.608 8.68269 30.6564 4.26953C44.0142 -0.227958 59.5935 3.31381 69.1268 13.8829C74.273 19.561 77.1977 26.9256 77.2258 34.5995C77.2258 35.4709 78.5756 35.4709 78.5756 34.5995C78.4913 20.0951 68.48 7.67076 54.9535 3.03272C41.0614 -1.74586 24.7227 2.02079 14.852 13.0677C9.53705 18.9988 6.52803 26.6164 6.47179 34.5995C6.47179 35.4709 7.82163 35.4709 7.82163 34.5995Z" fill="#21B6E5"/>
<path d="M5.60002 54.9787C7.31544 54.9787 9.36832 55.2879 10.9431 54.4727C12.7992 53.4889 13.4741 51.6618 13.4741 49.6942C13.4741 46.0681 13.5303 42.4139 13.4741 38.7878C13.446 36.5109 12.068 34.487 9.76202 34.0092C8.94649 33.8405 8.0466 33.9248 7.23107 33.9248C6.27494 33.9248 5.26256 33.8405 4.30642 34.1216C0.116301 35.3584 1.10056 40.7273 1.10056 44.0161C1.10056 46.0681 1.07244 48.12 1.10056 50.172C1.12868 52.8424 2.90034 54.8382 5.60002 54.9787C6.47179 55.0349 6.47179 53.6857 5.60002 53.6295C1.43802 53.4327 2.4504 47.9514 2.4504 45.1405C2.4504 43.3977 2.4504 41.683 2.4504 39.9402C2.4504 38.4786 2.33791 37.045 3.57526 36.0049C4.84073 34.9368 7.03422 35.2179 8.60903 35.2741C10.7744 35.3303 12.0399 36.8482 12.0961 38.9283C12.1524 42.1047 12.0961 45.281 12.0961 48.4574C12.0961 50.0034 12.2648 51.6337 10.9994 52.8143C9.64953 54.0511 7.28732 53.6576 5.60002 53.6576C4.72825 53.6295 4.72825 54.9787 5.60002 54.9787Z" fill="#21B6E5"/>
<path d="M79.4755 53.6295C78.1819 53.6295 76.6071 53.8543 75.3417 53.4889C73.3731 52.8986 72.9794 51.1277 72.9794 49.3569C72.9794 46.0962 72.9794 42.8355 72.9794 39.5748C72.9794 37.8601 73.2607 36.2017 75.0886 35.4709C76.3259 34.993 78.1538 35.1898 79.4755 35.246C83.6375 35.4146 82.6533 40.9241 82.6533 43.735C82.6533 45.5621 82.6533 47.3892 82.6533 49.2163C82.6252 51.3526 82.0909 53.4889 79.4755 53.6295C78.6038 53.6857 78.6038 55.0349 79.4755 54.9787C82.0346 54.8382 83.8906 52.983 83.975 50.3969C84.0312 48.8228 83.975 47.2487 83.975 45.6745C83.975 43.5944 83.975 41.5425 83.975 39.4624C83.975 37.7477 83.8063 36.1455 82.3721 34.9649C80.741 33.5875 78.4913 33.8686 76.4946 33.8967C73.9918 33.9248 71.8546 35.5833 71.6296 38.1693C71.3203 41.5987 71.6015 45.1967 71.6015 48.626C71.6015 50.6218 71.6296 52.5613 73.3731 53.9668C75.0886 55.316 77.4227 54.9787 79.4474 54.9787C80.3473 54.9787 80.3473 53.6295 79.4755 53.6295Z" fill="#21B6E5"/>
<path d="M55.4878 84.4373C58.3562 84.4373 61.1965 84.5216 63.9805 83.847C67.6926 82.9475 71.1515 80.9798 73.7668 78.1689C76.2697 75.4704 77.957 72.0973 78.435 68.4431C78.7163 66.2787 78.6038 64.0018 78.6038 61.8093C78.6038 59.4481 78.6038 57.0588 78.6038 54.6976C78.6038 53.8262 77.2539 53.8262 77.2539 54.6976C77.2539 58.4924 77.2821 62.2871 77.2539 66.0819C77.1977 73.559 71.9952 79.9117 64.9648 82.1604C61.8714 83.1442 58.7218 83.0599 55.5159 83.0599C54.616 83.088 54.616 84.4373 55.4878 84.4373Z" fill="#21B6E5"/>
<path d="M52.9006 86.1519C49.1323 86.1519 45.2515 86.433 41.4832 86.1519C39.5428 86.0114 38.7273 82.8631 40.4146 81.7388C41.0895 81.289 42.0457 81.4296 42.8049 81.4296C45.364 81.4296 47.9231 81.4296 50.5103 81.4296C51.2977 81.4296 52.1132 81.3734 52.9006 81.4296C55.4878 81.5982 55.4878 85.9552 52.9006 86.1519C52.0288 86.2081 52.0288 87.5574 52.9006 87.5012C57.0907 87.192 57.3719 80.4457 53.0975 80.0803C50.3978 79.8554 47.5856 80.0803 44.8578 80.0803C42.2144 80.0803 38.418 79.6025 38.2211 83.341C38.1367 85.0838 38.6992 86.8547 40.5552 87.3887C41.4832 87.6698 42.6081 87.5293 43.5361 87.5293C46.6576 87.5293 49.7791 87.5293 52.9006 87.5293C53.7724 87.5012 53.7724 86.1519 52.9006 86.1519Z" fill="#21B6E5"/>
<path d="M30.1502 17.3966C35.184 29.9052 45.0547 40.3057 58.3843 43.6788C60.9715 44.3253 63.6431 44.7188 66.3427 44.7188C67.2145 44.7188 67.2145 43.3696 66.3427 43.3696C55.2347 43.3134 44.7453 37.2417 38.0243 28.6122C35.2965 25.0985 33.1311 21.1632 31.4719 17.0312C31.1345 16.2441 29.8409 16.5814 30.1502 17.3966Z" fill="#21B6E5"/>
<path d="M34.2278 70.1859C27.8442 68.3025 23.851 62.1185 22.1074 56.0188C20.0264 48.7947 20.6451 40.6992 24.2165 34.0654C26.4944 29.8209 29.9252 26.3916 34.0591 23.9179C34.7903 23.4682 34.1153 22.3157 33.3842 22.7655C25.932 27.2348 21.0388 34.74 19.8577 43.3415C18.8453 50.8185 20.4482 58.9983 25.0602 65.0981C27.3099 68.0777 30.2908 70.4388 33.8904 71.507C34.7059 71.7319 35.0715 70.4107 34.2278 70.1859Z" fill="#21B6E5"/>
<path d="M50.679 71.4789C61.787 68.1339 65.8928 54.4165 64.7679 44.0442C64.6836 43.2009 63.3337 43.1728 63.4181 44.0442C64.4586 53.77 60.8309 67.0095 50.3134 70.1858C49.4698 70.4107 49.8353 71.7319 50.679 71.4789Z" fill="#21B6E5"/>
<path d="M5.60002 54.9787C7.31544 54.9787 9.36832 55.2879 10.9431 54.4727C12.7992 53.4889 13.4741 51.6618 13.4741 49.6942C13.4741 46.0681 13.5303 42.4139 13.4741 38.7878C13.446 36.5109 12.068 34.487 9.76202 34.0092C8.94649 33.8405 8.0466 33.9248 7.23107 33.9248C6.27494 33.9248 5.26256 33.8405 4.30642 34.1216C0.116301 35.3584 1.10056 40.7273 1.10056 44.0161C1.10056 46.0681 1.07244 48.12 1.10056 50.172C1.12868 52.8424 2.90034 54.8382 5.60002 54.9787ZM5.60002 54.9787C6.47179 55.0349 6.47179 53.6857 5.60002 53.6295C1.43802 53.4327 2.4504 47.9514 2.4504 45.1405C2.4504 43.3977 2.4504 41.683 2.4504 39.9402C2.4504 38.4786 2.33791 37.045 3.57526 36.0049C4.84073 34.9368 7.03422 35.2179 8.60903 35.2741C10.7744 35.3303 12.0399 36.8482 12.0961 38.9283C12.1524 42.1047 12.0961 45.281 12.0961 48.4574C12.0961 50.0034 12.2648 51.6337 10.9994 52.8143C9.64953 54.0511 7.28732 53.6576 5.60002 53.6576C4.72825 53.6295 4.72825 54.9787 5.60002 54.9787ZM79.4755 53.6295C78.1819 53.6295 76.6071 53.8543 75.3417 53.4889C73.3731 52.8986 72.9794 51.1277 72.9794 49.3569C72.9794 46.0962 72.9794 42.8355 72.9794 39.5748C72.9794 37.8601 73.2607 36.2017 75.0886 35.4709C76.3259 34.993 78.1538 35.1898 79.4755 35.246C83.6375 35.4146 82.6533 40.9241 82.6533 43.735C82.6533 45.5621 82.6533 47.3892 82.6533 49.2163C82.6252 51.3526 82.0909 53.4889 79.4755 53.6295ZM79.4755 53.6295C78.6038 53.6857 78.6038 55.0349 79.4755 54.9787C82.0346 54.8382 83.8906 52.983 83.975 50.3969C84.0312 48.8228 83.975 47.2487 83.975 45.6745C83.975 43.5944 83.975 41.5425 83.975 39.4624C83.975 37.7477 83.8063 36.1455 82.3721 34.9649C80.741 33.5875 78.4913 33.8686 76.4946 33.8967C73.9918 33.9248 71.8546 35.5833 71.6296 38.1694C71.3203 41.5987 71.6015 45.1967 71.6015 48.626C71.6015 50.6218 71.6296 52.5613 73.3731 53.9668C75.0886 55.316 77.4227 54.9787 79.4474 54.9787C80.3473 54.9787 80.3473 53.6295 79.4755 53.6295ZM52.9006 86.1519C49.1323 86.1519 45.2515 86.433 41.4832 86.1519C39.5428 86.0114 38.7273 82.8631 40.4146 81.7388C41.0895 81.289 42.0456 81.4296 42.8049 81.4296C45.364 81.4296 47.9231 81.4296 50.5103 81.4296C51.2977 81.4296 52.1132 81.3734 52.9006 81.4296C55.4878 81.5982 55.4878 85.9552 52.9006 86.1519ZM52.9006 86.1519C52.0288 86.2081 52.0288 87.5574 52.9006 87.5012C57.0907 87.192 57.3719 80.4457 53.0975 80.0803C50.3978 79.8554 47.5856 80.0803 44.8578 80.0803C42.2144 80.0803 38.418 79.6025 38.2211 83.341C38.1367 85.0838 38.6992 86.8547 40.5552 87.3887C41.4832 87.6698 42.6081 87.5293 43.5361 87.5293C46.6576 87.5293 49.7791 87.5293 52.9006 87.5293C53.7724 87.5012 53.7724 86.1519 52.9006 86.1519ZM7.82163 34.5995C7.90599 20.6291 17.608 8.68269 30.6564 4.26953C44.0142 -0.227958 59.5935 3.31381 69.1268 13.8829C74.273 19.561 77.1977 26.9256 77.2258 34.5995C77.2258 35.4709 78.5756 35.4709 78.5756 34.5995C78.4913 20.0951 68.48 7.67076 54.9535 3.03272C41.0614 -1.74586 24.7227 2.02079 14.852 13.0677C9.53705 18.9988 6.52803 26.6164 6.47179 34.5995C6.47179 35.4709 7.82163 35.4709 7.82163 34.5995ZM55.4878 84.4373C58.3562 84.4373 61.1965 84.5216 63.9805 83.847C67.6926 82.9475 71.1515 80.9798 73.7668 78.1689C76.2697 75.4704 77.957 72.0973 78.435 68.4431C78.7163 66.2787 78.6038 64.0018 78.6038 61.8093C78.6038 59.4481 78.6038 57.0588 78.6038 54.6976C78.6038 53.8262 77.2539 53.8262 77.2539 54.6976C77.2539 58.4924 77.2821 62.2871 77.2539 66.0819C77.1977 73.559 71.9952 79.9117 64.9648 82.1604C61.8714 83.1442 58.7218 83.0599 55.5159 83.0599C54.616 83.088 54.616 84.4373 55.4878 84.4373ZM30.1502 17.3966C35.184 29.9052 45.0547 40.3057 58.3843 43.6788C60.9715 44.3253 63.6431 44.7188 66.3427 44.7188C67.2145 44.7188 67.2145 43.3696 66.3427 43.3696C55.2347 43.3134 44.7453 37.2417 38.0243 28.6122C35.2965 25.0985 33.1311 21.1632 31.4719 17.0312C31.1345 16.2441 29.8409 16.5814 30.1502 17.3966ZM34.2278 70.1858C27.8442 68.3025 23.851 62.1185 22.1074 56.0188C20.0264 48.7947 20.6451 40.6992 24.2165 34.0654C26.4944 29.8209 29.9252 26.3916 34.0591 23.9179C34.7903 23.4682 34.1153 22.3157 33.3842 22.7655C25.932 27.2348 21.0388 34.74 19.8577 43.3415C18.8453 50.8185 20.4482 58.9983 25.0602 65.0981C27.3099 68.0777 30.2908 70.4388 33.8904 71.507C34.7059 71.7319 35.0715 70.4107 34.2278 70.1858ZM50.679 71.4789C61.787 68.1339 65.8928 54.4165 64.7679 44.0442C64.6836 43.2009 63.3337 43.1728 63.4181 44.0442C64.4586 53.77 60.8309 67.0095 50.3134 70.1858C49.4698 70.4107 49.8353 71.7319 50.679 71.4789Z" stroke="#21B6E5" stroke-width="0.7"/>
</svg>
