<svg width="91" height="106" viewBox="0 0 91 106" fill="none" xmlns="http://www.w3.org/2000/svg">
<path d="M25.475 42.9057V18.6444H18.8C16.3525 18.6444 14.35 20.6294 14.35 23.0555V42.9057M25.475 34.0834H14.35M83.325 104.662V96.1426C87.4412 92.145 90 86.5759 90 80.4003V62.7558C90 59.089 87.0241 56.1391 83.325 56.1391H63.3V38.4945C63.3 36.0684 61.2975 34.0834 58.85 34.0834C56.4025 34.0834 54.4 36.0684 54.4 38.4945V74.8588C54.4 76.2925 53.4822 77.5607 52.1194 78.0018C50.7566 78.4429 49.2547 77.9742 48.3925 76.8439L42.4128 68.9314C41.6062 67.8562 40.2991 67.1669 38.8528 67.1669C36.4053 67.1669 34.4028 69.1519 34.4028 71.5781C34.4028 72.5706 34.7366 73.4804 35.2928 74.2247L44.5266 86.4381C47.2522 90.0497 50.5341 93.1926 54.2887 95.7566L54.4278 95.8669V104.689M45.5 55.3671L42.4962 58.3446H17.3538L1 42.1337V17.2108L17.3538 0.999847H42.4962L58.85 17.2108V25.2611M45.5 23.0555C45.5 20.6294 43.4975 18.6444 41.05 18.6444H34.375V40.7001H41.05C43.4975 40.7001 45.5 38.7151 45.5 36.289V23.0555Z" stroke="#21B6E6" stroke-width="1.5" stroke-miterlimit="10" stroke-linecap="round" stroke-linejoin="round"/>
</svg>
