<svg width="85" height="85" viewBox="0 0 85 85" fill="none" xmlns="http://www.w3.org/2000/svg">
<path d="M47.913 33.4078C47.913 30.3471 45.5674 28.0065 42.5 28.0065M42.5 28.0065C39.4326 28.0065 37.087 30.3471 37.087 33.4078V35.0282C37.087 37.3688 38.35 39.7093 40.3348 40.9696L44.6652 43.8503C46.65 45.1106 47.913 47.4512 47.913 49.7918V51.4121C47.913 54.4729 45.5674 56.8135 42.5 56.8135M42.5 28.0065V22.6052M42.5 56.8135C39.4326 56.8135 37.087 54.4729 37.087 51.4121M42.5 56.8135V62.2148M60.5435 42.41H53.3261M31.6739 42.41H24.4565M83.2783 49.6117C83.6391 47.2712 84 44.9306 84 42.41C84 39.8894 83.8196 37.5488 83.2783 35.2082H75.8804C74.9783 31.0672 73.3544 27.2863 71.1891 23.8655L76.4217 18.6443C73.7152 14.6833 70.1065 11.2625 66.137 8.38178L61.0848 13.603C57.6565 11.4425 53.8674 9.82213 49.7174 8.92191V1.72017C47.3717 1.18004 45.0261 1 42.5 1C39.9739 1 37.6283 1.18004 35.2826 1.72017V9.10195C31.1326 10.0022 27.3435 11.6226 23.9152 13.7831L18.6826 8.56182C14.713 11.2625 11.2848 14.6833 8.39783 18.8243L13.6304 23.8655C11.4652 27.2863 9.8413 31.0672 8.93913 35.2082H1.72174C1.18043 37.5488 1 39.8894 1 42.41C1 44.9306 1.18043 47.2712 1.72174 49.6117H9.11957C10.0217 53.7527 11.6457 57.5336 13.8109 60.9544L8.57826 66.1757C11.2848 70.1367 14.713 73.5575 18.863 76.4382L24.0957 71.2169C27.5239 73.3774 31.313 74.9978 35.463 75.898V83.2798C37.8087 83.6399 40.1543 84 42.6804 84C45.2065 84 47.5522 83.82 49.8978 83.2798V75.898C54.0478 74.9978 57.837 73.3774 61.2652 71.2169L66.4978 76.4382C70.4674 73.7375 73.8957 70.1367 76.7826 66.1757L71.3696 60.9544C73.5348 57.5336 75.1587 53.7527 76.0609 49.6117H83.2783ZM67.7609 42.41C67.7609 56.3309 56.4512 67.6161 42.5 67.6161C28.5488 67.6161 17.2391 56.3309 17.2391 42.41C17.2391 28.489 28.5488 17.2039 42.5 17.2039C56.4512 17.2039 67.7609 28.489 67.7609 42.41Z" stroke="#219FE6" stroke-width="1.7" stroke-miterlimit="10"/>
</svg>
