<svg width="92" height="92" viewBox="0 0 92 92" fill="none" xmlns="http://www.w3.org/2000/svg">
<path d="M7.225 68.7625C3.25 62.125 1 54.325 1 46C1 21.175 21.175 1 46 1C70.825 1 91 21.175 91 46C91 54.325 88.75 62.125 84.775 68.7625M64 31C64 40.9411 55.9411 49 46 49C36.0589 49 28 40.9411 28 31C28 21.0589 36.0589 13 46 13C55.9411 13 64 21.0589 64 31ZM76.975 78.625C68.95 86.3125 58 91 46 91C34 91 23.0875 86.275 15.025 78.625C21.2875 68.0875 32.8 61 46 61C59.2 61 70.675 68.0875 76.975 78.625Z" stroke="#21B6E6" stroke-width="2" stroke-miterlimit="10" stroke-linecap="round" stroke-linejoin="round"/>
</svg>
