<svg width="20" height="20" viewBox="0 0 20 20" fill="none" xmlns="http://www.w3.org/2000/svg">
<path d="M8.79211 0.625816C7.28286 0.629132 5.83656 1.231 4.77053 2.29938C3.7045 3.36775 3.1058 4.81538 3.1058 6.32463C3.1058 7.83389 3.7045 9.28151 4.77053 10.3499C5.83656 11.4183 7.28286 12.0201 8.79211 12.0234C10.3014 12.0201 11.7477 11.4183 12.8137 10.3499C13.8797 9.28151 14.4784 7.83389 14.4784 6.32463C14.4784 4.81538 13.8797 3.36775 12.8137 2.29938C11.7477 1.231 10.3014 0.629132 8.79211 0.625816ZM5.22339 11.3881C3.87343 11.6516 2.65705 12.3761 1.78253 13.4378C0.908017 14.4994 0.42977 15.832 0.429688 17.2074C0.43035 17.7819 0.658855 18.3326 1.06507 18.7388C1.47129 19.145 2.02204 19.3735 2.59651 19.3741H13.7148C13.2652 19.1378 12.8606 18.8244 12.5193 18.4483C12.0828 17.9674 11.7599 17.3946 11.5744 16.7722C11.3889 16.1498 11.3456 15.4936 11.4475 14.8522C11.5495 14.2108 11.7942 13.6005 12.1635 13.0663C12.5329 12.5321 13.0175 12.0876 13.5815 11.7657C13.1896 11.5959 12.7802 11.4694 12.3608 11.3885C11.3162 12.1242 10.0697 12.5191 8.79203 12.519C7.51434 12.519 6.26791 12.124 5.22339 11.3881ZM15.7298 11.6931C14.9702 11.6931 14.2277 11.9183 13.5961 12.3403C12.9646 12.7623 12.4723 13.3621 12.1816 14.0639C11.891 14.7656 11.8149 15.5378 11.9631 16.2828C12.1112 17.0278 12.477 17.7121 13.0141 18.2492C13.5512 18.7863 14.2355 19.1521 14.9805 19.3003C15.7255 19.4485 16.4977 19.3725 17.1995 19.0818C17.9012 18.7911 18.501 18.2989 18.923 17.6673C19.3451 17.0358 19.5703 16.2932 19.5703 15.5337C19.5692 14.5154 19.1642 13.5392 18.4442 12.8193C17.7242 12.0993 16.748 11.6943 15.7298 11.6931ZM15.7544 12.4201C15.9909 12.4265 16.2155 12.5251 16.3803 12.6948C16.5451 12.8645 16.6371 13.0919 16.6366 13.3285V14.6268H17.935C18.054 14.6268 18.172 14.6503 18.282 14.6958C18.392 14.7414 18.492 14.8082 18.5762 14.8924C18.6604 14.9766 18.7272 15.0766 18.7728 15.1866C18.8183 15.2966 18.8418 15.4146 18.8418 15.5337C18.8418 15.7741 18.7462 16.0048 18.5762 16.1748C18.4061 16.3449 18.1754 16.4404 17.935 16.4404H16.6366V17.7388C16.637 17.8581 16.6138 17.9764 16.5684 18.0867C16.5231 18.1971 16.4563 18.2974 16.3721 18.382C16.2878 18.4665 16.1877 18.5336 16.0775 18.5793C15.9673 18.6251 15.8491 18.6487 15.7298 18.6487C15.6104 18.6487 15.4923 18.6251 15.3821 18.5793C15.2718 18.5336 15.1717 18.4665 15.0875 18.382C15.0033 18.2974 14.9365 18.1971 14.8911 18.0867C14.8457 17.9764 14.8226 17.8581 14.823 17.7388V16.4404H13.5246C13.2841 16.4404 13.0535 16.3449 12.8834 16.1748C12.7134 16.0048 12.6178 15.7741 12.6178 15.5337C12.6178 15.4146 12.6412 15.2966 12.6868 15.1866C12.7324 15.0766 12.7992 14.9766 12.8834 14.8924C12.9676 14.8082 13.0676 14.7414 13.1776 14.6958C13.2876 14.6503 13.4055 14.6268 13.5246 14.6268H14.823V13.3285C14.8227 13.2071 14.8468 13.087 14.8938 12.9752C14.9409 12.8633 15.0098 12.7621 15.0967 12.6774C15.1835 12.5927 15.2865 12.5263 15.3995 12.4821C15.5124 12.4379 15.6331 12.4168 15.7544 12.4201Z" fill="black"/>
</svg>
