<svg width="32" height="32" viewBox="0 0 32 32" fill="none" xmlns="http://www.w3.org/2000/svg">
<path d="M10.6666 14.3467H9.89324C8.83792 14.3086 7.78601 14.4878 6.8028 14.8731C5.8196 15.2584 4.92608 15.8417 4.17769 16.5867L3.96436 16.8356V24.1956H7.59102V20.0179L8.07991 19.4667L8.30213 19.209C9.4594 18.0201 10.9002 17.1452 12.4888 16.6667C11.6934 16.0615 11.0661 15.2629 10.6666 14.3467Z" fill="black"/>
<path d="M27.8577 16.5602C27.1093 15.8152 26.2158 15.2319 25.2326 14.8466C24.2494 14.4612 23.1975 14.2821 22.1422 14.3202C21.8185 14.3211 21.4951 14.3389 21.1733 14.3736C20.7663 15.233 20.1561 15.9805 19.3955 16.5513C21.0915 17.0205 22.6278 17.9424 23.84 19.218L24.0622 19.4669L24.5422 20.018V24.2047H28.0444V16.8091L27.8577 16.5602Z" fill="black"/>
<path d="M9.86688 12.6134H10.1424C10.0144 11.5141 10.2073 10.4012 10.6978 9.40905C11.1884 8.41692 11.9556 7.58799 12.9069 7.0223C12.562 6.4955 12.0863 6.06728 11.5263 5.77958C10.9662 5.49189 10.341 5.35457 9.71198 5.38108C9.08291 5.40759 8.47151 5.59701 7.93765 5.93081C7.40379 6.26461 6.96577 6.73133 6.66648 7.28528C6.3672 7.83922 6.2169 8.4614 6.23032 9.09088C6.24373 9.72036 6.4204 10.3356 6.74302 10.8763C7.06564 11.4169 7.52314 11.8646 8.07074 12.1753C8.61834 12.4861 9.23726 12.6493 9.86688 12.649V12.6134Z" fill="black"/>
<path d="M21.7156 11.9469C21.7264 12.1512 21.7264 12.3559 21.7156 12.5602C21.8862 12.5872 22.0585 12.6021 22.2311 12.6046H22.4C23.0269 12.5712 23.6344 12.376 24.1634 12.0381C24.6925 11.7002 25.125 11.2311 25.4189 10.6764C25.7128 10.1217 25.8581 9.50034 25.8406 8.87284C25.8231 8.24533 25.6434 7.63306 25.319 7.09561C24.9946 6.55817 24.5366 6.11388 23.9896 5.80599C23.4425 5.4981 22.8251 5.33711 22.1973 5.33869C21.5696 5.34027 20.9529 5.50436 20.4074 5.815C19.8619 6.12564 19.4061 6.57223 19.0845 7.1113C19.889 7.63657 20.5505 8.35335 21.0098 9.19731C21.469 10.0413 21.7115 10.986 21.7156 11.9469Z" fill="black"/>
<path d="M15.8845 15.929C18.0789 15.929 19.8578 14.1501 19.8578 11.9557C19.8578 9.76124 18.0789 7.98232 15.8845 7.98232C13.6901 7.98232 11.9111 9.76124 11.9111 11.9557C11.9111 14.1501 13.6901 15.929 15.8845 15.929Z" fill="black"/>
<path d="M16.0979 18.0443C14.937 17.9974 13.7787 18.1859 12.6926 18.5983C11.6065 19.0108 10.615 19.6387 9.77789 20.4443L9.55566 20.6932V26.3198C9.55913 26.5031 9.59867 26.6839 9.67203 26.8519C9.74539 27.0199 9.85112 27.1718 9.9832 27.2989C10.1153 27.426 10.2711 27.5259 10.4418 27.5928C10.6124 27.6596 10.7946 27.6922 10.9779 27.6887H21.1912C21.3745 27.6922 21.5567 27.6596 21.7273 27.5928C21.898 27.5259 22.0538 27.426 22.1859 27.2989C22.318 27.1718 22.4237 27.0199 22.4971 26.8519C22.5704 26.6839 22.61 26.5031 22.6134 26.3198V20.7109L22.4001 20.4443C21.5684 19.6362 20.5804 19.0065 19.4967 18.5938C18.413 18.1811 17.2564 17.9941 16.0979 18.0443Z" fill="black"/>
</svg>
