<svg width="16" height="16" viewBox="0 0 16 16" fill="none" xmlns="http://www.w3.org/2000/svg">
<path fill-rule="evenodd" clip-rule="evenodd" d="M7.99935 0.666687C3.94935 0.666687 0.666016 3.95002 0.666016 8.00002C0.666016 12.05 3.94935 15.3334 7.99935 15.3334C12.0493 15.3334 15.3327 12.05 15.3327 8.00002C15.3327 3.95002 12.0493 0.666687 7.99935 0.666687ZM7.66602 4.00002C7.4892 4.00002 7.31964 4.07026 7.19461 4.19528C7.06959 4.32031 6.99935 4.48988 6.99935 4.66669C6.99935 4.8435 7.06959 5.01307 7.19461 5.13809C7.31964 5.26312 7.4892 5.33335 7.66602 5.33335H7.99935C8.17616 5.33335 8.34573 5.26312 8.47075 5.13809C8.59578 5.01307 8.66602 4.8435 8.66602 4.66669C8.66602 4.48988 8.59578 4.32031 8.47075 4.19528C8.34573 4.07026 8.17616 4.00002 7.99935 4.00002H7.66602ZM6.66602 6.66669C6.4892 6.66669 6.31964 6.73693 6.19461 6.86195C6.06959 6.98697 5.99935 7.15654 5.99935 7.33335C5.99935 7.51016 6.06959 7.67973 6.19461 7.80476C6.31964 7.92978 6.4892 8.00002 6.66602 8.00002H7.33268V10H6.66602C6.4892 10 6.31964 10.0703 6.19461 10.1953C6.06959 10.3203 5.99935 10.4899 5.99935 10.6667C5.99935 10.8435 6.06959 11.0131 6.19461 11.1381C6.31964 11.2631 6.4892 11.3334 6.66602 11.3334H9.33268C9.50949 11.3334 9.67906 11.2631 9.80409 11.1381C9.92911 11.0131 9.99935 10.8435 9.99935 10.6667C9.99935 10.4899 9.92911 10.3203 9.80409 10.1953C9.67906 10.0703 9.50949 10 9.33268 10H8.66602V7.33335C8.66602 7.15654 8.59578 6.98697 8.47075 6.86195C8.34573 6.73693 8.17616 6.66669 7.99935 6.66669H6.66602Z" fill="white"/>
</svg>