<svg width="24" height="24" viewBox="0 0 24 24" fill="none" xmlns="http://www.w3.org/2000/svg">
<path fill-rule="evenodd" clip-rule="evenodd" d="M13.2191 13.0239C11.4678 14.425 9.32328 16.5583 7.88196 19.4411L10.118 20.5591C11.3434 18.1083 13.1989 16.2417 14.7809 14.9761C15.5674 14.3469 16.2741 13.876 16.7801 13.5646C17.0327 13.4092 17.2343 13.2941 17.3694 13.2196C17.437 13.1823 17.4879 13.1552 17.5201 13.1383L17.5543 13.1206L17.559 13.1181L17.5596 13.1178C17.5596 13.1178 17.5595 13.1179 17.559 13.1169L17.559 10.8833C17.5596 10.8823 17.5596 10.8823 17.5596 10.8823L17.559 10.8821L17.5543 10.8796L17.5201 10.8619C17.4879 10.845 17.437 10.8179 17.3695 10.7806C17.2343 10.706 17.0328 10.591 16.7801 10.4355C16.2741 10.1241 15.5674 9.65323 14.7809 9.02398C13.1989 7.7584 11.3434 5.89169 10.118 3.44092L7.88196 4.55893C9.32328 7.44165 11.4677 9.57502 13.2191 10.9761C13.7151 11.373 14.1836 11.7142 14.6013 12.0001C14.1836 12.2859 13.7151 12.6271 13.2191 13.0239Z" fill="black"/>
</svg>
