<svg width="24" height="24" viewBox="0 0 24 24" fill="none" xmlns="http://www.w3.org/2000/svg">
<path fill-rule="evenodd" clip-rule="evenodd" d="M10.7809 13.0239C12.5322 14.425 14.6767 16.5583 16.118 19.4411L13.882 20.5591C12.6566 18.1083 10.8011 16.2417 9.21914 14.9761C8.4326 14.3469 7.72588 13.876 7.2199 13.5646C6.96726 13.4092 6.76571 13.2941 6.63055 13.2196C6.56301 13.1823 6.51214 13.1552 6.47989 13.1383L6.44574 13.1206L6.44101 13.1181L6.44042 13.1178C6.44044 13.1178 6.44047 13.1179 6.44101 13.1169L6.44098 10.8833C6.44045 10.8823 6.44042 10.8823 6.44039 10.8823L6.44098 10.8821L6.44571 10.8796L6.47986 10.8619C6.51212 10.845 6.56298 10.8179 6.63053 10.7806C6.76568 10.706 6.96724 10.591 7.21988 10.4355C7.72586 10.1241 8.43258 9.65323 9.21912 9.02398C10.8011 7.7584 12.6566 5.89169 13.882 3.44092L16.118 4.55893C14.6767 7.44165 12.5323 9.57502 10.7809 10.9761C10.2849 11.373 9.81643 11.7142 9.39869 12.0001C9.81642 12.2859 10.2849 12.6271 10.7809 13.0239Z" fill="black"/>
</svg>
