<svg width="24" height="24" viewBox="0 0 24 24" fill="none" xmlns="http://www.w3.org/2000/svg">
<path d="M12.0002 1.33337C9.8905 1.33337 7.82821 1.95896 6.07408 3.13103C4.31996 4.3031 2.95279 5.96901 2.14545 7.91808C1.33812 9.86716 1.12688 12.0119 1.53846 14.081C1.95003 16.1501 2.96594 18.0508 4.4577 19.5425C5.94946 21.0343 7.85007 22.0502 9.9192 22.4618C11.9883 22.8733 14.133 22.6621 16.0821 21.8548C18.0312 21.0474 19.6971 19.6802 20.8692 17.9261C22.0412 16.172 22.6668 14.1097 22.6668 12C22.6668 9.17106 21.543 6.45796 19.5426 4.45757C17.5423 2.45718 14.8291 1.33337 12.0002 1.33337ZM18.9668 8.42004L10.2068 17.1734L5.0335 12C4.85669 11.8232 4.75736 11.5834 4.75736 11.3334C4.75736 11.0833 4.85669 10.8435 5.0335 10.6667C5.21031 10.4899 5.45012 10.3906 5.70017 10.3906C5.95022 10.3906 6.19002 10.4899 6.36683 10.6667L10.2202 14.52L17.6468 7.10004C17.7344 7.01249 17.8383 6.94305 17.9527 6.89567C18.0671 6.84828 18.1897 6.8239 18.3135 6.8239C18.4373 6.8239 18.5599 6.84828 18.6743 6.89567C18.7887 6.94305 18.8926 7.01249 18.9802 7.10004C19.0677 7.18759 19.1372 7.29152 19.1845 7.40591C19.2319 7.5203 19.2563 7.6429 19.2563 7.76671C19.2563 7.89052 19.2319 8.01312 19.1845 8.1275C19.1372 8.24189 19.0677 8.34583 18.9802 8.43337L18.9668 8.42004Z" fill="#16FFAC"/>
</svg>
