<svg width="70" height="70" viewBox="0 0 70 70" fill="none" xmlns="http://www.w3.org/2000/svg">
<path d="M2.60513 36.1391L63.3394 36.1391L36.0955 63.383C35.8053 63.6732 35.6443 64.0295 35.6443 64.403C35.6443 64.7764 35.8053 65.1328 36.0955 65.4229C36.3857 65.7131 36.7421 65.8741 37.1155 65.8741C37.4889 65.8741 37.8453 65.7131 38.1355 65.4229L67.8304 35.728C68.1206 35.4378 68.2816 35.0814 68.2816 34.708C68.2816 34.3346 68.1206 33.9782 67.8304 33.688L38.1355 3.99308C37.8453 3.7029 37.4889 3.54187 37.1155 3.54187C36.7421 3.54187 36.3857 3.7029 36.0955 3.99308C35.8053 4.28326 35.6443 4.63964 35.6443 5.01306C35.6443 5.38648 35.8053 5.74286 36.0955 6.03304L63.3394 33.2769L2.60513 33.2769C1.79327 33.2769 1.17407 33.8961 1.17407 34.708C1.17407 35.5199 1.79327 36.1391 2.60513 36.1391Z" fill="#E61B4A" stroke="#E61B4A" stroke-width="0.614942"/>
</svg>
