<svg width="28" height="26" viewBox="0 0 28 26" fill="none" xmlns="http://www.w3.org/2000/svg">
<path d="M26.8304 13.4326L3.2753 13.4326L13.7873 23.9445C13.9148 24.072 13.9893 24.2328 13.9893 24.4051C13.9893 24.5774 13.9148 24.7382 13.7873 24.8657C13.6597 24.9932 13.4989 25.0677 13.3267 25.0677C13.1544 25.0677 12.9936 24.9932 12.8661 24.8657L1.24662 13.2462C1.11911 13.1187 1.0446 12.9579 1.0446 12.7856C1.0446 12.6134 1.11911 12.4526 1.24662 12.3251L12.8661 0.7056C12.9936 0.578085 13.1544 0.503578 13.3267 0.503578C13.4989 0.503578 13.6597 0.578084 13.7873 0.7056C13.9148 0.833115 13.9893 0.99391 13.9893 1.16619C13.9893 1.33847 13.9148 1.49927 13.7873 1.62678L3.2753 12.1387L26.8304 12.1387C27.1961 12.1387 27.4773 12.4199 27.4773 12.7856C27.4773 13.1513 27.1961 13.4326 26.8304 13.4326Z" fill="#E61B4A" stroke="#E61B4A" stroke-width="0.414511"/>
</svg>
