<svg width="16" height="17" viewBox="0 0 16 17" fill="none" xmlns="http://www.w3.org/2000/svg">
<path d="M13.9576 8.72932L8.26697 3.03871L8.26697 16.0567C8.26697 16.3703 8.02153 16.6157 7.70801 16.6157C7.39449 16.6157 7.14904 16.3703 7.14904 16.0567L7.14904 3.03871L1.45843 8.72932C1.35513 8.83262 1.21677 8.90022 1.06137 8.90022C0.905976 8.90022 0.767617 8.83262 0.664319 8.72932C0.56102 8.62602 0.493425 8.48767 0.493425 8.33227C0.493425 8.17687 0.56102 8.03851 0.664319 7.93522L7.31095 1.28858C7.41425 1.18528 7.55261 1.11769 7.70801 1.11769C7.8634 1.11769 8.00176 1.18528 8.10506 1.28858L14.7517 7.93522C14.855 8.03851 14.9226 8.17687 14.9226 8.33227C14.9226 8.48767 14.855 8.62602 14.7517 8.72932C14.6484 8.83262 14.51 8.90022 14.3546 8.90022C14.1992 8.90022 14.0609 8.83262 13.9576 8.72932Z" fill="white" stroke="white" stroke-width="0.614942"/>
</svg>
