<svg width="38" height="41" viewBox="0 0 38 41" fill="none" xmlns="http://www.w3.org/2000/svg">
<path d="M18.0774 1.86147L18.0774 36.8063L2.48251 21.2114C2.29333 21.0222 2.05479 20.9117 1.7992 20.9117C1.54362 20.9117 1.30507 21.0222 1.1159 21.2114C0.926726 21.4006 0.816194 21.6391 0.816194 21.8947C0.816194 22.1503 0.926726 22.3888 1.1159 22.578L18.3538 39.8159C18.543 40.0051 18.7815 40.1156 19.0371 40.1156C19.2927 40.1156 19.5312 40.0051 19.7204 39.8159L36.9583 22.578C37.1475 22.3888 37.258 22.1503 37.258 21.8947C37.258 21.6391 37.1475 21.4006 36.9583 21.2114C36.7691 21.0222 36.5306 20.9117 36.275 20.9117C36.0194 20.9117 35.7809 21.0222 35.5917 21.2114L19.9968 36.8063L19.9968 1.86147C19.9968 1.31894 19.5796 0.90175 19.0371 0.90175C18.4946 0.90175 18.0774 1.31894 18.0774 1.86147Z" fill="#E61B4A" stroke="#E61B4A" stroke-width="0.614942"/>
</svg>
