<svg width="51" height="51" viewBox="0 0 51 51" fill="none" xmlns="http://www.w3.org/2000/svg">
<path d="M50 9.52174H1M42.5435 5.26087H40.413M46.8043 5.26087H44.6739M38.2826 5.26087H36.1522M23.3696 5.26087H4.19565M39.3478 41.4783H50V1H1V41.4783H11.6522M23.3696 42.5435V30.8261H20.1739C19.0022 30.8261 18.0435 31.7848 18.0435 32.9565V42.5435M23.3696 38.2826H18.0435M31.5185 22.3043H19.4815L11.6522 30.1337V42.1707L19.4815 50H31.5185L39.3478 42.1707V30.1337L31.5185 22.3043ZM32.9565 32.9565C32.9565 31.7848 31.9978 30.8261 30.8261 30.8261H27.6304V41.4783H30.8261C31.9978 41.4783 32.9565 40.5196 32.9565 39.3478V32.9565Z" stroke="#49B3FF" stroke-width="2" stroke-miterlimit="10"/>
</svg>
