<svg width="19" height="17" viewBox="0 0 19 17" fill="none" xmlns="http://www.w3.org/2000/svg">
<path d="M1.18166 16.6735C0.935539 16.4274 0.935539 16.0284 1.18166 15.7823L16.7793 0.184593C17.0254 -0.0615312 17.4245 -0.0615309 17.6706 0.184593C17.9167 0.430718 17.9167 0.829764 17.6706 1.07589L2.07296 16.6735C1.82683 16.9197 1.42779 16.9197 1.18166 16.6735Z" fill="white"/>
<path d="M17.8525 16.6735C18.0986 16.4274 18.0986 16.0284 17.8525 15.7823L2.25482 0.184593C2.0087 -0.0615312 1.60965 -0.0615309 1.36352 0.184593C1.1174 0.430718 1.1174 0.829764 1.36352 1.07589L16.9612 16.6735C17.2073 16.9197 17.6064 16.9197 17.8525 16.6735Z" fill="white"/>
</svg>
