<svg width="23" height="14" viewBox="0 0 23 14" fill="none" xmlns="http://www.w3.org/2000/svg">
<path d="M11.4978 14C7.11434 14 2.99434 11.9064 0.479229 8.40936C0.371439 8.25731 0.371439 8.05848 0.479229 7.90643C2.99434 4.38596 7.11434 2.2924 11.4978 2.2924C15.8693 2.2924 20.0013 4.38596 22.5404 7.90643C22.6481 8.05848 22.6481 8.25731 22.5404 8.40936C19.9893 11.9181 15.8573 14 11.4978 14ZM1.37748 8.16374C3.74887 11.2866 7.49759 13.1345 11.4858 13.1345C15.4621 13.1345 19.2228 11.2749 21.6181 8.16374C19.2348 5.02924 15.4741 3.15789 11.4978 3.15789C7.49759 3.15789 3.74887 5.02924 1.37748 8.16374Z" fill="white"/>
<path d="M11.4978 11.7544C9.46177 11.7544 7.82096 10.1287 7.82096 8.12865C7.82096 6.14035 9.47375 4.53801 11.4978 4.53801C13.5458 4.53801 15.2106 6.15205 15.2106 8.12865C15.1986 10.1287 13.5339 11.7544 11.4978 11.7544ZM11.4978 5.40351C9.95282 5.40351 8.70724 6.63158 8.70724 8.12865C8.70724 9.64912 9.9648 10.8889 11.4978 10.8889C13.0548 10.8889 14.3243 9.64912 14.3243 8.12865C14.3123 6.63158 13.0428 5.40351 11.4978 5.40351Z" fill="white"/>
<path d="M11.4978 3.15789C11.2583 3.15789 11.0547 2.95906 11.0547 2.72515V0.432749C11.0427 0.19883 11.2463 0 11.4978 0C11.7373 0 11.941 0.19883 11.941 0.432749V2.72515C11.941 2.97076 11.7374 3.15789 11.4978 3.15789Z" fill="white"/>
<path d="M2.16795 7.01754C2.06016 7.01754 1.95237 6.98246 1.85655 6.90058L0.131904 5.28655C-0.0357699 5.12281 -0.0477466 4.84211 0.119928 4.67836C0.287602 4.50292 0.575043 4.50292 0.742717 4.66667L2.46737 6.26901C2.64702 6.43275 2.64702 6.71345 2.47934 6.87719C2.40748 6.97076 2.28771 7.01754 2.16795 7.01754Z" fill="white"/>
<path d="M6.41968 4.18713C6.24003 4.18713 6.07236 4.08187 6.01248 3.91813L5.1262 1.75439C5.03038 1.52047 5.15015 1.26316 5.37771 1.18129C5.60527 1.08772 5.86876 1.20468 5.95259 1.4269L6.83887 3.59064C6.93468 3.81287 6.81492 4.07018 6.58736 4.15205C6.53945 4.17544 6.47957 4.18713 6.41968 4.18713Z" fill="white"/>
<path d="M20.8397 7.01754C20.7199 7.01754 20.6001 6.97076 20.5163 6.88889C20.3486 6.71345 20.3486 6.44444 20.5283 6.2807L22.2529 4.67836C22.4326 4.51462 22.708 4.52632 22.8757 4.69006C23.0434 4.8655 23.0434 5.1345 22.8637 5.29825L21.1391 6.90058C21.0672 6.97076 20.9475 7.01754 20.8397 7.01754Z" fill="white"/>
<path d="M16.564 4.18713C16.5041 4.18713 16.4442 4.17544 16.3963 4.15205C16.1687 4.05848 16.0609 3.81287 16.1568 3.59064L17.067 1.4269C17.1628 1.20468 17.4263 1.09942 17.6419 1.19298C17.8694 1.28655 17.9772 1.53216 17.8814 1.75439L16.9712 3.91813C16.8993 4.08187 16.7316 4.18713 16.564 4.18713Z" fill="white"/>
</svg>
