<svg width="10" height="20" viewBox="0 0 10 20" fill="none" xmlns="http://www.w3.org/2000/svg">
<path d="M2.85219 4.16933C2.85219 4.65145 2.85219 6.81206 2.85219 6.81206H0.906006V10.0441H2.85219V19.6508H6.84771V10.0441H9.52932C9.52932 10.0441 9.78045 8.49502 9.90152 6.79867C9.55175 6.79867 6.86116 6.79867 6.86116 6.79867C6.86116 6.79867 6.86116 4.91929 6.86116 4.58895C6.86116 4.25861 7.29614 3.8122 7.72663 3.8122C8.15713 3.8122 9.06296 3.8122 9.90601 3.8122C9.90601 3.37026 9.90601 1.85247 9.90601 0.446289C8.78493 0.446289 7.5069 0.446289 6.94636 0.446289C2.75354 0.450753 2.85219 3.68721 2.85219 4.16933Z" fill="white"/>
</svg>
