<svg width="53" height="53" viewBox="0 0 53 53" fill="none" xmlns="http://www.w3.org/2000/svg">
<path d="M29.8261 20.9565C29.8261 19.1133 28.3432 17.6304 26.5 17.6304M26.5 17.6304C24.6568 17.6304 23.1739 19.1133 23.1739 20.9565V21.9128C23.1739 23.3957 23.9084 24.7815 25.1418 25.5992L27.8443 27.4008C29.0777 28.2185 29.8122 29.6043 29.8122 31.0872V32.0435C29.8122 33.8867 28.3293 35.3696 26.4861 35.3696C24.6429 35.3696 23.1601 33.8867 23.1601 32.0435M26.5 17.6304V14.3043M26.5 35.3696V38.6957M5.43478 26.5C5.43478 14.8726 14.8726 5.43478 26.5 5.43478C31.7802 5.43478 36.6168 7.38886 40.3171 10.6041L36.4228 13.9717L46.4565 14.3043L47.5791 4.32609L43.7125 7.67989C39.153 3.53614 33.1245 1 26.5 1C12.4196 1 1 12.4196 1 26.5C1 30.2557 1.81766 33.8174 3.27283 37.0326M47.5652 26.5C47.5652 38.1274 38.1274 47.5652 26.5 47.5652C21.2198 47.5652 16.3832 45.6111 12.6829 42.3959L16.5772 39.0283L6.55734 38.6957L5.43478 48.6739L9.30136 45.3201C13.847 49.4639 19.8755 52 26.5 52C40.5804 52 52 40.5804 52 26.5C52 22.7443 51.1823 19.1826 49.7272 15.9674M34.2609 26.5H38.6957M14.3043 26.5H18.7391" stroke="#49B3FF" stroke-width="2" stroke-miterlimit="10"/>
</svg>
