<svg width="44" height="44" viewBox="0 0 44 44" fill="none" xmlns="http://www.w3.org/2000/svg">
<path d="M43 8.30435H1M36.6087 4.65217H34.7826M40.2609 4.65217H38.4348M32.9565 4.65217H31.1304M20.1739 4.65217H3.73913M8.57826 32.0435H1V1H43V32.0435H35.4217M4.65217 11.9565H20.1739M4.65217 15.6087H11.0435M22 15.6087C14.4361 15.6087 8.30435 21.7404 8.30435 29.3043C8.30435 36.8682 14.4361 43 22 43C29.5639 43 35.6957 36.8682 35.6957 29.3043C35.6957 21.7404 29.5639 15.6087 22 15.6087ZM22 15.6087V22.913M22 22.913C18.4702 22.913 15.6087 25.7745 15.6087 29.3043C15.6087 32.8342 18.4702 35.6957 22 35.6957C25.5298 35.6957 28.3913 32.8342 28.3913 29.3043C28.3913 25.7745 25.5298 22.913 22 22.913ZM31.6783 38.9826L26.5196 33.8239M31.6783 19.6261L26.5196 24.7848" stroke="#49B3FF" stroke-width="1.4" stroke-miterlimit="10"/>
</svg>
