<svg width="52" height="52" viewBox="0 0 52 52" fill="none" xmlns="http://www.w3.org/2000/svg">
<path d="M29.9345 40.6812C24.8549 42.0394 19.2184 40.7219 15.2389 36.7424C9.29007 30.7936 9.29007 21.164 15.2389 15.2287C21.1742 9.27988 30.8038 9.27988 36.7526 15.2287C40.7321 19.2082 42.0496 24.8447 40.6914 29.9243M34.1721 44.9187C32.5966 45.6114 30.9396 46.0868 29.2554 46.3584V50.7589C27.1095 51.0577 24.8821 51.0577 22.7225 50.7589V46.3584C19.5987 45.8559 16.5699 44.6335 13.8943 42.6913L10.7705 45.8151C9.91483 45.1632 9.09992 44.4433 8.29859 43.6692C7.51084 42.8814 6.80458 42.0665 6.15265 41.2109L9.27648 38.087C7.33428 35.3978 6.09832 32.3826 5.60938 29.2588H1.22243C0.92363 27.0857 0.92363 24.8855 1.23601 22.7259H5.62296C6.12549 19.6021 7.34786 16.5733 9.29007 13.8977L6.16623 10.7739C6.83175 9.91823 7.538 9.10331 8.31217 8.30198C9.09992 7.51424 9.91483 6.80798 10.7841 6.15605L13.9079 9.27988C16.5835 7.33767 19.5987 6.10172 22.7361 5.61277V1.22583C24.8956 0.927027 27.0823 0.927027 29.2554 1.21225V5.62636C32.3793 6.1153 35.408 7.33767 38.0836 9.29346L41.2075 6.16963C42.0495 6.83514 42.878 7.5414 43.6658 8.31557C44.4535 9.10332 45.1598 9.91823 45.8117 10.7875L42.6879 13.9113C44.6165 16.5869 45.8525 19.6021 46.355 22.7395H50.7555C51.0543 24.899 51.0543 27.0993 50.7555 29.2724H46.355C46.0834 30.9565 45.608 32.6135 44.9153 34.189M46.6402 46.63L44.4671 44.4569M49.7097 43.5605L36.1007 29.9515C36.5896 28.7291 36.8613 27.3845 36.8613 25.9856C36.8613 19.9824 31.999 15.1201 25.9958 15.1201C25.3167 15.1201 24.6647 15.188 24.0264 15.3102C23.456 15.4189 22.9942 15.8263 22.8176 16.3832C22.641 16.9401 22.7904 17.5377 23.2115 17.9451L28.6307 23.3643C29.0245 23.7582 29.269 24.3014 29.269 24.899C29.269 25.4966 29.0245 26.0399 28.6307 26.4338L26.4576 28.6069C26.0637 29.0008 25.5204 29.2452 24.9228 29.2452C24.3252 29.2452 23.7819 29.0008 23.3881 28.6069L17.9689 23.1877C17.5614 22.7803 16.9502 22.6309 16.407 22.7938C15.8501 22.9704 15.4427 23.4322 15.334 24.0026C15.2118 24.641 15.1439 25.3065 15.1439 25.972C15.1439 31.9752 20.0062 36.8375 26.0094 36.8375C27.4083 36.8375 28.7393 36.5659 29.9753 36.0769L43.5843 49.686C44.372 50.4737 45.4586 50.9626 46.6538 50.9626C49.0578 50.9626 51 49.0204 51 46.6164C50.9864 45.4348 50.4975 44.3483 49.7097 43.5605Z" stroke="#49B3FF" stroke-width="2" stroke-miterlimit="10"/>
</svg>
