<svg width="205" height="49" viewBox="0 0 205 49" fill="none" xmlns="http://www.w3.org/2000/svg">
<path d="M60.6 15V19.7H57.7V24H60.6V35.3C60.6 37.4 61.1 38.9 62.2 39.8C63.3 40.7 65 41.2 67.5 41.2C68.5 41.2 69.4 41.1 70.2 41V36.8C69.8 36.9 69.3 36.9 68.8 36.9C67.1 36.9 66.3 36.1 66.3 34.5V24H70.2V19.7H66.3V15H60.6Z" fill="#E61B4A"/>
<path d="M78.9 23.6H78.8V19.8H73.4V41H79V29.1C79 27.6 79.4 26.4 80.2 25.6C81 24.8 82.1 24.3 83.5 24.3C84.3 24.3 85 24.4 85.5 24.6V19.6C85.1 19.5 84.5 19.4 83.9 19.4C81.3 19.5 79.6 20.9 78.9 23.6Z" fill="#E61B4A"/>
<path d="M103.6 21.3C102 20 99.8 19.4 97 19.4C94.3 19.4 92.2 20 90.5 21.3C88.8 22.6 88 24.2 87.9 26.2H93C93.1 25.4 93.5 24.8 94.2 24.3C94.9 23.8 95.7 23.6 96.7 23.6C97.9 23.6 98.8 23.9 99.4 24.4C100.1 25 100.4 25.7 100.4 26.8V28.2L95.1 28.5C92.4 28.7 90.3 29.3 88.9 30.4C87.5 31.5 86.7 33 86.7 34.9C86.7 36.8 87.4 38.3 88.7 39.5C90 40.7 91.7 41.3 93.8 41.3C95.2 41.3 96.5 41 97.6 40.4C98.8 39.8 99.7 38.9 100.3 37.8H100.4V41H105.8V26.4C106.1 24.3 105.2 22.6 103.6 21.3ZM100.5 33.2C100.5 34.3 100 35.3 99.1 36C98.2 36.7 97.1 37.1 95.8 37.1C94.8 37.1 94 36.9 93.3 36.4C92.7 35.9 92.4 35.3 92.4 34.5C92.4 32.9 93.6 32 96 31.9L100.5 31.6V33.2Z" fill="#E61B4A"/>
<path d="M116.9 18.2C116.9 17.5 117.1 16.9 117.5 16.6C117.9 16.3 118.5 16.1 119.3 16.1C119.9 16.1 120.4 16.1 120.8 16.2V12.3C119.9 12.2 119.1 12.1 118.2 12.1C115.7 12.1 114 12.6 112.9 13.5C111.8 14.4 111.3 15.9 111.3 17.9V19.8H108.4V24H111.3V41H116.9V24H120.8V19.7H116.8V18.2H116.9Z" fill="#E61B4A"/>
<path d="M136.5 19.5C133.4 19.5 131.2 20.8 129.9 23.4H129.8V11.8H124.2V41H129.7V37.4H129.8C131 40 133.3 41.3 136.5 41.3C139.2 41.3 141.3 40.3 142.8 38.4C144.3 36.5 145.1 33.8 145.1 30.4C145.1 27 144.3 24.4 142.8 22.4C141.3 20.5 139.2 19.5 136.5 19.5ZM138.1 35C137.2 36.1 136.1 36.7 134.6 36.7C133.2 36.7 132 36.1 131.1 35C130.2 33.9 129.8 32.3 129.8 30.4C129.8 28.5 130.3 27 131.1 25.8C132 24.6 133.2 24.1 134.6 24.1C136.1 24.1 137.2 24.7 138.1 25.8C139 26.9 139.4 28.5 139.4 30.4C139.4 32.3 138.9 33.8 138.1 35Z" fill="#E61B4A"/>
<path d="M162.4 31.9C162.4 33.3 162 34.5 161.2 35.4C160.4 36.3 159.3 36.7 158 36.7C156.7 36.7 155.6 36.3 154.9 35.6C154.1 34.8 153.8 33.7 153.8 32.3V19.8H148.2V33.4C148.2 35.8 148.9 37.8 150.3 39.2C151.7 40.6 153.5 41.3 155.9 41.3C159.2 41.3 161.5 39.9 162.6 37.2H162.7V41H168.1V19.8H162.5V31.9H162.4Z" fill="#E61B4A"/>
<path d="M177.4 23.6H177.3V19.8H171.9V41H177.5V29.1C177.5 27.6 177.9 26.4 178.7 25.6C179.5 24.8 180.6 24.3 182 24.3C182.8 24.3 183.5 24.4 184 24.6V19.6C183.6 19.5 183 19.4 182.4 19.4C179.8 19.5 178.1 20.9 177.4 23.6Z" fill="#E61B4A"/>
<path d="M199.5 19.8V23.4H199.4C198.8 22.2 198 21.3 196.8 20.6C195.6 19.9 194.3 19.5 192.8 19.5C190.1 19.5 188 20.5 186.4 22.4C184.8 24.3 184 27 184 30.3C184 33.5 184.8 36.1 186.4 38C188 39.9 190 40.8 192.7 40.8C194.2 40.8 195.6 40.5 196.8 39.8C198 39.1 198.8 38.2 199.3 37.1H199.4V40.9C199.4 42.1 199 43 198.1 43.7C197.3 44.4 196.1 44.7 194.7 44.7C193.6 44.7 192.6 44.5 191.8 44.1C191 43.7 190.5 43.1 190.3 42.4H184.7C184.8 44.3 185.8 45.8 187.6 47C189.4 48.1 191.7 48.7 194.5 48.7C197.7 48.7 200.3 48 202.1 46.5C204 45 205 43 205 40.5V19.8H199.5ZM198.2 34.9C197.3 36 196.2 36.6 194.7 36.6C193.2 36.6 192.1 36.1 191.2 35C190.3 33.9 189.9 32.4 189.9 30.5C189.9 28.6 190.3 27.1 191.2 25.9C192.1 24.8 193.2 24.2 194.7 24.2C196.2 24.2 197.3 24.8 198.2 25.9C199.1 27 199.5 28.6 199.5 30.5C199.5 32.2 199.1 33.7 198.2 34.9Z" fill="#E61B4A"/>
<path d="M42.4 18.8C40.9 18.8 39.2 19.3 37.4 20.1C37.2 20.2 37 20.3 36.7 20.4C35.8 20.8 34.5 21.6 32.9 22.6V15.7H51.9V0H39.2V5.8H32.8V0H20.1V5.8H14.8V0H2V15.6H20.1V31C18.4 32.1 17.2 33 16.5 33.3C14.3 34.5 12.4 35.4 11.5 35.4C8.7 35.4 6.5 33.1 6.5 30.4C6.5 27.6 8.8 25.4 11.5 25.4C11.7 25.4 13 25.5 16.5 27.5V20.2C14 19.1 12.5 18.9 11.5 18.9C5.2 18.8 0 24 0 30.4C0 36.8 5.2 42 11.6 42C13.1 42 14.8 41.5 16.6 40.7C17.5 40.3 18.7 39.6 20.2 38.7C24 36.4 29.2 32.8 32.9 30.3C34.7 29.1 36.1 28.2 36.7 27.8C36.9 27.7 37.2 27.5 37.4 27.4C39.6 26.2 41.5 25.3 42.4 25.3C45.2 25.3 47.4 27.6 47.4 30.3C47.4 33.1 45.1 35.3 42.4 35.3C42.3 35.3 41.9 35.3 40.9 34.9C40.1 34.6 39 34.1 37.4 33.2V40.5C38.9 41.2 40 41.5 40.9 41.6C41.5 41.7 42 41.7 42.4 41.7C48.8 41.7 54 36.5 54 30.1C53.9 24 48.7 18.8 42.4 18.8Z" fill="#E61B4A"/>
<path d="M20.2 48.7H32.9V34.3C28 37.6 23.4 40.7 20.2 42.5V48.7Z" fill="#E61B4A"/>
</svg>
