<svg width="26" height="25" viewBox="0 0 26 25" fill="none" xmlns="http://www.w3.org/2000/svg">
<circle cx="12.9872" cy="12.5" r="12.5" fill="white"/>
<mask id="mask0" mask-type="alpha" maskUnits="userSpaceOnUse" x="0" y="0" width="26" height="25">
<circle cx="12.9872" cy="12.5" r="12.5" fill="white"/>
</mask>
<g mask="url(#mask0)">
<rect x="-14.2861" y="-7.95502" width="59.6591" height="21.0227" fill="#E61B4A"/>
<path d="M0.105957 12.1195C0.105957 19.2454 5.89408 25.0467 13.02 25.0467C20.1458 25.0467 25.934 19.2454 25.934 12.1195C25.934 5.24528 20.5564 -0.383896 13.7882 -0.78125H12.2517C5.48348 -0.383896 0.105957 5.24528 0.105957 12.1195Z" fill="#00247D"/>
<path d="M1.29858 6.70185L9.94765 12.0131V7.15218L3.62973 3.25812C2.67608 4.26475 1.89461 5.43032 1.29858 6.70185Z" fill="white"/>
<path d="M1.60303 6.07926L9.94745 11.2051V9.77465L2.22555 5.0329C2.00038 5.37727 1.8017 5.72164 1.60303 6.07926Z" fill="#CF142B"/>
<path d="M1.60303 18.1464C2.26528 19.3914 3.11297 20.504 4.1196 21.4709L9.94745 17.8815V13.0205L1.60303 18.1464Z" fill="white"/>
<path d="M3.61618 20.967L9.94735 17.0729V15.6425L2.80823 20.0266C3.05988 20.3577 3.33803 20.6756 3.61618 20.967Z" fill="#CF142B"/>
<path d="M22.542 3.39056L16.436 7.13893V11.9999L24.8202 6.84754C24.2374 5.58925 23.4692 4.41044 22.542 3.39056Z" fill="white"/>
<path d="M22.9924 3.92133L16.436 7.94784V9.37832L23.7341 4.90147C23.4957 4.55709 23.2573 4.23921 22.9924 3.92133Z" fill="#CF142B"/>
<path d="M24.5288 17.9874L16.436 13.0205V17.8815L22.0652 21.3384C23.0454 20.3716 23.8798 19.2457 24.5288 17.9874Z" fill="white"/>
<path d="M24.1977 18.5961L16.436 13.8278V15.2583L23.5354 19.6159C23.7738 19.2848 23.9858 18.9404 24.1977 18.5961Z" fill="#CF142B"/>
<path d="M0.106079 12.1201C0.106079 13.2857 0.265021 14.4115 0.556413 15.4976L25.4837 15.5108C25.7751 14.4247 25.9341 13.2989 25.9341 12.1201C25.9341 11.2327 25.8414 10.3717 25.6692 9.53729L0.370982 9.52405C0.198795 10.3585 0.106079 11.2327 0.106079 12.1201Z" fill="white"/>
<path d="M12.2528 -0.78125C11.3786 -0.728269 10.5309 -0.582573 9.70972 -0.370651V24.6097C10.7693 24.8878 11.8819 25.0467 13.021 25.0467C14.2793 25.0467 15.4978 24.8613 16.6502 24.5302V-0.277935C15.7362 -0.542838 14.7826 -0.715024 13.8025 -0.78125H12.2528Z" fill="white"/>
<path d="M11.0334 24.8878C11.6825 24.9938 12.3447 25.0467 13.0202 25.0467C13.7752 25.0467 14.5037 24.9805 15.2189 24.8613V-0.609063C14.7553 -0.688534 14.2785 -0.741515 13.8017 -0.78125H12.252C11.8414 -0.75476 11.4308 -0.715024 11.0334 -0.648799V24.8878Z" fill="#CF142B"/>
<path d="M0.106079 12.119C0.106079 12.8474 0.172305 13.5627 0.278266 14.2514H25.7486C25.8678 13.5627 25.9208 12.8474 25.9208 12.119C25.9208 11.6289 25.8943 11.1388 25.8414 10.6487H0.18555C0.132569 11.1388 0.106079 11.6289 0.106079 12.119Z" fill="#CF142B"/>
</g>
</svg>
