<svg width="53" height="53" viewBox="0 0 53 53" fill="none" xmlns="http://www.w3.org/2000/svg">
<path d="M6.54348 32.0435V20.9565C6.54348 9.98043 15.5239 1 26.5 1C37.4761 1 46.4565 9.98043 46.4565 20.9565V32.0435M46.4565 33.1522H49.7826C51.0022 33.1522 52 32.1543 52 30.9348V24.2826C52 23.063 51.0022 22.0652 49.7826 22.0652H46.4565V33.1522ZM46.4565 33.1522V35.3696C46.4565 39.6935 43.0196 43.1304 38.6957 43.1304H29.8261M29.8261 43.1304C29.8261 44.9674 28.3369 46.4565 26.5 46.4565C24.6631 46.4565 23.1739 44.9674 23.1739 43.1304C23.1739 41.2935 24.6631 39.8043 26.5 39.8043C28.3369 39.8043 29.8261 41.2935 29.8261 43.1304ZM6.54348 33.1522H3.21739C1.99783 33.1522 1 32.1543 1 30.9348V24.2826C1 23.063 1.99783 22.0652 3.21739 22.0652H6.54348V33.1522ZM32.0435 14.3043C32.0435 20.4022 27.0543 25.3913 20.9565 25.3913H10.9783V36.4783C10.9783 45.0152 17.963 52 26.5 52C35.037 52 42.0217 45.0152 42.0217 36.4783V25.2804C36.3674 24.7261 32.0435 20.0696 32.0435 14.3043Z" stroke="#49B3FF" stroke-width="2" stroke-miterlimit="10"/>
</svg>
