<svg width="70" height="92" viewBox="0 0 70 92" fill="none" xmlns="http://www.w3.org/2000/svg">
<path d="M53.652 58.3392C52.3857 58.3392 51.1633 58.4975 49.9849 58.7701C45.5088 52.3417 38.5704 48.1734 30.9108 47.206C42.3606 45.5176 51.1897 35.6508 51.1897 23.7437C51.1897 10.6495 40.5402 0 27.446 0C14.3518 0 3.70226 10.6495 3.70226 23.7437C3.70226 35.6859 12.5666 45.5616 24.0603 47.2148C10.5264 48.8857 0 60.441 0 74.4322V88.7487C0 90.0239 1.02889 91.0528 2.30402 91.0528C3.57915 91.0528 4.60804 90.0239 4.60804 88.7487V74.4322C4.60804 61.8392 14.853 51.5942 27.446 51.5942C34.5691 51.5942 41.2261 54.9008 45.544 60.5025C40.6194 63.3254 37.2864 68.6193 37.2864 74.696C37.2864 83.7186 44.6206 91.0528 53.6432 91.0528C62.6658 91.0528 70 83.7186 70 74.696C70 65.6734 62.6658 58.3392 53.652 58.3392ZM8.3191 23.7437C8.3191 13.191 16.902 4.61683 27.446 4.61683C37.99 4.61683 46.5817 13.191 46.5817 23.7437C46.5817 34.2965 37.9987 42.8706 27.4548 42.8706C16.9108 42.8706 8.3191 34.2877 8.3191 23.7437ZM53.652 86.4359C47.1709 86.4359 41.9033 81.1683 41.9033 74.6872C41.9033 68.206 47.1709 62.9384 53.652 62.9384C60.1332 62.9384 65.4008 68.206 65.4008 74.6872C65.4008 81.1683 60.1244 86.4359 53.652 86.4359Z" fill="#2ECB76"/>
<path d="M59.3505 68.9799L52.7199 75.2148L51.559 73.544C50.8379 72.4975 49.3957 72.2337 48.3492 72.9636C47.3028 73.6847 47.0389 75.1269 47.7688 76.1734L50.451 80.0515C50.8291 80.6055 51.4359 80.9573 52.1043 81.0276C52.1834 81.0364 52.2626 81.0364 52.3417 81.0364C52.9221 81.0364 53.4937 80.8166 53.9246 80.4121L62.5075 72.348C63.4309 71.4774 63.4837 70.0176 62.6043 69.0854C61.7425 68.1533 60.2827 68.1093 59.3505 68.9799Z" fill="#2ECB76"/>
</svg>
