<svg width="20" height="12" viewBox="0 0 20 12" fill="none" xmlns="http://www.w3.org/2000/svg">
<path d="M19.8951 10.4788C19.8696 10.4269 19.8477 10.3824 19.8258 10.3453C19.4793 9.71136 18.8155 8.9291 17.8381 8.00595L17.8162 7.98371L17.8053 7.97258L17.7943 7.96146H17.7834C17.3385 7.5314 17.0576 7.24222 16.9409 7.09393C16.7257 6.81216 16.6783 6.52669 16.795 6.23752C16.8789 6.01878 17.1926 5.55535 17.7323 4.85094C18.0168 4.47649 18.2429 4.17619 18.4107 3.95004C19.6106 2.3262 20.1322 1.28812 19.9717 0.839523L19.9097 0.735715C19.8696 0.672689 19.7601 0.613371 19.5887 0.561467C19.4137 0.509563 19.1912 0.498441 18.9213 0.535515L15.9234 0.55776C15.876 0.539223 15.8067 0.54293 15.7155 0.561467C15.6243 0.583712 15.5805 0.594834 15.5805 0.594834L15.5295 0.620786L15.4894 0.654152C15.4529 0.676397 15.4164 0.713471 15.3763 0.765375C15.3362 0.817279 15.2997 0.880305 15.2742 0.950745C14.9459 1.80345 14.5776 2.59684 14.1582 3.3309C13.9029 3.76838 13.6658 4.14654 13.4506 4.46908C13.2354 4.79163 13.0567 5.02519 12.9108 5.1772C12.765 5.3292 12.6337 5.45154 12.5133 5.54052C12.3966 5.63321 12.3054 5.67028 12.2434 5.65545C12.1814 5.64062 12.1231 5.62579 12.0647 5.61467C11.9662 5.55164 11.8896 5.46637 11.8313 5.35515C11.7729 5.24393 11.7328 5.10675 11.7109 4.94363C11.689 4.77679 11.6781 4.63591 11.6745 4.51357C11.6708 4.39493 11.6745 4.22439 11.6781 4.00565C11.6854 3.78692 11.689 3.63862 11.689 3.56076C11.689 3.29383 11.6927 3.00094 11.7036 2.68581C11.7146 2.37068 11.7219 2.12229 11.7292 1.94062C11.7365 1.75896 11.7401 1.56247 11.7401 1.35856C11.7401 1.15465 11.7292 0.995234 11.7036 0.876597C11.6781 0.761667 11.6416 0.646738 11.5942 0.539223C11.5468 0.431708 11.4739 0.346437 11.379 0.283411C11.2842 0.224092 11.1675 0.175896 11.0289 0.138822C10.6606 0.0535515 10.1937 0.00906256 9.62477 0.00164774C8.33369 -0.0131819 7.50579 0.0720886 7.13743 0.257459C6.99155 0.335315 6.86025 0.439122 6.74354 0.576297C6.61954 0.732008 6.6013 0.817278 6.69248 0.832108C7.10825 0.895134 7.40367 1.04714 7.57873 1.28812L7.64074 1.41417C7.68815 1.50686 7.73921 1.66998 7.78662 1.89984C7.83403 2.13341 7.86686 2.38922 7.88145 2.67098C7.91427 3.18632 7.91427 3.6275 7.88145 3.99453C7.84497 4.36157 7.81215 4.64704 7.78297 4.85094C7.75015 5.05485 7.70638 5.22168 7.64074 5.34774C7.57873 5.47379 7.53497 5.55164 7.51673 5.5813C7.49485 5.61096 7.48026 5.62579 7.46567 5.63321C7.37449 5.66657 7.28332 5.68511 7.18484 5.68511C7.08637 5.68511 6.96966 5.63691 6.83107 5.53681C6.69248 5.43671 6.5466 5.30325 6.40071 5.129C6.25118 4.95475 6.08341 4.71377 5.89376 4.40235C5.70776 4.09092 5.51081 3.72389 5.31022 3.30125L5.14245 2.99353C5.03668 2.79704 4.89445 2.50786 4.71574 2.1297C4.53338 1.75155 4.37655 1.38822 4.23796 1.03231C4.18326 0.884012 4.09937 0.77279 3.98631 0.694934L3.93525 0.661567C3.90243 0.631908 3.84407 0.602249 3.76748 0.572589C3.69089 0.539223 3.61066 0.516978 3.52677 0.502148L0.674719 0.524393C0.382949 0.524393 0.186004 0.591126 0.0802368 0.724593L0.0401184 0.787619C0.0109414 0.835816 0 0.891427 0 0.969282C0 1.04714 0.0218828 1.14353 0.0620012 1.25475C0.477774 2.25205 0.933665 3.20856 1.42238 4.13541C1.9111 5.06227 2.33781 5.80375 2.69888 6.36728C3.05994 6.9308 3.4283 7.46467 3.80396 7.96517C4.17961 8.46567 4.42761 8.78822 4.54797 8.9291C4.66832 9.06998 4.7668 9.17749 4.83609 9.24793L5.09504 9.50375C5.26281 9.67429 5.50716 9.87449 5.82811 10.1118C6.15271 10.349 6.51012 10.5826 6.90037 10.8125C7.29426 11.0423 7.75015 11.2277 8.26804 11.3723C8.78958 11.5169 9.29653 11.5762 9.78889 11.5465H10.9852C11.2295 11.5243 11.4119 11.4464 11.5359 11.313L11.576 11.2611C11.6052 11.2203 11.6307 11.1535 11.6526 11.0646C11.6781 10.9756 11.689 10.8792 11.689 10.7717C11.6818 10.4677 11.7036 10.1933 11.7583 9.95234C11.8094 9.70765 11.8678 9.52599 11.9371 9.40365C12.0027 9.2813 12.0793 9.17749 12.1595 9.09222C12.2434 9.00695 12.3018 8.95505 12.3382 8.94022C12.3711 8.92168 12.4002 8.91056 12.4221 8.90314C12.5899 8.84753 12.7832 8.90314 13.0093 9.06627C13.2354 9.2331 13.447 9.43701 13.6439 9.6817C13.8409 9.92639 14.0779 10.197 14.3587 10.501C14.6359 10.805 14.8803 11.0312 15.0882 11.1795L15.2961 11.3055C15.4346 11.3908 15.617 11.4687 15.8395 11.5391C16.062 11.6096 16.2553 11.6281 16.423 11.591L19.0891 11.5502C19.3517 11.5502 19.5596 11.5057 19.7018 11.4168C19.8477 11.3278 19.9352 11.2314 19.9607 11.1239C19.9899 11.0164 19.9899 10.8977 19.9644 10.7643C19.9425 10.6271 19.917 10.5344 19.8951 10.4788Z" fill="white"/>
</svg>
