<svg width="32" height="32" viewBox="0 0 32 32" fill="none" xmlns="http://www.w3.org/2000/svg">
<path d="M15.9996 1.77756C13.1867 1.77756 10.437 2.61168 8.09813 4.17443C5.7593 5.73719 3.9364 7.9584 2.85995 10.5572C1.78351 13.1559 1.50186 16.0156 2.05063 18.7744C2.59939 21.5332 3.95393 24.0674 5.94294 26.0564C7.93196 28.0454 10.4661 29.4 13.225 29.9487C15.9838 30.4975 18.8434 30.2158 21.4422 29.1394C24.041 28.063 26.2622 26.2401 27.8249 23.9012C29.3877 21.5624 30.2218 18.8127 30.2218 15.9998C30.2218 12.2278 28.7234 8.61033 26.0562 5.94315C23.389 3.27597 19.7715 1.77756 15.9996 1.77756ZM23.1107 21.422C23.3464 21.6578 23.4789 21.9775 23.4789 22.3109C23.4789 22.6443 23.3464 22.964 23.1107 23.1998C22.8749 23.4355 22.5552 23.568 22.2218 23.568C21.8884 23.568 21.5687 23.4355 21.3329 23.1998L15.9996 17.8664L10.6662 23.2176C10.5495 23.3343 10.4109 23.4269 10.2584 23.4901C10.1059 23.5532 9.94243 23.5857 9.77735 23.5857C9.61227 23.5857 9.4488 23.5532 9.29629 23.4901C9.14377 23.4269 9.00519 23.3343 8.88846 23.2176C8.77173 23.1008 8.67913 22.9622 8.61596 22.8097C8.55279 22.6572 8.52027 22.4938 8.52027 22.3287C8.52027 22.1636 8.55279 22.0001 8.61596 21.8476C8.67913 21.6951 8.77173 21.5565 8.88846 21.4398L14.2218 16.0709L8.73735 10.542C8.5016 10.3063 8.36916 9.98651 8.36916 9.65311C8.36916 9.31971 8.5016 8.99997 8.73735 8.76422C8.9731 8.52848 9.29284 8.39603 9.62624 8.39603C9.95964 8.39603 10.2794 8.52848 10.5151 8.76422L15.9996 14.3109L21.484 8.82645C21.6007 8.70972 21.7393 8.61712 21.8918 8.55395C22.0444 8.49077 22.2078 8.45826 22.3729 8.45826C22.538 8.45826 22.7015 8.49077 22.854 8.55395C23.0065 8.61712 23.1451 8.70972 23.2618 8.82645C23.3785 8.94318 23.4711 9.08176 23.5343 9.23427C23.5975 9.38679 23.63 9.55025 23.63 9.71534C23.63 9.88042 23.5975 10.0439 23.5343 10.1964C23.4711 10.3489 23.3785 10.4875 23.2618 10.6042L17.7774 16.0709L23.1107 21.422Z" fill="#FB0045"/>
</svg>
