<svg width="32" height="32" viewBox="0 0 32 32" fill="none" xmlns="http://www.w3.org/2000/svg">
<path d="M15.9996 1.77777C13.1867 1.77777 10.437 2.61189 8.09813 4.17465C5.7593 5.73741 3.9364 7.95861 2.85995 10.5574C1.78351 13.1562 1.50186 16.0158 2.05063 18.7746C2.59939 21.5335 3.95393 24.0676 5.94294 26.0566C7.93196 28.0456 10.4661 29.4002 13.225 29.9489C15.9838 30.4977 18.8434 30.2161 21.4422 29.1396C24.041 28.0632 26.2622 26.2403 27.8249 23.9014C29.3877 21.5626 30.2218 18.8129 30.2218 16C30.2218 12.228 28.7234 8.61055 26.0562 5.94336C23.389 3.27618 19.7715 1.77777 15.9996 1.77777ZM25.2885 11.2267L13.6085 22.8978L6.71068 16C6.47494 15.7642 6.34249 15.4445 6.34249 15.1111C6.34249 14.7777 6.47494 14.458 6.71068 14.2222C6.94643 13.9865 7.26617 13.854 7.59957 13.854C7.93297 13.854 8.25271 13.9865 8.48846 14.2222L13.6262 19.36L23.5285 9.46666C23.6452 9.34993 23.7838 9.25733 23.9363 9.19416C24.0888 9.13099 24.2523 9.09847 24.4174 9.09847C24.5824 9.09847 24.7459 9.13099 24.8984 9.19416C25.0509 9.25733 25.1895 9.34993 25.3062 9.46666C25.423 9.58339 25.5156 9.72197 25.5787 9.87449C25.6419 10.027 25.6744 10.1905 25.6744 10.3555C25.6744 10.5206 25.6419 10.6841 25.5787 10.8366C25.5156 10.9891 25.423 11.1277 25.3062 11.2444L25.2885 11.2267Z" fill="#16FFAC"/>
</svg>
