<svg width="14" height="10" viewBox="0 0 14 10" fill="none" xmlns="http://www.w3.org/2000/svg">
    <path fill-rule="evenodd" clip-rule="evenodd"
          d="M8.29697e-05 4.99999C8.29697e-05 4.86738 0.0527611 4.74021 0.146529 4.64644C0.240297 4.55267 0.367475 4.49999 0.500083 4.49999H12.2931L9.14608 1.35399C9.0996 1.3075 9.06272 1.25231 9.03756 1.19157C9.0124 1.13083 8.99945 1.06573 8.99945 0.999991C8.99945 0.934247 9.0124 0.869147 9.03756 0.808407C9.06272 0.747668 9.0996 0.692479 9.14608 0.645991C9.19257 0.599503 9.24776 0.562627 9.3085 0.537467C9.36924 0.512308 9.43434 0.499359 9.50008 0.499359C9.56583 0.499359 9.63093 0.512308 9.69167 0.537467C9.75241 0.562627 9.8076 0.599503 9.85408 0.645991L13.8541 4.64599C13.9006 4.69244 13.9376 4.74761 13.9628 4.80836C13.988 4.8691 14.001 4.93422 14.001 4.99999C14.001 5.06576 13.988 5.13088 13.9628 5.19162C13.9376 5.25237 13.9006 5.30754 13.8541 5.35399L9.85408 9.35399C9.8076 9.40048 9.75241 9.43736 9.69167 9.46251C9.63093 9.48767 9.56583 9.50062 9.50008 9.50062C9.43434 9.50062 9.36924 9.48767 9.3085 9.46251C9.24776 9.43736 9.19257 9.40048 9.14608 9.35399C9.0996 9.3075 9.06272 9.25231 9.03756 9.19157C9.0124 9.13083 8.99945 9.06573 8.99945 8.99999C8.99945 8.93425 9.0124 8.86915 9.03756 8.80841C9.06272 8.74767 9.0996 8.69248 9.14608 8.64599L12.2931 5.49999H0.500083C0.367475 5.49999 0.240297 5.44731 0.146529 5.35354C0.0527611 5.25978 8.29697e-05 5.1326 8.29697e-05 4.99999Z"
          fill="white"/>
</svg>
