<svg width="25" height="25" viewBox="0 0 25 25" fill="none" xmlns="http://www.w3.org/2000/svg">
<path d="M12.3462 16.1377C12.3645 16.161 12.3878 16.1799 12.4145 16.1929C12.4411 16.2059 12.4704 16.2126 12.5 16.2126C12.5296 16.2126 12.5589 16.2059 12.5855 16.1929C12.6122 16.1799 12.6355 16.161 12.6538 16.1377L15.3882 12.6782C15.4883 12.5513 15.3979 12.3633 15.2344 12.3633H13.4253V4.10156C13.4253 3.99414 13.3374 3.90625 13.23 3.90625H11.7651C11.6577 3.90625 11.5698 3.99414 11.5698 4.10156V12.3608H9.76562C9.60205 12.3608 9.51172 12.5488 9.61182 12.6758L12.3462 16.1377ZM21.4355 15.2832H19.9707C19.8633 15.2832 19.7754 15.3711 19.7754 15.4785V19.2383H5.22461V15.4785C5.22461 15.3711 5.13672 15.2832 5.0293 15.2832H3.56445C3.45703 15.2832 3.36914 15.3711 3.36914 15.4785V20.3125C3.36914 20.7446 3.71826 21.0938 4.15039 21.0938H20.8496C21.2817 21.0938 21.6309 20.7446 21.6309 20.3125V15.4785C21.6309 15.3711 21.543 15.2832 21.4355 15.2832Z" fill="white"/>
</svg>
