<svg width="60" height="60" viewBox="0 0 60 60" fill="none" xmlns="http://www.w3.org/2000/svg">
<g clip-path="url(#clip0_270_110298)">
<path d="M49.1071 24.5981V35.5585H12.8826C10.822 35.5585 9.15088 33.8874 9.15088 31.8256V26.7618C9.15088 26.075 9.33642 25.4299 9.66323 24.877C10.3095 23.7724 11.51 23.0303 12.8825 23.0303H47.5404C48.4055 23.0301 49.1071 23.7318 49.1071 24.5981Z" fill="#00639B"/>
<path d="M49.1071 28.4686V39.4291H12.8826C10.822 39.4291 9.15088 37.7579 9.15088 35.6962V30.6325C9.15088 29.9457 9.33642 29.3006 9.66323 28.7476C10.3095 27.6431 11.51 26.9009 12.8825 26.9009H47.5404C48.4055 26.9007 49.1071 27.6024 49.1071 28.4686Z" fill="#6DCBFF"/>
<path d="M47.5268 10.0073C47.5268 15.5352 43.0464 20.0157 37.5184 20.0157C37.1166 20.0157 36.7208 19.9923 36.3324 19.9453C35.0688 19.7963 33.8765 19.4118 32.8024 18.8365C31.8193 18.3103 30.934 17.6249 30.1833 16.814C28.6923 15.2096 27.7232 13.1158 27.5427 10.7996C27.5214 10.5385 27.5112 10.2744 27.5112 10.0072C27.511 4.48042 31.9914 0 37.5183 0C37.7856 0 38.0498 0.0101953 38.3107 0.0315234C40.627 0.211992 42.7208 1.18102 44.3251 2.67211C45.136 3.42269 45.8214 4.30804 46.3477 5.29113C46.9229 6.36503 47.3074 7.55739 47.4564 8.82104C47.5032 9.20974 47.5268 9.60652 47.5268 10.0073Z" fill="#3C3F4B"/>
<path d="M37.5177 14.6547C35.8335 14.6547 34.4634 13.463 34.4634 11.9984C34.4634 11.6303 34.7616 11.332 35.1296 11.332C35.4977 11.332 35.7959 11.6303 35.7959 11.9984C35.7959 12.7283 36.5683 13.3221 37.5178 13.3221C38.4673 13.3221 39.2397 12.7283 39.2397 11.9984C39.2397 11.2685 38.4673 10.6746 37.5178 10.6746C35.8336 10.6746 34.4634 9.48293 34.4634 8.01822C34.4634 6.55357 35.8337 5.36182 37.5178 5.36182C39.202 5.36182 40.5722 6.5535 40.5722 8.01822C40.5722 8.38624 40.274 8.68454 39.9059 8.68454C39.5379 8.68454 39.2396 8.38624 39.2396 8.01822C39.2396 7.28824 38.4673 6.69437 37.5177 6.69437C36.5682 6.69437 35.7958 7.28817 35.7958 8.01815C35.7958 8.74813 36.5682 9.34194 37.5177 9.34194C39.2019 9.34194 40.5721 10.5336 40.5721 11.9982C40.5721 13.463 39.2019 14.6547 37.5177 14.6547Z" fill="#219FE6"/>
<path d="M37.5181 15.4505C37.15 15.4505 36.8518 15.1522 36.8518 14.7842V5.23172C36.8518 4.86375 37.15 4.56543 37.5181 4.56543C37.8861 4.56543 38.1843 4.86375 38.1843 5.23172V14.7842C38.1843 15.1522 37.8861 15.4505 37.5181 15.4505Z" fill="#219FE6"/>
<path d="M33.7317 21.9865C33.7317 27.5143 29.2512 31.9949 23.7233 31.9949C23.3215 31.9949 22.9257 31.9714 22.5372 31.9244C21.2737 31.7755 20.0813 31.391 19.0073 30.8157C18.0241 30.2894 17.1389 29.604 16.3882 28.7932C14.8971 27.1887 13.9281 25.095 13.7476 22.7787C13.7263 22.5177 13.7161 22.2535 13.7161 21.9864C13.7161 16.4594 18.1965 11.979 23.7234 11.979C23.9907 11.979 24.2549 11.9892 24.5159 12.0106C26.8321 12.191 28.9259 13.16 30.5302 14.6512C31.3411 15.4017 32.0265 16.2871 32.5528 17.2702C33.128 18.344 33.5125 19.5365 33.6615 20.8C33.7083 21.1889 33.7317 21.5857 33.7317 21.9865Z" fill="#3C3F4B"/>
<path d="M23.7236 26.8379C21.9652 26.8379 20.5347 25.5938 20.5347 24.0645C20.5347 23.6803 20.8461 23.3689 21.2303 23.3689C21.6146 23.3689 21.926 23.6803 21.926 24.0645C21.926 24.8266 22.7324 25.4467 23.7237 25.4467C24.715 25.4467 25.5215 24.8266 25.5215 24.0645C25.5215 23.3024 24.715 22.6824 23.7237 22.6824C21.9653 22.6824 20.5348 21.4383 20.5348 19.9091C20.5348 18.38 21.9653 17.1357 23.7237 17.1357C25.4821 17.1357 26.9126 18.38 26.9126 19.9091C26.9126 20.2933 26.6013 20.6047 26.217 20.6047C25.8327 20.6047 25.5213 20.2933 25.5213 19.9091C25.5213 19.1469 24.715 18.527 23.7236 18.527C22.7322 18.527 21.9259 19.147 21.9259 19.9091C21.9259 20.6712 22.7322 21.2912 23.7236 21.2912C25.482 21.2912 26.9125 22.5354 26.9125 24.0645C26.9125 25.5937 25.482 26.8379 23.7236 26.8379Z" fill="#219FE6"/>
<path d="M23.7242 27.6687C23.34 27.6687 23.0286 27.3572 23.0286 26.973V16.9998C23.0286 16.6157 23.34 16.3042 23.7242 16.3042C24.1085 16.3042 24.4198 16.6157 24.4198 16.9998V26.973C24.4198 27.3572 24.1085 27.6687 23.7242 27.6687Z" fill="#219FE6"/>
<path d="M49.1075 32.7412V57.7533C49.1075 58.994 48.1014 60.0001 46.8607 60.0001H12.8833C10.8231 60.0001 9.1521 58.3291 9.1521 56.2679V26.7622C9.1521 28.8234 10.8231 30.4944 12.8833 30.4944H46.8607C48.1015 30.4944 49.1075 31.5006 49.1075 32.7412Z" fill="url(#paint0_linear_270_110298)"/>
<path d="M42.653 49.1404H49.221C50.1201 49.1404 50.8489 48.4115 50.8489 47.5124V41.5479C50.8489 40.6489 50.1201 39.9199 49.221 39.9199H42.653C40.1068 39.9199 38.0427 41.984 38.0427 44.5302C38.0427 47.0762 40.107 49.1404 42.653 49.1404Z" fill="#219FE6"/>
<path d="M42.5506 46.3741C43.5691 46.3741 44.3949 45.5484 44.3949 44.5298C44.3949 43.5113 43.5691 42.6855 42.5506 42.6855C41.532 42.6855 40.7063 43.5113 40.7063 44.5298C40.7063 45.5484 41.532 46.3741 42.5506 46.3741Z" fill="white"/>
<path d="M17.5293 10.2525C17.0202 10.2525 16.6077 9.83998 16.6077 9.33102V4.6618C16.6077 4.15285 17.0202 3.74023 17.5293 3.74023C18.0383 3.74023 18.4508 4.15285 18.4508 4.6618V9.33102C18.4508 9.83998 18.0383 10.2525 17.5293 10.2525Z" fill="#219FE6"/>
<path d="M22.1364 8.40928C21.6273 8.40928 21.2148 7.99671 21.2148 7.48775V2.81853C21.2148 2.30959 21.6273 1.89697 22.1364 1.89697C22.6455 1.89697 23.058 2.30959 23.058 2.81853V7.48775C23.058 7.99671 22.6453 8.40928 22.1364 8.40928Z" fill="#219FE6"/>
</g>
<defs>
<linearGradient id="paint0_linear_270_110298" x1="9.13045" y1="43.6956" x2="48.9131" y2="43.6956" gradientUnits="userSpaceOnUse">
<stop stop-color="#219FE6"/>
<stop offset="0.1875" stop-color="#219FE5"/>
<stop offset="1" stop-color="#21C2E6"/>
</linearGradient>
<clipPath id="clip0_270_110298">
<rect width="60" height="60" fill="white"/>
</clipPath>
</defs>
</svg>
