<svg width="320" height="106" viewBox="0 0 320 106" fill="none" xmlns="http://www.w3.org/2000/svg">
<g filter="url(#filter0_d_270_110318)">
<rect x="22" y="33" width="275" height="40" rx="20" fill="#3C3F4B"/>
<rect x="22.5" y="33.5" width="274" height="39" rx="19.5" stroke="url(#paint0_linear_270_110318)"/>
</g>
<circle cx="277" cy="53" r="15" fill="#219FE6"/>
<path d="M274.333 47.6668V55.6668C274.333 56.0205 274.474 56.3596 274.724 56.6096C274.974 56.8597 275.313 57.0002 275.667 57.0002H281C281.354 57.0002 281.693 56.8597 281.943 56.6096C282.193 56.3596 282.333 56.0205 282.333 55.6668V49.8282C282.333 49.6505 282.298 49.4747 282.229 49.311C282.16 49.1473 282.059 48.999 281.932 48.8748L279.722 46.7135C279.473 46.4699 279.139 46.3335 278.79 46.3335H275.667C275.313 46.3335 274.974 46.474 274.724 46.724C274.474 46.9741 274.333 47.3132 274.333 47.6668V47.6668Z" stroke="white" stroke-width="1.33333" stroke-linecap="round" stroke-linejoin="round"/>
<path d="M279.667 57.0003V58.3337C279.667 58.6873 279.526 59.0264 279.276 59.2765C279.026 59.5265 278.687 59.667 278.333 59.667H273C272.646 59.667 272.307 59.5265 272.057 59.2765C271.807 59.0264 271.667 58.6873 271.667 58.3337V51.0003C271.667 50.6467 271.807 50.3076 272.057 50.0575C272.307 49.8075 272.646 49.667 273 49.667H274.333" stroke="white" stroke-width="1.33333" stroke-linecap="round" stroke-linejoin="round"/>
<rect x="42" y="50" width="100" height="6" rx="3" fill="#FAFAFA" fill-opacity="0.2"/>
<defs>
<filter id="filter0_d_270_110318" x="-11" y="0" width="341" height="106" filterUnits="userSpaceOnUse" color-interpolation-filters="sRGB">
<feFlood flood-opacity="0" result="BackgroundImageFix"/>
<feColorMatrix in="SourceAlpha" type="matrix" values="0 0 0 0 0 0 0 0 0 0 0 0 0 0 0 0 0 0 127 0" result="hardAlpha"/>
<feOffset/>
<feGaussianBlur stdDeviation="16.5"/>
<feComposite in2="hardAlpha" operator="out"/>
<feColorMatrix type="matrix" values="0 0 0 0 0.152941 0 0 0 0 0.419608 0 0 0 0 0.572549 0 0 0 0.44 0"/>
<feBlend mode="normal" in2="BackgroundImageFix" result="effect1_dropShadow_270_110318"/>
<feBlend mode="normal" in="SourceGraphic" in2="effect1_dropShadow_270_110318" result="shape"/>
</filter>
<linearGradient id="paint0_linear_270_110318" x1="297" y1="53" x2="22" y2="53" gradientUnits="userSpaceOnUse">
<stop stop-color="#3A9FDB"/>
<stop offset="1" stop-color="#219FE6"/>
</linearGradient>
</defs>
</svg>
