<svg width="80" height="65" viewBox="0 0 80 65" fill="none" xmlns="http://www.w3.org/2000/svg">
<path d="M40 27V35M40 27L51 19.5M40 27L29 19.5" stroke="#219FE6" stroke-width="2"/>
<circle cx="65" cy="15" r="15" fill="#219FE6"/>
<path d="M60 22H70V19.5C69.9989 18.5721 69.6299 17.6824 68.9737 17.0263C68.3176 16.3701 67.4279 16.0011 66.5 16H63.5C62.5721 16.0011 61.6824 16.3701 61.0263 17.0263C60.3701 17.6824 60.0011 18.5721 60 19.5V22Z" fill="white"/>
<path d="M61.5 11.5C61.5 12.1922 61.7053 12.8689 62.0899 13.4445C62.4744 14.0201 63.0211 14.4687 63.6606 14.7336C64.3001 14.9985 65.0039 15.0678 65.6828 14.9327C66.3618 14.7977 66.9854 14.4644 67.4749 13.9749C67.9644 13.4854 68.2977 12.8617 68.4327 12.1828C68.5678 11.5039 68.4985 10.8001 68.2336 10.1606C67.9687 9.52107 67.5201 8.97444 66.9445 8.58986C66.3689 8.20527 65.6922 8 65 8C64.0717 8 63.1815 8.36875 62.5251 9.02513C61.8687 9.6815 61.5 10.5717 61.5 11.5Z" fill="white"/>
<circle cx="40" cy="50" r="15" fill="#219FE6"/>
<path d="M35 57H45V54.5C44.9989 53.5721 44.6299 52.6824 43.9737 52.0263C43.3176 51.3701 42.4279 51.0011 41.5 51H38.5C37.5721 51.0011 36.6824 51.3701 36.0263 52.0263C35.3701 52.6824 35.0011 53.5721 35 54.5V57Z" fill="white"/>
<path d="M36.5 46.5C36.5 47.1922 36.7053 47.8689 37.0899 48.4445C37.4744 49.0201 38.0211 49.4687 38.6606 49.7336C39.3001 49.9985 40.0039 50.0678 40.6828 49.9327C41.3618 49.7977 41.9854 49.4644 42.4749 48.9749C42.9644 48.4854 43.2977 47.8617 43.4327 47.1828C43.5678 46.5039 43.4985 45.8001 43.2336 45.1606C42.9687 44.5211 42.5201 43.9744 41.9445 43.5899C41.3689 43.2053 40.6922 43 40 43C39.0717 43 38.1815 43.3687 37.5251 44.0251C36.8687 44.6815 36.5 45.5717 36.5 46.5Z" fill="white"/>
<circle cx="15" cy="15" r="15" fill="#219FE6"/>
<path d="M10 22H20V19.5C19.9989 18.5721 19.6299 17.6824 18.9737 17.0263C18.3176 16.3701 17.4279 16.0011 16.5 16H13.5C12.5721 16.0011 11.6824 16.3701 11.0263 17.0263C10.3701 17.6824 10.0011 18.5721 10 19.5V22Z" fill="white"/>
<path d="M11.5 11.5C11.5 12.1922 11.7053 12.8689 12.0899 13.4445C12.4744 14.0201 13.0211 14.4687 13.6606 14.7336C14.3001 14.9985 15.0039 15.0678 15.6828 14.9327C16.3618 14.7977 16.9854 14.4644 17.4749 13.9749C17.9644 13.4854 18.2977 12.8617 18.4327 12.1828C18.5678 11.5039 18.4985 10.8001 18.2336 10.1606C17.9687 9.52107 17.5201 8.97444 16.9445 8.58986C16.3689 8.20527 15.6922 8 15 8C14.0717 8 13.1815 8.36875 12.5251 9.02513C11.8687 9.6815 11.5 10.5717 11.5 11.5Z" fill="white"/>
</svg>
