<svg width="80" height="80" viewBox="0 0 80 80" fill="none" xmlns="http://www.w3.org/2000/svg">
    <circle cx="40" cy="40" r="40" fill="#2D313D"/>
    <path d="M60.2015 43.7369C60.2015 45.2576 59.6517 46.4818 58.5518 47.4093C57.4519 48.3275 56.3633 48.8773 54.3836 49.0591V51.9999H51.5163V49.1166C49.1828 49.0688 47.5872 48.6574 45.8274 47.883V44.0957C46.6594 44.5068 47.6589 44.8704 48.8256 45.1859C50.0019 45.5014 50.598 45.6879 51.5161 45.7454V41.2983L51.006 40.9253C49.1125 40.1792 47.7688 39.3711 46.9749 38.5008C46.1908 37.621 45.7986 36.5356 45.7986 35.2445C45.7986 33.8577 46.3389 32.7197 47.4197 31.8302C48.5099 30.9313 49.5748 30.3862 51.5161 30.1949V28.0001H54.3835V30.1376C56.5735 30.2333 58.1022 30.6733 59.8714 31.4574L58.523 34.8142C57.0311 34.2021 55.952 33.8291 54.3835 33.6953V37.9273C56.2483 38.6445 57.1218 39.2663 57.9062 39.7922C58.7 40.3181 59.2785 40.8968 59.642 41.5281C60.0148 42.1591 60.2016 42.8954 60.2016 43.7369H60.2015ZM55.8834 43.9523C55.8834 43.5506 55.7208 43.2112 55.3956 42.9338C55.0704 42.6564 55.0336 42.3695 54.3835 42.0729V45.6451C55.6841 45.4249 55.8834 44.8607 55.8834 43.9523ZM50.1167 35.2445C50.1167 35.6653 50.2602 36.0144 50.547 36.2916C50.8436 36.5593 50.8659 36.8367 51.5161 37.1235V33.7526C50.2823 33.9344 50.1167 34.4317 50.1167 35.2445Z" fill="#FFA800"/>
    <path d="M27 28C20.3726 28 15 33.3726 15 40C15 46.6274 20.3726 52 27 52C31.4482 52 35.3278 49.5779 37.4004 45.9824L33.1758 43.5522C31.9443 45.6881 29.6425 47.1294 27 47.1294C23.0625 47.1294 19.8706 43.9375 19.8706 40C19.8706 36.0625 23.0625 32.8706 27 32.8706C28.6877 32.8706 30.2346 33.461 31.4546 34.4424L28.3037 36.6836L39 40.2505V29.0723L35.5166 31.5508C33.3425 29.359 30.3311 28 27 28Z" fill="#FFA800"/>
</svg>
