<svg width="80" height="80" viewBox="0 0 80 80" fill="none" xmlns="http://www.w3.org/2000/svg">
    <circle cx="40" cy="40" r="40" fill="#2D313D"/>
    <path d="M49.4112 33.7019C48.1991 33.1934 46.9859 33 45.7734 33C41.9244 32.9997 38.0756 34.9481 34.2266 34.9481C33.2613 34.9481 32.2966 34.8256 31.3312 34.5194C31.2228 34.485 31.1141 34.4688 31.0078 34.4688C30.47 34.4688 30 34.885 30 35.4628V45.3772C30 45.7719 30.2259 46.1459 30.5888 46.2978C31.8009 46.8066 33.0141 47 34.2266 47C38.0756 47 41.9247 45.0516 45.7738 45.0516C46.7391 45.0516 47.7037 45.1741 48.6691 45.4803C48.7775 45.5147 48.8863 45.5309 48.9925 45.5309C49.5303 45.5309 50.0003 45.1147 50.0003 44.5369V34.6228C50 34.2278 49.7741 33.8541 49.4112 33.7019V33.7019ZM40 43C38.6191 43 37.5 41.6566 37.5 40C37.5 38.3431 38.6194 37 40 37C41.3806 37 42.5 38.3431 42.5 40C42.5 41.6572 41.3803 43 40 43Z" fill="#BE06FF"/>
</svg>
