<svg width="20" height="16" viewBox="0 0 20 16" fill="none" xmlns="http://www.w3.org/2000/svg">
    <path d="M13.5456 5.18563L16.7081 1.68969C17.3315 1.06625 16.89 0 16.0081 0H0.991831C0.109956 0 -0.331607 1.06625 0.291831 1.68969L5.99996 8V12.8725C5.99996 13.2659 6.18527 13.6363 6.49996 13.8725L8.99964 15.7475C9.65152 16.2363 10.5143 15.9653 10.8503 15.3234C9.71246 14.2306 8.99996 12.6984 8.99996 11C8.99996 8.19406 10.939 5.83844 13.5456 5.18563V5.18563ZM15 6C12.2384 6 9.99996 8.23844 9.99996 11C9.99996 13.7616 12.2384 16 15 16C17.7615 16 20 13.7616 20 11C20 8.23844 17.7615 6 15 6ZM15.5 13.4963V14C15.5 14.1381 15.3881 14.25 15.25 14.25H14.75C14.6118 14.25 14.5 14.1381 14.5 14V13.4909C14.1471 13.4728 13.804 13.3497 13.5196 13.1362C13.3978 13.0447 13.3915 12.8622 13.5018 12.7569L13.869 12.4066C13.9556 12.3241 14.0843 12.3203 14.1856 12.3837C14.3065 12.4594 14.4437 12.5 14.5862 12.5H15.4646C15.6678 12.5 15.8334 12.315 15.8334 12.0878C15.8334 11.9019 15.7206 11.7381 15.5593 11.69L14.1531 11.2681C13.5721 11.0937 13.1662 10.5363 13.1662 9.91219C13.1662 9.14594 13.7615 8.52344 14.4996 8.50375V8C14.4996 7.86187 14.6115 7.75 14.7496 7.75H15.2496C15.3878 7.75 15.4996 7.86187 15.4996 8V8.50906C15.8525 8.52719 16.1956 8.65 16.48 8.86375C16.6018 8.95531 16.6081 9.13781 16.4978 9.24312L16.1306 9.59344C16.044 9.67594 15.9153 9.67969 15.814 9.61625C15.6931 9.54031 15.5559 9.5 15.4134 9.5H14.535C14.3318 9.5 14.1662 9.685 14.1662 9.91219C14.1662 10.0981 14.279 10.2619 14.4403 10.31L15.8465 10.7319C16.4275 10.9063 16.8334 11.4637 16.8334 12.0878C16.8334 12.8544 16.2384 13.4766 15.5 13.4963V13.4963Z" fill="#219FE5"/>
</svg>
