<svg width="80" height="80" viewBox="0 0 80 80" fill="none" xmlns="http://www.w3.org/2000/svg">
    <circle cx="40" cy="40" r="40" fill="#2D313D"/>
    <path d="M50 30.25H46.75V28.75C46.7501 28.5511 46.6712 28.3603 46.5307 28.2195C46.3901 28.0788 46.1994 27.9996 46.0005 27.9995C45.8016 27.9994 45.6108 28.0783 45.47 28.2188C45.3293 28.3594 45.2501 28.5501 45.25 28.749V30.25H40.75V28.75C40.7501 28.6515 40.7307 28.554 40.6931 28.463C40.6555 28.3719 40.6003 28.2892 40.5307 28.2195C40.4611 28.1498 40.3784 28.0945 40.2875 28.0568C40.1965 28.019 40.099 27.9996 40.0005 27.9995C39.8016 27.9994 39.6108 28.0783 39.47 28.2188C39.3293 28.3594 39.2501 28.5501 39.25 28.749V30.25H34.75V28.75C34.7501 28.6515 34.7307 28.554 34.6931 28.463C34.6555 28.3719 34.6003 28.2892 34.5307 28.2195C34.4611 28.1498 34.3784 28.0945 34.2875 28.0568C34.1965 28.019 34.099 27.9996 34.0005 27.9995C33.8016 27.9994 33.6108 28.0783 33.47 28.2188C33.3293 28.3594 33.2501 28.5501 33.25 28.749V30.25H30C29.4697 30.25 28.9612 30.4606 28.5861 30.8354C28.2111 31.2103 28.0003 31.7188 28 32.249V49.999C28 50.5294 28.2107 51.0382 28.5858 51.4132C28.9609 51.7883 29.4696 51.999 30 51.999H50C50.5304 51.999 51.0391 51.7883 51.4142 51.4132C51.7893 51.0382 52 50.5294 52 49.999V32.249C51.9997 31.7188 51.7889 31.2103 51.4139 30.8354C51.0388 30.4606 50.5303 30.25 50 30.25ZM50.5 50C50.5 50.1324 50.4475 50.2595 50.3539 50.3532C50.2604 50.447 50.1334 50.4997 50.001 50.5H30C29.8674 50.5 29.7402 50.4473 29.6464 50.3536C29.5527 50.2598 29.5 50.1326 29.5 50V32.25C29.5003 32.1176 29.5531 31.9907 29.6468 31.8971C29.7405 31.8036 29.8676 31.751 30 31.751H33.25V33.251C33.2499 33.4499 33.3288 33.6407 33.4693 33.7815C33.6099 33.9222 33.8006 34.0014 33.9995 34.0015C34.1984 34.0016 34.3892 33.9228 34.53 33.7822C34.6707 33.6416 34.7499 33.4509 34.75 33.252V31.751H39.25V33.251C39.2499 33.4499 39.3288 33.6407 39.4693 33.7815C39.6099 33.9222 39.8006 34.0014 39.9995 34.0015C40.1984 34.0016 40.3892 33.9228 40.53 33.7822C40.6707 33.6416 40.7499 33.4509 40.75 33.252V31.751H45.25V33.251C45.2499 33.4499 45.3288 33.6407 45.4693 33.7815C45.6099 33.9222 45.8006 34.0014 45.9995 34.0015C46.1984 34.0016 46.3892 33.9228 46.53 33.7822C46.6707 33.6416 46.7499 33.4509 46.75 33.252V31.751H50C50.1323 31.7513 50.259 31.8039 50.3526 31.8975C50.4461 31.991 50.4987 32.1178 50.499 32.25L50.5 50Z" fill="#01FFE1"/>
    <path d="M33.25 37H36.25V39.25H33.25V37Z" fill="#01FFE1"/>
    <path d="M33.25 40.75H36.25V43H33.25V40.75Z" fill="#01FFE1"/>
    <path d="M33.25 44.5H36.25V46.75H33.25V44.5Z" fill="#01FFE1"/>
    <path d="M38.5 44.5H41.5V46.75H38.5V44.5Z" fill="#01FFE1"/>
    <path d="M38.5 40.75H41.5V43H38.5V40.75Z" fill="#01FFE1"/>
    <path d="M38.5 37H41.5V39.25H38.5V37Z" fill="#01FFE1"/>
    <path d="M43.75 44.5H46.75V46.75H43.75V44.5Z" fill="#01FFE1"/>
    <path d="M43.75 40.75H46.75V43H43.75V40.75Z" fill="#01FFE1"/>
    <path d="M43.75 37H46.75V39.25H43.75V37Z" fill="#01FFE1"/>
</svg>
