<svg width="80" height="80" viewBox="0 0 80 80" fill="none" xmlns="http://www.w3.org/2000/svg">
    <circle cx="40" cy="40" r="40" fill="#2D313D"/>
    <path d="M51.895 39.625C51.8084 39.3377 51.6541 39.0753 51.445 38.86C51.2854 38.6879 51.0806 38.5641 50.854 38.503C50.965 38.6785 51.0655 38.881 51.1405 39.097C51.2245 39.3175 51.2785 39.553 51.295 39.7975C51.3203 40.0087 51.3203 40.2223 51.295 40.4335C51.2482 40.2769 51.1763 40.129 51.082 39.9955C50.8962 39.7445 50.648 39.5464 50.362 39.421C50.0452 39.2783 49.6868 39.2579 49.3558 39.3637C49.0249 39.4695 48.7448 39.694 48.5695 39.994C48.4945 40.117 48.4345 40.2505 48.3895 40.393C46.6165 37.441 43.426 35.4865 39.778 35.4865C39.592 35.4865 39.4075 35.491 39.2245 35.5015C38.0927 35.5036 36.9666 35.6616 35.878 35.971C35.785 35.32 34.93 34 31 34L32.2 37.765C31.4454 38.375 30.8111 39.1202 30.3295 39.9625L28 40C28 40 27.745 46 29.5 46H30.31C30.8614 46.9347 31.5992 47.746 32.4775 48.3835L32.5 52H34.12C36.085 52 37 52 37 50.875V50.29C38.513 50.5704 40.065 50.5663 41.5765 50.278L41.5 50.875C41.5 52 42.43 52 44.41 52H46V48.415C47.4065 47.4398 48.4188 45.9946 48.8545 44.3395C48.94 44.299 49.0255 44.3035 49.1125 44.3035C49.1995 44.3035 49.285 44.299 49.3705 44.2885C49.747 44.2195 50.0905 44.0725 50.389 43.864C50.7924 43.5786 51.1012 43.1789 51.2755 42.7165C51.3175 42.577 51.349 42.43 51.37 42.2785L51.3715 42.2635C51.703 41.8705 51.9295 41.3785 52 40.837C52.0613 40.4232 52.0243 40.0008 51.892 39.604L51.895 39.625ZM33.265 39.625C33.5634 39.625 33.8495 39.7435 34.0605 39.9545C34.2715 40.1655 34.39 40.4516 34.39 40.75C34.39 41.0484 34.2715 41.3345 34.0605 41.5455C33.8495 41.7565 33.5634 41.875 33.265 41.875C32.9666 41.875 32.6805 41.7565 32.4695 41.5455C32.2585 41.3345 32.14 41.0484 32.14 40.75C32.14 40.4516 32.2585 40.1655 32.4695 39.9545C32.6805 39.7435 32.9666 39.625 33.265 39.625V39.625ZM36.82 38.5C36.6506 38.5543 36.4674 38.5469 36.303 38.4791C36.1385 38.4113 36.0034 38.2874 35.9215 38.1295C35.896 38.0508 35.8874 37.9676 35.8965 37.8853C35.9055 37.8031 35.9318 37.7237 35.9738 37.6524C36.0158 37.5811 36.0724 37.5195 36.1399 37.4717C36.2074 37.4239 36.2843 37.3909 36.3655 37.375C37.3521 37.1384 38.3646 37.0276 39.379 37.045L39.5305 37.0435C40.5385 37.0435 41.5165 37.1635 42.454 37.3915C42.643 37.4275 42.847 37.6645 42.847 37.9495C42.8469 38.0101 42.8373 38.0704 42.8185 38.128C42.766 38.2253 42.6919 38.3092 42.6019 38.3734C42.512 38.4376 42.4085 38.4804 42.2995 38.4985H42.07C41.232 38.2967 40.3729 38.196 39.511 38.1985H39.3775C38.47 38.1985 37.588 38.308 36.7435 38.515L36.82 38.5ZM49.87 42.895C49.6676 43.0422 49.4358 43.144 49.1905 43.1935L49 43.195V43V42.535C49.2475 42.7225 49.561 42.835 49.9 42.835H49.9315L49.87 42.895ZM49.99 41.875C49.8506 41.8945 49.7085 41.869 49.5847 41.8021C49.4608 41.7351 49.3616 41.6303 49.3015 41.503C49.2328 41.372 49.197 41.2262 49.1972 41.0783C49.1975 40.9304 49.2338 40.7847 49.303 40.654C49.3743 40.5553 49.4793 40.4861 49.5982 40.4596C49.717 40.4331 49.8415 40.451 49.948 40.51C50.0839 40.5622 50.2008 40.6543 50.2833 40.7743C50.3658 40.8943 50.41 41.0364 50.41 41.182V41.1835C50.4396 41.3915 50.4391 41.6027 50.4085 41.8105C50.2692 41.8373 50.1273 41.8484 49.9855 41.8435L49.99 41.875Z" fill="#00A3FF"/>
    <path d="M40 32.4999H38.5V32.2449H38.875V30.6099H38.5L39.325 29.7849H39.625V32.2449H40V32.4999Z" fill="#00A3FF"/>
    <path d="M39.25 29.125C39.5456 29.1251 39.8382 29.1834 40.1113 29.2966C40.3843 29.4098 40.6324 29.5757 40.8413 29.7848C41.0502 29.9938 41.2159 30.242 41.329 30.5151C41.442 30.7882 41.5001 31.0809 41.5 31.3765C41.4999 31.6721 41.4416 31.9647 41.3284 32.2378C41.2152 32.5108 41.0493 32.7589 40.8402 32.9678C40.6312 33.1767 40.383 33.3424 40.1099 33.4555C39.8368 33.5685 39.5441 33.6266 39.2485 33.6265C38.6516 33.6263 38.0792 33.389 37.6572 32.9667C37.2352 32.5445 36.9983 31.9719 36.9985 31.375C36.9987 30.7781 37.236 30.2057 37.6583 29.7837C38.0805 29.3617 38.6531 29.1248 39.25 29.125V29.125ZM39.25 28C38.3549 28 37.4965 28.3556 36.8635 28.9885C36.2306 29.6214 35.875 30.4799 35.875 31.375C35.875 32.2701 36.2306 33.1286 36.8635 33.7615C37.4965 34.3944 38.3549 34.75 39.25 34.75C40.1451 34.75 41.0035 34.3944 41.6365 33.7615C42.2694 33.1286 42.625 32.2701 42.625 31.375C42.625 30.4799 42.2694 29.6214 41.6365 28.9885C41.0035 28.3556 40.1451 28 39.25 28V28Z" fill="#00A3FF"/>
</svg>
