<svg width="80" height="80" viewBox="0 0 80 80" fill="none" xmlns="http://www.w3.org/2000/svg">
    <circle cx="40" cy="40" r="40" fill="#2D313D"/>
    <path d="M47.48 40.35C45.91 36.27 40.32 36.05 41.67 30.12C41.77 29.68 41.3 29.34 40.92 29.57C37.29 31.71 34.68 36 36.87 41.62C37.05 42.08 36.51 42.51 36.12 42.21C34.31 40.84 34.12 38.87 34.28 37.46C34.34 36.94 33.66 36.69 33.37 37.12C32.69 38.16 32 39.84 32 42.37C32.38 47.97 37.11 49.69 38.81 49.91C41.24 50.22 43.87 49.77 45.76 48.04C47.84 46.11 48.6 43.03 47.48 40.35ZM38.2 45.38C39.64 45.03 40.38 43.99 40.58 43.07C40.91 41.64 39.62 40.24 40.49 37.98C40.82 39.85 43.76 41.02 43.76 43.06C43.84 45.59 41.1 47.76 38.2 45.38Z" fill="#FB0045"/>
</svg>
