<svg width="20" height="20" viewBox="0 0 20 20" fill="none" xmlns="http://www.w3.org/2000/svg">
    <path d="M17.5001 14.1667H7.50011C7.28771 14.1669 7.08342 14.2483 6.92897 14.3941C6.77452 14.5399 6.68158 14.7391 6.66913 14.9512C6.65669 15.1632 6.72567 15.372 6.862 15.5349C6.99832 15.6978 7.1917 15.8024 7.40261 15.8275L7.50011 15.8334H17.5001C17.7125 15.8331 17.9168 15.7518 18.0712 15.606C18.2257 15.4602 18.3186 15.2609 18.3311 15.0489C18.3435 14.8368 18.2745 14.628 18.1382 14.4652C18.0019 14.3023 17.8085 14.1976 17.5976 14.1725L17.5001 14.1667H7.50011H17.5001ZM17.5001 10.8334H2.50011C2.28771 10.8336 2.08342 10.9149 1.92897 11.0607C1.77452 11.2065 1.68158 11.4058 1.66913 11.6179C1.65669 11.8299 1.72567 12.0387 1.862 12.2015C1.99832 12.3644 2.1917 12.4691 2.40261 12.4942L2.50011 12.5H17.5001C17.7125 12.4998 17.9168 12.4185 18.0712 12.2726C18.2257 12.1268 18.3186 11.9276 18.3311 11.7155C18.3435 11.5035 18.2745 11.2947 18.1382 11.1318C18.0019 10.9689 17.8085 10.8643 17.5976 10.8392L17.5001 10.8334H2.50011H17.5001ZM17.5001 7.50002H2.50011C2.28771 7.50026 2.08342 7.58159 1.92897 7.72739C1.77452 7.8732 1.68158 8.07248 1.66913 8.28452C1.65669 8.49655 1.72567 8.70534 1.862 8.86821C1.99832 9.03109 2.1917 9.13577 2.40261 9.16085L2.50011 9.16669H17.5001C17.7125 9.16645 17.9168 9.08512 18.0712 8.93931C18.2257 8.79351 18.3186 8.59423 18.3311 8.38219C18.3435 8.17016 18.2745 7.96137 18.1382 7.79849C18.0019 7.63562 17.8085 7.53094 17.5976 7.50585L17.5001 7.50002H2.50011H17.5001ZM17.5001 4.16669H2.50011C2.28771 4.16692 2.08342 4.24825 1.92897 4.39406C1.77452 4.53987 1.68158 4.73915 1.66913 4.95118C1.65669 5.16322 1.72567 5.372 1.862 5.53488C1.99832 5.69776 2.1917 5.80243 2.40261 5.82752L2.50011 5.83335H17.5001C17.7125 5.83312 17.9168 5.75179 18.0712 5.60598C18.2257 5.46017 18.3186 5.26089 18.3311 5.04886C18.3435 4.83682 18.2745 4.62804 18.1382 4.46516C18.0019 4.30228 17.8085 4.19761 17.5976 4.17252L17.5001 4.16669H2.50011H17.5001Z" fill="#219FE6"/>
</svg>
