<svg width="20" height="20" viewBox="0 0 20 20" fill="none" xmlns="http://www.w3.org/2000/svg">
    <path d="M5.58325 9.99995C5.58637 10.9235 5.70204 11.8433 5.9277 12.7388H9.5277V7.47217H5.8777C5.68565 8.30115 5.58689 9.14901 5.58325 9.99995Z" fill="#219FE6"/>
    <path d="M10.4722 12.7444H14.0722C14.3076 11.8482 14.4326 10.9265 14.4444 9.99995C14.4426 9.14922 14.3457 8.30137 14.1555 7.47217H10.4722V12.7444Z" fill="#219FE6"/>
    <path d="M18.3999 7.11651C18.0641 7.27062 17.7091 7.37899 17.3444 7.43873H17.2222C16.8411 7.49768 16.4532 7.49768 16.0722 7.43873H15.0722C15.2608 8.27958 15.3595 9.13811 15.3666 9.99984C15.3638 10.9218 15.2575 11.8405 15.0499 12.7387H17.2722C17.1426 13.0845 16.9885 13.4205 16.8111 13.7443H14.7777C14.3975 14.9347 13.8353 16.0591 13.1111 17.0776C12.5766 17.3105 12.0175 17.482 11.4444 17.5887C12.4708 16.4735 13.2607 15.1619 13.7666 13.7332H10.4777V17.7054H9.53883V13.7276H6.23328C6.73851 15.1583 7.52848 16.4718 8.5555 17.5887C7.9942 17.4832 7.44638 17.3155 6.92217 17.0887C6.1954 16.0617 5.6331 14.9278 5.2555 13.7276H3.21106C3.03358 13.4039 2.87948 13.0678 2.74994 12.7221H4.97217C4.76394 11.8294 4.65586 10.9164 4.64995 9.99984C4.65025 9.15024 4.73963 8.30302 4.91661 7.47206H2.64439C2.76122 7.12733 2.90231 6.79131 3.06661 6.46651H5.18328C5.58044 5.14375 6.19637 3.89687 7.0055 2.77762C7.5186 2.56501 8.05319 2.40855 8.59995 2.31095C7.49476 3.49709 6.66068 4.90934 6.1555 6.44984H9.53883V2.22206H10.4777V6.46651H13.8611V6.39429C13.1147 5.70326 12.6482 4.76221 12.5499 3.74984C12.2178 3.24886 11.8462 2.77514 11.4388 2.33317C11.8276 2.40808 12.2101 2.51207 12.5833 2.64429C12.6432 2.28747 12.7496 1.94005 12.8999 1.61095C10.9923 0.951346 8.91742 0.958052 7.01411 1.62997C5.11079 2.3019 3.49155 3.59933 2.42083 5.31037C1.35012 7.02141 0.891208 9.04494 1.11905 11.0505C1.3469 13.056 2.24803 14.925 3.67528 16.3523C5.10253 17.7795 6.97155 18.6807 8.97709 18.9085C10.9826 19.1364 13.0062 18.6774 14.7172 17.6067C16.4282 16.536 17.7257 14.9168 18.3976 13.0135C19.0695 11.1101 19.0762 9.03524 18.4166 7.12762L18.3999 7.11651Z" fill="#219FE6"/>
    <path d="M16.6667 6.1111C18.2008 6.1111 19.4445 4.86744 19.4445 3.33332C19.4445 1.7992 18.2008 0.555542 16.6667 0.555542C15.1326 0.555542 13.8889 1.7992 13.8889 3.33332C13.8889 4.86744 15.1326 6.1111 16.6667 6.1111Z" fill="#219FE6"/>
</svg>
