<svg width="80" height="80" viewBox="0 0 80 80" fill="none" xmlns="http://www.w3.org/2000/svg">
    <circle cx="40" cy="40" r="40" fill="#2D313D"/>
    <path d="M43.8977 43.0563C44.4649 42.7516 45.1141 42.5781 45.8055 42.5781H45.8079C45.8782 42.5781 45.911 42.4938 45.8594 42.4469C45.1404 41.8016 44.319 41.2804 43.429 40.9047C43.4196 40.9 43.4102 40.8977 43.4008 40.893C44.8563 39.8359 45.8032 38.118 45.8032 36.1797C45.8032 32.9688 43.2063 30.3672 40.0024 30.3672C36.7985 30.3672 34.204 32.9688 34.204 36.1797C34.204 38.118 35.1508 39.8359 36.6087 40.893C36.5993 40.8977 36.5899 40.9 36.5805 40.9047C35.5329 41.3477 34.593 41.9828 33.7844 42.7938C32.9805 43.5962 32.3405 44.5475 31.9001 45.5945C31.4667 46.6198 31.2329 47.7184 31.211 48.8312C31.2104 48.8563 31.2148 48.8812 31.2239 48.9044C31.233 48.9277 31.2468 48.949 31.2642 48.9669C31.2817 48.9848 31.3026 48.999 31.3256 49.0087C31.3487 49.0184 31.3735 49.0234 31.3985 49.0234H32.8024C32.9032 49.0234 32.9876 48.9414 32.9899 48.8406C33.0368 47.0312 33.761 45.3367 35.043 44.0523C36.3672 42.7234 38.1297 41.9922 40.0047 41.9922C41.3337 41.9922 42.6087 42.3602 43.7079 43.0492C43.7361 43.067 43.7685 43.077 43.8019 43.0782C43.8352 43.0794 43.8682 43.0719 43.8977 43.0563ZM40.0047 40.2109C38.9313 40.2109 37.9212 39.7914 37.1594 39.0297C36.7847 38.6559 36.4875 38.2116 36.2852 37.7225C36.0829 37.2333 35.9793 36.709 35.9805 36.1797C35.9805 35.1039 36.4001 34.0914 37.1594 33.3297C37.9188 32.568 38.929 32.1484 40.0047 32.1484C41.0805 32.1484 42.0883 32.568 42.8501 33.3297C43.2248 33.7035 43.5219 34.1478 43.7243 34.6369C43.9266 35.126 44.0302 35.6504 44.029 36.1797C44.029 37.2555 43.6094 38.268 42.8501 39.0297C42.0883 39.7914 41.0782 40.2109 40.0047 40.2109ZM48.6251 45.7891H46.6563V43.8203C46.6563 43.7172 46.5719 43.6328 46.4688 43.6328H45.1563C45.0532 43.6328 44.9688 43.7172 44.9688 43.8203V45.7891H43.0001C42.8969 45.7891 42.8126 45.8734 42.8126 45.9766V47.2891C42.8126 47.3922 42.8969 47.4766 43.0001 47.4766H44.9688V49.4453C44.9688 49.5484 45.0532 49.6328 45.1563 49.6328H46.4688C46.5719 49.6328 46.6563 49.5484 46.6563 49.4453V47.4766H48.6251C48.7282 47.4766 48.8126 47.3922 48.8126 47.2891V45.9766C48.8126 45.8734 48.7282 45.7891 48.6251 45.7891Z" fill="#42FF00"/>
</svg>
