<svg width="20" height="20" viewBox="0 0 20 20" fill="none" xmlns="http://www.w3.org/2000/svg">
    <path d="M17.4881 20H2.50269C1.81326 20 1.22464 19.7559 0.736834 19.2676C0.249029 18.7793 0.00512695 18.1901 0.00512695 17.5V2.5C0.00512695 1.8099 0.249029 1.2207 0.736834 0.732422C1.22464 0.244141 1.81326 0 2.50269 0H17.4881C18.1775 0 18.7661 0.244141 19.2539 0.732422C19.7417 1.2207 19.9856 1.8099 19.9856 2.5V17.5C19.9856 18.1901 19.7417 18.7793 19.2539 19.2676C18.7661 19.7559 18.1775 20 17.4881 20ZM6.24903 14.375C6.24903 14.2057 6.18724 14.0592 6.06366 13.9355C5.94009 13.8118 5.79374 13.75 5.62464 13.75H4.37586C4.20675 13.75 4.06041 13.8118 3.93683 13.9355C3.81326 14.0592 3.75147 14.2057 3.75147 14.375V16.875C3.75147 17.0443 3.81326 17.1908 3.93683 17.3145C4.06041 17.4382 4.20675 17.5 4.37586 17.5H5.62464C5.79374 17.5 5.94009 17.4382 6.06366 17.3145C6.18724 17.1908 6.24903 17.0443 6.24903 16.875V14.375ZM11.2442 9.375C11.2442 9.20573 11.1824 9.05925 11.0588 8.93555C10.9352 8.81185 10.7889 8.75 10.6198 8.75H9.37098C9.20187 8.75 9.05553 8.81185 8.93196 8.93555C8.80838 9.05925 8.74659 9.20573 8.74659 9.375V16.875C8.74659 17.0443 8.80838 17.1908 8.93196 17.3145C9.05553 17.4382 9.20187 17.5 9.37098 17.5H10.6198C10.7889 17.5 10.9352 17.4382 11.0588 17.3145C11.1824 17.1908 11.2442 17.0443 11.2442 16.875V9.375ZM16.2393 3.125C16.2393 2.95573 16.1775 2.80924 16.0539 2.68555C15.9303 2.56185 15.784 2.5 15.6149 2.5H14.3661C14.197 2.5 14.0507 2.56185 13.9271 2.68555C13.8035 2.80924 13.7417 2.95573 13.7417 3.125V16.875C13.7417 17.0443 13.8035 17.1908 13.9271 17.3145C14.0507 17.4382 14.197 17.5 14.3661 17.5H15.6149C15.784 17.5 15.9303 17.4382 16.0539 17.3145C16.1775 17.1908 16.2393 17.0443 16.2393 16.875V3.125Z" fill="#219FE6"/>
</svg>
