<svg width="60" height="60" viewBox="0 0 60 60" fill="none" xmlns="http://www.w3.org/2000/svg">
<path d="M54.375 3.75H5.625C2.51836 3.75 0 6.26836 0 9.375V50.625C0 53.7316 2.51836 56.25 5.625 56.25H54.375C57.4816 56.25 60 53.7316 60 50.625V9.375C60 6.26836 57.4816 3.75 54.375 3.75ZM53.6719 50.625H6.32812C6.14164 50.625 5.9628 50.5509 5.83094 50.4191C5.69908 50.2872 5.625 50.1084 5.625 49.9219V10.0781C5.625 9.89164 5.69908 9.7128 5.83094 9.58094C5.9628 9.44908 6.14164 9.375 6.32812 9.375H53.6719C53.8584 9.375 54.0372 9.44908 54.1691 9.58094C54.3009 9.7128 54.375 9.89164 54.375 10.0781V49.9219C54.375 50.1084 54.3009 50.2872 54.1691 50.4191C54.0372 50.5509 53.8584 50.625 53.6719 50.625ZM48.75 39.8438V42.6562C48.75 43.4328 48.1203 44.0625 47.3438 44.0625H23.9062C23.1296 44.0625 22.5 43.4328 22.5 42.6562V39.8438C22.5 39.0672 23.1296 38.4375 23.9062 38.4375H47.3438C48.1203 38.4375 48.75 39.0672 48.75 39.8438ZM48.75 28.5938V31.4062C48.75 32.1829 48.1203 32.8125 47.3438 32.8125H23.9062C23.1296 32.8125 22.5 32.1829 22.5 31.4062V28.5938C22.5 27.8171 23.1296 27.1875 23.9062 27.1875H47.3438C48.1203 27.1875 48.75 27.8171 48.75 28.5938ZM48.75 17.3438V20.1562C48.75 20.9329 48.1203 21.5625 47.3438 21.5625H23.9062C23.1296 21.5625 22.5 20.9329 22.5 20.1562V17.3438C22.5 16.5671 23.1296 15.9375 23.9062 15.9375H47.3438C48.1203 15.9375 48.75 16.5671 48.75 17.3438ZM19.2188 18.75C19.2188 21.0799 17.3299 22.9688 15 22.9688C12.6701 22.9688 10.7812 21.0799 10.7812 18.75C10.7812 16.4201 12.6701 14.5312 15 14.5312C17.3299 14.5312 19.2188 16.4201 19.2188 18.75ZM19.2188 30C19.2188 32.3299 17.3299 34.2188 15 34.2188C12.6701 34.2188 10.7812 32.3299 10.7812 30C10.7812 27.6701 12.6701 25.7812 15 25.7812C17.3299 25.7812 19.2188 27.6701 19.2188 30ZM19.2188 41.25C19.2188 43.5799 17.3299 45.4688 15 45.4688C12.6701 45.4688 10.7812 43.5799 10.7812 41.25C10.7812 38.9201 12.6701 37.0312 15 37.0312C17.3299 37.0312 19.2188 38.9201 19.2188 41.25Z" fill="#898A98"/>
</svg>
